<svg width="142" height="72" viewBox="0 0 142 72" fill="none" xmlns="http://www.w3.org/2000/svg">
<path d="M7.34 27.92C6.88 27.92 6.54 27.76 6.32 27.44C5.38 27.6 4.47 27.73 3.59 27.83C2.71 27.93 1.93 27.98 1.25 27.98C0.81 27.98 0.5 27.89 0.32 27.71C0.14 27.53 0.05 27.25 0.05 26.87C0.05 26.45 0.54 26.01 1.52 25.55C2.5 25.07 4.08 24.7 6.26 24.44C6.4 23.5 6.62 22.33 6.92 20.93C7.22 19.51 7.55 18 7.91 16.4C8.29 14.78 8.66 13.21 9.02 11.69C8.32 12.45 7.59 13.17 6.83 13.85C6.07 14.51 5.35 15.05 4.67 15.47C3.99 15.87 3.4 16.07 2.9 16.07C2.42 16.07 2.18 15.77 2.18 15.17C2.18 14.93 2.4 14.59 2.84 14.15C3.3 13.71 3.88 13.16 4.58 12.5C5.3 11.84 6.07 11.07 6.89 10.19C7.71 9.31 8.51 8.32 9.29 7.22C10.07 6.12 10.73 4.9 11.27 3.56C11.45 3.14 11.64 2.88 11.84 2.78C12.04 2.68 12.21 2.63 12.35 2.63C12.65 2.63 12.92 2.77 13.16 3.05C13.4 3.31 13.52 3.85 13.52 4.67C13.52 4.81 13.42 5.33 13.22 6.23C13.02 7.11 12.75 8.25 12.41 9.65C12.09 11.05 11.72 12.59 11.3 14.27C10.9 15.95 10.5 17.65 10.1 19.37C9.7 21.09 9.33 22.71 8.99 24.23C9.97 24.17 11 24.14 12.08 24.14C12.88 24.14 13.44 24.18 13.76 24.26C14.1 24.32 14.3 24.41 14.36 24.53C14.44 24.63 14.48 24.75 14.48 24.89C14.48 25.09 14.19 25.32 13.61 25.58C13.03 25.82 12.27 26.07 11.33 26.33C10.39 26.59 9.37 26.84 8.27 27.08C8.03 27.64 7.72 27.92 7.34 27.92ZM27.2117 27.08C25.1517 27.08 23.6717 26.69 22.7717 25.91C21.8917 25.11 21.4517 24.03 21.4517 22.67C21.4517 21.77 21.7417 20.85 22.3217 19.91C22.9017 18.95 23.6717 17.99 24.6317 17.03C25.6117 16.05 26.6817 15.07 27.8417 14.09C26.6017 13.61 25.7217 13.1 25.2017 12.56C24.6817 12.02 24.4217 11.38 24.4217 10.64C24.4217 10.14 24.6717 9.54 25.1717 8.84C25.6717 8.14 26.3217 7.42 27.1217 6.68C27.9217 5.94 28.7917 5.25 29.7317 4.61C30.6917 3.97 31.6317 3.45 32.5517 3.05C33.4717 2.65 34.2817 2.45 34.9817 2.45C35.5017 2.45 35.8717 2.59 36.0917 2.87C36.3317 3.15 36.4517 3.53 36.4517 4.01C36.4517 4.33 36.3317 4.6 36.0917 4.82C35.8717 5.04 35.3817 5.15 34.6217 5.15C34.4817 5.15 34.3317 5.15 34.1717 5.15C34.0317 5.13 33.8717 5.11 33.6917 5.09C32.6317 5.67 31.6417 6.29 30.7217 6.95C29.8017 7.61 29.0217 8.29 28.3817 8.99C27.7617 9.69 27.3417 10.37 27.1217 11.03C27.5617 11.21 28.0317 11.4 28.5317 11.6C29.0517 11.78 29.6017 11.97 30.1817 12.17C30.6217 11.81 31.0617 11.46 31.5017 11.12C31.9417 10.76 32.3717 10.4 32.7917 10.04C34.2717 8.82 35.6317 7.7 36.8717 6.68C38.1317 5.66 39.1717 4.84 39.9917 4.22C40.8317 3.6 41.3417 3.29 41.5217 3.29C41.6617 3.29 41.7917 3.35 41.9117 3.47C42.0317 3.57 42.0917 3.76 42.0917 4.04C42.0917 4.18 41.8717 4.49 41.4317 4.97C40.9917 5.43 40.3917 6.02 39.6317 6.74C38.8717 7.44 38.0017 8.23 37.0217 9.11C36.0617 9.99 35.0517 10.91 33.9917 11.87C33.7917 12.05 33.5817 12.24 33.3617 12.44C33.1417 12.62 32.9317 12.8 32.7317 12.98C34.3117 13.58 35.5317 14.37 36.3917 15.35C37.2717 16.33 37.7117 17.58 37.7117 19.1C37.7117 20.5 37.3017 21.81 36.4817 23.03C35.6817 24.25 34.5017 25.23 32.9417 25.97C31.3817 26.71 29.4717 27.08 27.2117 27.08ZM30.5117 14.93C29.4117 15.89 28.3917 16.81 27.4517 17.69C26.5317 18.55 25.7917 19.36 25.2317 20.12C24.6717 20.88 24.3917 21.56 24.3917 22.16C24.3917 22.92 24.6317 23.53 25.1117 23.99C25.6117 24.43 26.5117 24.65 27.8117 24.65C28.7317 24.65 29.6217 24.5 30.4817 24.2C31.3617 23.88 32.1517 23.45 32.8517 22.91C33.5517 22.35 34.1017 21.73 34.5017 21.05C34.9217 20.35 35.1317 19.63 35.1317 18.89C35.1317 17.95 34.7117 17.16 33.8717 16.52C33.0317 15.86 31.9117 15.33 30.5117 14.93ZM46.0391 33.92C44.4991 33.92 43.3691 33.77 42.6491 33.47C41.9291 33.17 41.5691 32.77 41.5691 32.27C41.5691 31.95 41.6691 31.69 41.8691 31.49C42.0891 31.29 42.3591 31.19 42.6791 31.19C43.0191 31.19 43.5091 31.24 44.1491 31.34C44.7891 31.46 45.4191 31.52 46.0391 31.52C48.0991 31.52 49.7891 30.91 51.1091 29.69C52.4291 28.47 53.4391 26.6 54.1391 24.08C54.8391 21.54 55.3091 18.3 55.5491 14.36C54.9491 15.58 54.2691 16.8 53.5091 18.02C52.7691 19.22 51.9691 20.32 51.1091 21.32C50.2691 22.3 49.3991 23.09 48.4991 23.69C47.5991 24.29 46.7091 24.59 45.8291 24.59C44.9891 24.59 44.3691 24.38 43.9691 23.96C43.5891 23.54 43.3991 22.85 43.3991 21.89C43.3991 21.03 43.6391 20.12 44.1191 19.16C44.5991 18.18 45.2391 17.2 46.0391 16.22C46.8391 15.24 47.7191 14.31 48.6791 13.43C49.6391 12.53 50.5991 11.74 51.5591 11.06C52.5391 10.36 53.4491 9.81 54.2891 9.41C55.1291 9.01 55.8091 8.81 56.3291 8.81C56.8491 8.81 57.2491 8.99 57.5291 9.35C57.8091 9.71 57.9491 10.39 57.9491 11.39C57.9491 13.73 57.8691 16.01 57.7091 18.23C57.5691 20.43 57.2791 22.48 56.8391 24.38C56.3991 26.28 55.7391 27.94 54.8591 29.36C53.9991 30.8 52.8491 31.92 51.4091 32.72C49.9691 33.52 48.1791 33.92 46.0391 33.92ZM55.0091 11.42C54.0091 12.06 52.9791 12.78 51.9191 13.58C50.8591 14.38 49.8691 15.23 48.9491 16.13C48.0491 17.03 47.3191 17.96 46.7591 18.92C46.1991 19.88 45.9191 20.84 45.9191 21.8C45.9191 22.1 46.1091 22.25 46.4891 22.25C46.7891 22.25 47.1991 22.02 47.7191 21.56C48.2591 21.08 48.8591 20.45 49.5191 19.67C50.1791 18.87 50.8491 18 51.5291 17.06C52.2291 16.1 52.8791 15.13 53.4791 14.15C54.0791 13.17 54.5891 12.26 55.0091 11.42ZM93.4025 27.8C92.9625 27.8 92.5925 27.63 92.2925 27.29C92.0125 26.95 91.8725 26.39 91.8725 25.61C91.8725 25.35 91.9025 25.07 91.9625 24.77C92.0225 24.45 92.1325 24.13 92.2925 23.81C91.2925 21.33 90.4525 18.92 89.7725 16.58C89.0925 14.24 88.5125 11.79 88.0325 9.23C87.3925 10.55 86.7825 11.92 86.2025 13.34C85.6425 14.74 85.1125 16.11 84.6125 17.45C84.1125 18.79 83.6625 20.04 83.2625 21.2C82.8625 22.36 82.5125 23.36 82.2125 24.2C81.8925 25.2 81.5725 25.87 81.2525 26.21C80.9325 26.57 80.6025 26.75 80.2625 26.75C79.8025 26.75 79.4525 26.64 79.2125 26.42C78.9925 26.2 78.8825 25.81 78.8825 25.25C78.8825 24.83 78.9925 24.18 79.2125 23.3C79.4325 22.42 79.7325 21.4 80.1125 20.24C80.5125 19.08 80.9625 17.86 81.4625 16.58C81.9625 15.3 82.4925 14.05 83.0525 12.83C83.6325 11.61 84.2125 10.51 84.7925 9.53C85.3725 8.53 85.9225 7.74 86.4425 7.16C86.9825 6.56 87.4725 6.26 87.9125 6.26C88.3725 6.26 88.7625 6.35 89.0825 6.53C89.4225 6.71 89.7925 7.18 90.1925 7.94C90.4525 8.46 90.7525 9.22 91.0925 10.22C91.4325 11.2 91.7725 12.31 92.1125 13.55C92.4525 14.77 92.7825 16.03 93.1025 17.33C93.4225 18.61 93.7025 19.8 93.9425 20.9C94.7425 17.2 95.4425 13.96 96.0425 11.18C96.6425 8.38 97.1025 6.19 97.4225 4.61C97.7625 3.03 97.9425 2.2 97.9625 2.12C98.0825 1.6 98.2125 1.28 98.3525 1.16C98.4925 1.04 98.6925 0.979998 98.9525 0.979998C99.3125 0.979998 99.6625 1.13 100.003 1.43C100.363 1.71 100.543 2.1 100.543 2.6C100.543 2.84 100.483 3.39 100.363 4.25C100.263 5.11 100.103 6.19 99.8825 7.49C99.6825 8.77 99.4225 10.2 99.1025 11.78C98.7825 13.34 98.4125 14.97 97.9925 16.67C97.5725 18.35 97.1025 20.02 96.5825 21.68C96.0825 23.32 95.5325 24.87 94.9325 26.33C94.7125 26.89 94.4525 27.27 94.1525 27.47C93.8725 27.69 93.6225 27.8 93.4025 27.8ZM142.002 12.08C142.002 12.32 141.652 12.59 140.952 12.89C140.272 13.19 139.352 13.5 138.192 13.82C137.032 14.12 135.732 14.42 134.292 14.72C132.872 15.02 131.412 15.29 129.912 15.53C129.372 17.39 128.842 19.27 128.322 21.17C127.802 23.05 127.352 24.82 126.972 26.48C126.892 26.8 126.732 27.03 126.492 27.17C126.272 27.33 126.022 27.41 125.742 27.41C125.422 27.41 125.152 27.32 124.932 27.14C124.712 26.98 124.602 26.76 124.602 26.48C124.602 25.98 124.702 25.26 124.902 24.32C125.102 23.38 125.362 22.29 125.682 21.05C126.022 19.81 126.372 18.49 126.732 17.09C125.852 18.45 124.882 19.73 123.822 20.93C122.762 22.13 121.652 23.19 120.492 24.11C119.332 25.03 118.142 25.75 116.922 26.27C115.722 26.79 114.512 27.05 113.292 27.05C111.392 27.05 110.002 26.55 109.122 25.55C108.242 24.55 107.802 23.05 107.802 21.05C107.802 19.93 107.932 18.81 108.192 17.69C108.472 16.55 108.842 15.47 109.302 14.45C109.782 13.43 110.312 12.53 110.892 11.75C111.472 10.95 112.072 10.32 112.692 9.86C113.332 9.4 113.942 9.17 114.522 9.17C115.642 9.17 116.472 9.48 117.012 10.1C117.552 10.72 117.822 11.49 117.822 12.41C117.822 13.37 117.602 14.28 117.162 15.14C116.722 16 116.132 16.78 115.392 17.48C114.652 18.18 113.842 18.78 112.962 19.28C112.082 19.76 111.212 20.09 110.352 20.27C110.332 20.45 110.322 20.63 110.322 20.81C110.322 22.23 110.582 23.21 111.102 23.75C111.642 24.27 112.492 24.53 113.652 24.53C114.772 24.53 115.952 24.19 117.192 23.51C118.452 22.83 119.712 21.87 120.972 20.63C122.252 19.39 123.472 17.94 124.632 16.28C123.772 16.38 122.972 16.46 122.232 16.52C121.512 16.56 120.882 16.58 120.342 16.58C119.782 16.58 119.392 16.5 119.172 16.34C118.972 16.18 118.872 15.91 118.872 15.53C118.872 15.37 118.972 15.17 119.172 14.93C119.392 14.69 119.632 14.56 119.892 14.54C121.052 14.44 122.152 14.33 123.192 14.21C124.252 14.09 125.262 13.96 126.222 13.82C126.742 12.94 127.242 12.02 127.722 11.06C128.202 10.08 128.652 9.08 129.072 8.06C129.452 6.72 129.832 5.52 130.212 4.46C130.612 3.4 131.022 2.57 131.442 1.97C131.882 1.35 132.342 1.04 132.822 1.04C133.042 1.04 133.232 1.14 133.392 1.34C133.572 1.54 133.662 1.82 133.662 2.18C133.662 2.44 133.522 3.1 133.242 4.16C132.962 5.2 132.582 6.51 132.102 8.09C131.642 9.65 131.142 11.35 130.602 13.19C133.762 12.69 136.202 12.24 137.922 11.84C139.642 11.44 140.732 11.24 141.192 11.24C141.452 11.24 141.652 11.33 141.792 11.51C141.932 11.67 142.002 11.86 142.002 12.08ZM110.682 18.02C111.462 17.6 112.212 17.06 112.932 16.4C113.652 15.74 114.242 15.05 114.702 14.33C115.182 13.61 115.422 12.94 115.422 12.32C115.422 11.76 115.162 11.48 114.642 11.48C114.222 11.48 113.752 11.8 113.232 12.44C112.732 13.06 112.252 13.87 111.792 14.87C111.332 15.87 110.962 16.92 110.682 18.02ZM15.29 66.56C15.51 66.56 15.72 66.65 15.92 66.83C16.12 67.01 16.22 67.3 16.22 67.7C16.22 68.02 15.98 68.4 15.5 68.84C15.02 69.26 14.4 69.67 13.64 70.07C12.9 70.47 12.1 70.8 11.24 71.06C10.38 71.34 9.57 71.48 8.81 71.48C7.73 71.48 6.71 71.2 5.75 70.64C4.81 70.08 4.04 69.27 3.44 68.21C2.84 67.13 2.54 65.82 2.54 64.28C2.54 62.92 2.79 61.56 3.29 60.2C3.79 58.84 4.45 57.53 5.27 56.27C6.11 55.01 7.03 53.84 8.03 52.76C9.05 51.68 10.07 50.74 11.09 49.94C12.11 49.14 13.06 48.52 13.94 48.08C14.84 47.62 15.58 47.39 16.16 47.39C16.56 47.39 16.88 47.54 17.12 47.84C17.38 48.12 17.51 48.43 17.51 48.77C17.51 48.97 17.45 49.17 17.33 49.37C17.23 49.57 17.05 49.73 16.79 49.85C15.49 50.49 14.17 51.31 12.83 52.31C11.49 53.31 10.25 54.45 9.11 55.73C7.97 56.99 7.05 58.36 6.35 59.84C5.65 61.3 5.3 62.84 5.3 64.46C5.3 65.86 5.63 66.93 6.29 67.67C6.95 68.39 7.85 68.75 8.99 68.75C9.59 68.75 10.21 68.64 10.85 68.42C11.51 68.2 12.13 67.95 12.71 67.67C13.31 67.37 13.83 67.11 14.27 66.89C14.73 66.67 15.07 66.56 15.29 66.56ZM23.6785 71.78C22.9185 71.78 22.2885 71.43 21.7885 70.73C21.3085 70.01 21.0685 69.08 21.0685 67.94C21.0685 66.88 21.3285 65.83 21.8485 64.79C22.3885 63.75 23.0985 62.75 23.9785 61.79C24.8585 60.83 25.8185 59.95 26.8585 59.15C27.8985 58.33 28.9385 57.62 29.9785 57.02C31.0385 56.42 32.0085 55.95 32.8885 55.61C33.7685 55.27 34.4685 55.1 34.9885 55.1C35.2685 55.1 35.4985 55.16 35.6785 55.28C35.8585 55.38 35.9485 55.57 35.9485 55.85C35.9485 56.03 35.8785 56.2 35.7385 56.36C35.7585 56.36 35.7785 56.36 35.7985 56.36C36.2385 56.36 36.4585 56.62 36.4585 57.14C36.4585 57.32 36.3885 57.69 36.2485 58.25C36.1085 58.79 35.9485 59.47 35.7685 60.29C35.5885 61.11 35.4285 62.02 35.2885 63.02C35.1485 64 35.0785 65 35.0785 66.02C35.0785 66.88 35.4085 67.31 36.0685 67.31C36.8085 67.31 37.5585 67.14 38.3185 66.8C39.0785 66.46 39.8185 66.05 40.5385 65.57C41.2585 65.07 41.9185 64.58 42.5185 64.1C43.1185 63.6 43.6285 63.18 44.0485 62.84C44.4685 62.5 44.7685 62.33 44.9485 62.33C45.1085 62.33 45.2485 62.38 45.3685 62.48C45.4885 62.58 45.5485 62.74 45.5485 62.96C45.5485 63.16 45.3485 63.52 44.9485 64.04C44.5485 64.56 44.0185 65.15 43.3585 65.81C42.6985 66.47 41.9585 67.11 41.1385 67.73C40.3185 68.35 39.4785 68.86 38.6185 69.26C37.7585 69.66 36.9385 69.86 36.1585 69.86C35.5585 69.86 35.0085 69.68 34.5085 69.32C34.0285 68.94 33.6385 68.3 33.3385 67.4C33.0585 66.5 32.9185 65.26 32.9185 63.68V62.93C31.9385 64.55 30.9085 66.03 29.8285 67.37C28.7685 68.71 27.7085 69.78 26.6485 70.58C25.6085 71.38 24.6185 71.78 23.6785 71.78ZM34.4185 57.26C34.3185 57.3 34.1785 57.36 33.9985 57.44C33.0785 57.86 32.1185 58.38 31.1185 59C30.1385 59.62 29.1785 60.31 28.2385 61.07C27.3185 61.83 26.4885 62.62 25.7485 63.44C25.0085 64.26 24.4185 65.09 23.9785 65.93C23.5385 66.77 23.3185 67.59 23.3185 68.39C23.3185 68.65 23.3685 68.85 23.4685 68.99C23.5885 69.13 23.7885 69.2 24.0685 69.2C24.4685 69.2 24.9885 68.95 25.6285 68.45C26.2685 67.93 26.9685 67.25 27.7285 66.41C28.5085 65.57 29.2885 64.64 30.0685 63.62C30.8485 62.6 31.5885 61.57 32.2885 60.53C33.0085 59.49 33.6285 58.53 34.1485 57.65C34.2285 57.51 34.3185 57.38 34.4185 57.26ZM44.9312 71.57C44.6112 71.57 44.3412 71.44 44.1212 71.18C43.9012 70.92 43.7912 70.56 43.7912 70.1C43.7912 69.76 43.8612 69.2 44.0012 68.42C44.1612 67.62 44.3312 66.69 44.5112 65.63C44.7112 64.57 44.8812 63.47 45.0212 62.33C45.1612 61.17 45.2312 60.06 45.2312 59C45.2312 58.48 45.3612 58.1 45.6212 57.86C45.9012 57.6 46.2112 57.47 46.5512 57.47C46.8712 57.47 47.1112 57.67 47.2712 58.07C47.4312 58.47 47.4612 59.27 47.3612 60.47C48.2812 58.43 49.2912 56.79 50.3912 55.55C51.5112 54.29 52.6212 53.39 53.7212 52.85C54.8212 52.29 55.8112 52.01 56.6912 52.01C57.2712 52.01 57.6912 52.13 57.9512 52.37C58.2312 52.59 58.3712 52.84 58.3712 53.12C58.3712 53.5 58.2112 53.8 57.8912 54.02C57.5912 54.22 57.0612 54.46 56.3012 54.74C55.4212 55.08 54.6112 55.48 53.8712 55.94C53.1512 56.38 52.4612 56.96 51.8012 57.68C51.1612 58.4 50.5312 59.32 49.9112 60.44C49.2912 61.54 48.6712 62.9 48.0512 64.52C47.4312 66.14 46.7712 68.09 46.0712 70.37C45.9512 70.81 45.7912 71.12 45.5912 71.3C45.4112 71.48 45.1912 71.57 44.9312 71.57ZM60.392 71.03C59.532 71.03 58.922 70.86 58.562 70.52C58.202 70.18 58.022 69.68 58.022 69.02C58.022 65.7 58.622 62.23 59.822 58.61C61.022 54.97 62.702 51.32 64.862 47.66C65.142 47.2 65.362 46.91 65.522 46.79C65.702 46.67 65.912 46.61 66.152 46.61C66.432 46.61 66.682 46.71 66.902 46.91C67.122 47.11 67.232 47.38 67.232 47.72C67.232 47.9 67.052 48.39 66.692 49.19C66.332 49.97 65.872 50.98 65.312 52.22C64.752 53.46 64.152 54.85 63.512 56.39C62.892 57.91 62.302 59.5 61.742 61.16C61.182 62.82 60.732 64.47 60.392 66.11C60.852 65.43 61.402 64.7 62.042 63.92C62.702 63.14 63.402 62.36 64.142 61.58C64.882 60.8 65.632 60.09 66.392 59.45C67.172 58.81 67.922 58.3 68.642 57.92C69.362 57.54 70.022 57.35 70.622 57.35C71.402 57.35 72.082 57.68 72.662 58.34C73.262 58.98 73.562 59.95 73.562 61.25C73.562 62.35 73.262 63.48 72.662 64.64C72.062 65.78 71.182 66.84 70.022 67.82C68.882 68.78 67.502 69.56 65.882 70.16C64.262 70.74 62.432 71.03 60.392 71.03ZM60.512 68.75C62.172 68.75 63.682 68.47 65.042 67.91C66.402 67.35 67.562 66.64 68.522 65.78C69.502 64.9 70.252 63.99 70.772 63.05C71.312 62.09 71.582 61.22 71.582 60.44C71.582 59.88 71.392 59.6 71.012 59.6C70.552 59.6 69.962 59.82 69.242 60.26C68.522 60.7 67.742 61.28 66.902 62C66.082 62.72 65.262 63.5 64.442 64.34C63.622 65.16 62.862 65.96 62.162 66.74C61.482 67.52 60.932 68.19 60.512 68.75ZM80.2897 71.66C79.8497 71.66 79.5097 71.53 79.2697 71.27C79.0497 71.03 78.9397 70.75 78.9397 70.43C78.9397 70.15 79.0597 69.89 79.2997 69.65C79.5597 69.39 79.9097 69.16 80.3497 68.96C81.1497 68.54 81.8997 68.12 82.5997 67.7C83.3197 67.28 83.8997 66.83 84.3397 66.35C84.7797 65.87 84.9997 65.36 84.9997 64.82C84.9997 64.36 84.8497 64.01 84.5497 63.77C84.2497 63.51 83.8397 63.38 83.3197 63.38C83.0197 63.38 82.5997 63.44 82.0597 63.56C81.5197 63.66 80.9297 63.78 80.2897 63.92C79.6697 64.04 79.0597 64.16 78.4597 64.28C77.8597 64.38 77.3497 64.43 76.9297 64.43C76.1697 64.43 75.5997 64.25 75.2197 63.89C74.8397 63.51 74.6497 63 74.6497 62.36C74.6497 62.04 74.8397 61.56 75.2197 60.92C75.5997 60.28 76.0997 59.57 76.7197 58.79C77.3597 57.99 78.0597 57.19 78.8197 56.39C79.5797 55.59 80.3497 54.85 81.1297 54.17C81.9297 53.49 82.6697 52.94 83.3497 52.52C84.0497 52.1 84.6297 51.89 85.0897 51.89C85.5497 51.89 85.8997 52.04 86.1397 52.34C86.3797 52.64 86.4997 53.02 86.4997 53.48C86.4997 53.84 86.4397 54.15 86.3197 54.41C86.1997 54.65 85.9497 54.84 85.5697 54.98C85.2097 55.12 84.6497 55.2 83.8897 55.22C83.1097 55.84 82.2797 56.55 81.3997 57.35C80.5397 58.13 79.7497 58.94 79.0297 59.78C78.3297 60.6 77.8197 61.39 77.4997 62.15C78.1597 61.93 78.9597 61.74 79.8997 61.58C80.8597 61.4 81.8297 61.31 82.8097 61.31C84.3497 61.31 85.4897 61.66 86.2297 62.36C86.9897 63.04 87.3697 63.94 87.3697 65.06C87.3697 65.78 87.1397 66.53 86.6797 67.31C86.2397 68.07 85.6597 68.78 84.9397 69.44C84.2197 70.1 83.4497 70.63 82.6297 71.03C81.8097 71.45 81.0297 71.66 80.2897 71.66Z" fill="white"/>
</svg>
