<svg width="39" height="37" viewBox="0 0 39 37" fill="none" xmlns="http://www.w3.org/2000/svg">
<path d="M19.8316 19.3046C20.1788 19.0157 20.4733 18.818 20.7324 18.5422C23.3569 15.7738 25.2747 12.0538 26.9198 7.98877C27.1114 7.51115 27.2547 6.94465 27.2798 6.35617C27.2939 6.0391 27.0881 5.47926 26.8714 5.19082C26.7068 4.97516 26.3223 4.90374 26.1564 5.01595C25.8369 5.22162 25.545 5.53758 25.3219 5.92101C23.8451 8.44409 22.3812 10.978 20.9346 13.5361C20.3959 14.4961 19.879 15.4938 19.3576 16.478C19.1795 16.8025 19.0188 17.1513 18.8793 17.5082C18.7153 17.9026 18.7141 18.4239 19.0472 18.8392C19.2677 19.1115 19.4638 19.4213 19.8316 19.3046Z" fill="white"/>
<path d="M1.07451 3.37646C1.35746 4.0011 1.6597 4.73871 2.00309 5.43348C3.36316 8.17217 4.72322 10.9109 6.0955 13.6308C6.39452 14.2206 6.7559 14.7757 7.12436 15.269C7.61435 15.9321 8.04258 16.0789 8.3782 15.8384C8.71382 15.5978 8.7858 15.0391 8.51056 14.1887C8.32535 13.6075 8.10991 12.9912 7.84176 12.466C6.06243 9.02688 4.26639 5.59305 2.46649 2.17532C2.26457 1.79288 2.008 1.4129 1.73729 1.1565C1.06663 0.506112 0.504048 0.952681 0.678356 1.99884C0.750394 2.40764 0.924024 2.84372 1.07451 3.37646Z" fill="white"/>
<path d="M36.1332 34.0714C36.508 33.8928 36.8558 33.6335 37.1863 33.3499C37.4795 33.0931 37.5958 32.6394 37.4267 32.0232C37.2807 31.504 36.7785 31.0531 36.3336 31.1051C35.7375 31.1753 35.1377 31.2615 34.5911 31.4797C32.9432 32.137 31.3049 32.8507 29.6795 33.5752C29.142 33.8203 28.6225 34.1192 28.112 34.445C27.9378 34.5599 27.7732 34.7313 27.6812 34.954C27.4125 35.5603 27.734 36.4108 28.3063 36.6012C28.6284 36.7073 28.9731 36.6872 29.2573 36.597C30.2159 36.367 34.8041 34.6869 36.1332 34.0714Z" fill="white"/>
</svg>
