<svg width="109" height="27" viewBox="0 0 109 27" fill="none" xmlns="http://www.w3.org/2000/svg">
<path fill-rule="evenodd" clip-rule="evenodd" d="M61.1859 0.0835576C61.4287 0.125797 61.6918 0.1989 61.7706 0.246102C61.8494 0.293304 61.949 0.276481 61.9922 0.208824C62.0927 0.0514839 62.5555 0.0477316 62.5555 0.204346C62.5555 0.276238 62.6785 0.268372 62.8689 0.184377C63.114 0.0760537 63.2542 0.083194 63.5137 0.217296C63.763 0.345953 63.8578 0.352368 63.8956 0.24344C63.934 0.132817 64.0203 0.131123 64.2588 0.236541C64.4725 0.330824 64.5985 0.334939 64.6565 0.249249C64.7031 0.180261 64.9772 0.115752 65.2657 0.105948C65.6781 0.0919085 65.8316 0.145283 65.9838 0.355999C66.0902 0.503293 66.1774 0.566956 66.1774 0.497605C66.1774 0.358419 67.6224 0.281443 67.8356 0.409131C67.9079 0.45246 68.3292 0.475093 68.7718 0.459601C69.455 0.435636 69.6211 0.471946 69.8716 0.699968C70.1008 0.908626 70.2052 0.937674 70.3391 0.829956C70.5873 0.630255 71.5804 0.692464 71.7529 0.91855C71.8687 1.07044 71.9309 1.07698 72.0843 0.95377C72.2189 0.845327 72.2863 0.840849 72.3197 0.938037C72.3494 1.02421 72.7543 1.07492 73.4247 1.0765C74.0066 1.07783 74.7919 1.16449 75.1697 1.26918C75.5475 1.37387 76.0421 1.44552 76.2688 1.42858C76.4955 1.41151 76.751 1.45399 76.8366 1.52274C76.9221 1.5916 77.102 1.64982 77.2362 1.65212C77.7465 1.66096 78.4882 1.81987 78.7287 1.97188C78.8663 2.05891 79.2094 2.1268 79.4909 2.12269C79.7726 2.1187 80.1098 2.17074 80.2403 2.2384C80.3709 2.30617 80.7446 2.40033 81.071 2.44778C81.3973 2.49522 81.6642 2.58224 81.6642 2.64131C81.6642 2.70025 81.7641 2.74854 81.8861 2.74854C82.0083 2.74854 82.2286 2.83024 82.3756 2.93009C82.5227 3.02994 82.7315 3.07871 82.8397 3.03841C82.9478 2.99823 83.2595 3.07799 83.5321 3.21572C83.8418 3.37221 84.0573 3.42014 84.1061 3.34353C84.1537 3.26897 84.2411 3.26377 84.3293 3.33046C84.4091 3.39073 84.9435 3.61149 85.517 3.82112C86.0905 4.03062 86.6983 4.30778 86.8676 4.4368C87.0369 4.56594 87.2562 4.64147 87.3548 4.60479C87.4776 4.55917 87.5342 4.62319 87.5342 4.80788C87.5342 5.00976 87.5735 5.04632 87.6903 4.95276C87.799 4.86574 87.998 4.87905 88.346 4.99669C88.6208 5.08952 88.8597 5.16638 88.8768 5.16735C88.8939 5.16831 88.9089 5.29177 88.9099 5.44148C88.9113 5.63816 88.9414 5.66866 89.018 5.55138C89.1067 5.41582 89.1685 5.4157 89.3908 5.55017C89.5375 5.63888 89.6574 5.74588 89.6574 5.78799C89.6574 5.82999 89.8962 5.90043 90.1882 5.94449C90.9605 6.06092 91.7806 6.38686 91.7806 6.57748C91.7806 6.66825 91.862 6.74257 91.9614 6.74257C92.0609 6.74257 92.2929 6.87776 92.4767 7.04284C92.6607 7.20805 92.8588 7.31468 92.917 7.27982C92.9752 7.24497 93.1212 7.32763 93.2413 7.46355C93.3613 7.59959 93.5876 7.71081 93.7441 7.71081C93.9159 7.71081 94.0286 7.78404 94.0286 7.89539C94.0286 7.99681 94.1691 8.13164 94.3409 8.19494C94.5126 8.25824 94.654 8.40662 94.655 8.52475C94.6565 8.68379 94.6836 8.69879 94.7596 8.5826C94.8416 8.45758 94.9422 8.4698 95.2565 8.64312C95.4733 8.76282 95.651 8.92875 95.6515 9.0119C95.6519 9.09517 95.7647 9.16319 95.902 9.16319C96.0394 9.16319 96.1518 9.20676 96.1518 9.26013C96.1518 9.31339 96.4047 9.47605 96.7138 9.62165C97.023 9.76713 97.2759 9.94142 97.2759 10.0088C97.2759 10.0762 97.3602 10.1314 97.4632 10.1314C97.5672 10.1314 97.6505 10.239 97.6505 10.3735C97.6505 10.508 97.7338 10.6156 97.8379 10.6156C97.9409 10.6156 98.0252 10.67 98.0252 10.7366C98.0252 10.8032 98.0954 10.8577 98.1813 10.8579C98.4145 10.8583 99.2493 11.5821 99.0244 11.5889C98.9213 11.5919 99.0337 11.6631 99.2742 11.747C99.5146 11.8307 99.874 12.0463 100.073 12.2258C100.272 12.4052 100.483 12.5521 100.541 12.5521C100.6 12.5521 100.648 12.6323 100.648 12.7305C100.648 12.8286 100.805 12.9874 100.996 13.0834C101.188 13.1794 101.564 13.5076 101.832 13.8127C102.101 14.1178 102.381 14.3675 102.455 14.3675C102.626 14.3675 103.27 15.0708 103.271 15.2575C103.272 15.3338 103.439 15.4879 103.642 15.6C103.845 15.7119 104.047 15.9435 104.092 16.1144C104.136 16.2853 104.233 16.4251 104.308 16.4251C104.527 16.4251 105.144 17.0572 105.144 17.282C105.144 17.3955 105.228 17.5198 105.331 17.5581C105.435 17.5964 105.519 17.7184 105.519 17.8291C105.519 17.94 105.617 18.1192 105.737 18.2276C106.036 18.4966 106.268 18.9173 106.268 19.1886C106.268 19.3125 106.377 19.5354 106.51 19.6842C106.643 19.8329 106.724 20.0265 106.689 20.1142C106.65 20.2113 106.709 20.2668 106.839 20.2557C107.167 20.2278 107.184 20.4824 106.865 20.6449C106.708 20.7246 106.67 20.7655 106.781 20.7361C106.953 20.6898 107.392 21.0298 107.392 21.2095C107.392 21.2434 107.54 21.4978 107.72 21.7747C107.992 22.1923 108.023 22.3178 107.901 22.5081C107.794 22.6727 107.791 22.782 107.887 22.8944C108.031 23.0623 107.938 23.4449 107.754 23.4449C107.692 23.4449 107.642 23.4942 107.642 23.5545C107.642 23.6149 107.754 23.6357 107.892 23.601C108.059 23.5585 108.142 23.5972 108.142 23.7185C108.142 23.818 108.225 23.9665 108.327 24.0486C108.49 24.1792 108.482 24.2358 108.265 24.5033C107.994 24.8366 107.934 25.2603 108.157 25.2603C108.258 25.2603 108.259 25.3044 108.162 25.4179C108.088 25.5046 108.059 25.6932 108.098 25.8372C108.192 26.1852 107.853 26.5134 107.508 26.4075C107.353 26.3595 107.276 26.2598 107.317 26.1572C107.354 26.0622 107.31 25.9865 107.215 25.9865C107.033 25.9865 106.901 26.3168 106.986 26.5614C107.015 26.6447 107.118 26.7127 107.215 26.7127C107.44 26.7127 107.446 26.9089 107.223 26.9917C107.13 27.0263 106.962 26.9498 106.849 26.8217C106.624 26.5677 106.573 26.2286 106.76 26.2286C106.902 26.2286 106.884 25.7125 106.74 25.6146C106.683 25.5763 106.611 25.4157 106.58 25.2575C106.548 25.0993 106.437 24.9236 106.333 24.8671C106.229 24.8105 106.143 24.6138 106.143 24.4301C106.143 24.2179 105.998 23.9523 105.746 23.7027C105.463 23.422 105.347 23.19 105.341 22.8933C105.334 22.5813 105.277 22.4772 105.113 22.477C104.914 22.4766 104.844 22.3581 104.926 22.1577C104.943 22.1153 104.837 22.0379 104.691 21.9856C104.488 21.9126 104.44 21.8172 104.487 21.5783C104.533 21.347 104.497 21.2663 104.347 21.2663C104.236 21.2663 104.145 21.2118 104.145 21.1453C104.145 21.0787 104.061 21.0242 103.958 21.0242C103.855 21.0242 103.77 20.9659 103.77 20.8946C103.77 20.8232 103.682 20.6797 103.575 20.5756C103.437 20.4417 103.418 20.3485 103.513 20.2574C103.713 20.0629 103.672 19.9199 103.427 19.9599C103.3 19.9806 103.208 19.9197 103.208 19.8139C103.208 19.7141 103.096 19.6003 102.959 19.5611C102.821 19.522 102.723 19.4266 102.74 19.3493C102.757 19.2721 102.697 19.2088 102.606 19.2088C102.515 19.2088 102.313 19.0776 102.157 18.9172C101.894 18.6451 101.89 18.6216 102.104 18.5682C102.264 18.5282 102.232 18.5064 102.001 18.4966C101.768 18.4868 101.543 18.329 101.252 17.9704C100.627 17.2013 100.411 17.0181 100.175 17.0561C100.034 17.0789 99.9475 16.9977 99.9211 16.8184C99.8971 16.6542 99.7943 16.5461 99.6621 16.5461C99.5361 16.5461 99.3383 16.3534 99.1963 16.0922C99.0607 15.8427 98.8962 15.631 98.8309 15.622C98.4093 15.5643 98.113 15.3818 97.9955 15.1074C97.9209 14.9335 97.8691 14.7502 97.8802 14.7004C97.8912 14.6505 97.8301 14.6012 97.7442 14.5912C97.6584 14.581 97.5319 14.5601 97.4632 14.5446C97.3945 14.5291 97.2334 14.5102 97.1051 14.5025C96.936 14.4924 96.8899 14.4221 96.9374 14.2465C96.9894 14.0539 96.9411 14.0044 96.7021 14.0044C96.5369 14.0044 96.4016 13.9426 96.4016 13.8671C96.4016 13.6891 95.8618 13.2059 95.4108 12.9799C95.2169 12.8826 95.0249 12.7193 94.9844 12.6171C94.9439 12.5148 94.7999 12.431 94.6643 12.431C94.529 12.431 94.3913 12.3892 94.3587 12.3381C94.3261 12.2869 94.5336 12.2598 94.8197 12.2778C95.2844 12.307 95.3098 12.2955 95.0569 12.1698C94.8618 12.0729 94.7965 11.96 94.8468 11.8065C94.936 11.5341 94.8071 11.5208 94.52 11.7726C94.3231 11.9452 94.2769 11.9344 93.9793 11.646C93.8003 11.4726 93.654 11.3877 93.654 11.4573C93.654 11.6227 93.3131 11.6217 93.2562 11.4562C93.2321 11.386 93.1009 11.3125 92.9648 11.2929C92.8101 11.2705 92.7173 11.1636 92.7173 11.0077C92.7173 10.6612 92.5706 10.5532 92.3456 10.7342C92.2189 10.836 92.1552 10.8425 92.1552 10.7537C92.1552 10.6803 92.0147 10.586 91.843 10.5443C91.6713 10.5025 91.5308 10.3925 91.5308 10.2999C91.5308 10.1926 91.3916 10.1314 91.1473 10.1314C90.7753 10.1314 89.8834 9.63339 89.5423 9.2352C89.4527 9.13051 89.333 9.07254 89.2766 9.1063C89.2201 9.14019 88.9736 9.05874 88.7288 8.92548C88.4839 8.79223 88.2835 8.7109 88.2835 8.74478C88.2835 8.87017 87.466 8.39307 87.3071 8.17485C87.2165 8.05055 87.0876 7.98168 87.0206 8.02174C86.9536 8.06193 86.831 8.04171 86.7481 7.97696C86.6653 7.91221 86.3446 7.82095 86.0355 7.77424C85.7264 7.7274 85.2639 7.55783 85.0077 7.39747C84.7517 7.23698 84.4267 7.10566 84.2856 7.10566C84.1446 7.10566 83.8202 7.01561 83.5648 6.90547C83.3094 6.79534 83.0506 6.71606 82.9897 6.72937C82.9287 6.74269 82.7534 6.63933 82.6 6.49978C82.3982 6.31605 82.2323 6.26752 81.9995 6.32416C81.7935 6.37427 81.5755 6.333 81.3934 6.20942C81.2371 6.10328 80.8669 6.01638 80.5709 6.01638C80.2208 6.01638 80.009 5.95623 79.9645 5.84415C79.9271 5.74951 79.8135 5.64118 79.7122 5.60354C79.6098 5.56542 79.5615 5.58757 79.6035 5.65329C79.6462 5.72034 79.595 5.74031 79.4851 5.69952C79.3784 5.65982 79.2867 5.53794 79.2814 5.42853C79.276 5.31912 79.2474 5.28559 79.2179 5.35386C79.1542 5.50115 78.1672 5.43301 78.1672 5.28124C78.1672 5.22375 78.0786 5.20971 77.9702 5.25001C77.8045 5.31162 77.3455 5.20547 76.1689 4.8333C75.9114 4.75185 75.4957 4.70174 74.5598 4.63929C74.1211 4.61012 73.7277 4.53351 73.6855 4.46912C73.6124 4.35789 73.2981 4.32546 71.8601 4.28079C71.5166 4.27014 71.1979 4.21072 71.1518 4.14875C71.1057 4.08678 70.8247 4.02167 70.5273 4.00412C70.23 3.98645 69.9532 3.96914 69.9125 3.96551C69.8716 3.96188 69.6802 3.82729 69.4871 3.66644C69.1931 3.42159 69.1087 3.40054 68.968 3.53682C68.8757 3.62626 68.8002 3.75467 68.8002 3.82209C68.8002 3.99504 67.0507 3.84315 66.7513 3.64429C66.5782 3.52919 66.4473 3.5206 66.2698 3.61258C66.13 3.6852 65.8325 3.70202 65.5711 3.65216C65.3207 3.60447 63.7389 3.54831 62.0559 3.5275C60.373 3.50656 58.869 3.48562 58.7138 3.4809C58.5584 3.47606 58.3055 3.35019 58.1518 3.2012L57.872 2.93009L57.8302 3.21657C57.7928 3.47231 57.7409 3.49555 57.3463 3.43358C57.1033 3.39533 56.7989 3.27164 56.67 3.15859C56.4482 2.9641 56.4357 2.96615 56.4357 3.19805C56.4357 3.39727 56.3481 3.44653 55.9674 3.46153C54.8677 3.50486 54.2646 3.46589 54.11 3.34147C53.9875 3.24283 53.8953 3.25663 53.7525 3.39497C53.514 3.62614 51.1856 3.65773 51.036 3.43176C50.9773 3.34304 50.9436 3.36931 50.9423 3.50499C50.9403 3.73204 50.581 3.77634 50.1288 3.60532C49.967 3.5442 49.835 3.56816 49.7541 3.67322C49.6853 3.76242 49.2918 3.86638 48.8797 3.90427C48.4676 3.94215 47.9622 3.99262 47.7567 4.01646C47.5511 4.04031 47.3485 4.00581 47.3064 3.93985C47.2588 3.86529 47.164 3.88054 47.0556 3.98015C46.8517 4.16775 45.9447 4.25417 45.9447 4.08593C45.9447 4.02288 45.738 4.05495 45.4852 4.15722C45.2326 4.25949 44.8179 4.324 44.5638 4.30052C44.2297 4.26966 44.1185 4.30028 44.1624 4.4109C44.2162 4.54694 43.9637 4.62803 43.6532 4.57442C43.5948 4.56437 43.2014 4.64655 42.7789 4.75705C42.3563 4.86755 41.7296 4.97224 41.3861 4.98967C41.0426 5.0071 40.6492 5.05721 40.5118 5.10126C40.3139 5.16456 40.212 5.09086 40.0206 4.74567C39.8257 4.3942 39.7581 4.34663 39.6704 4.49865C39.6106 4.60225 39.5961 4.74095 39.6382 4.80704C39.6803 4.87312 39.6483 4.9271 39.5673 4.9271C39.456 4.9271 39.4549 4.96825 39.5625 5.09388C39.6754 5.22568 39.646 5.27603 39.4217 5.33425C38.9812 5.44862 38.9282 5.42841 39.0105 5.17715C39.0753 4.97926 39.0281 4.94465 38.7068 4.95349C38.3938 4.96208 38.3262 5.01436 38.3262 5.24807C38.3262 5.66708 37.8937 6.03732 37.5125 5.94461C37.3393 5.90249 36.9889 5.95175 36.7197 6.0562C36.3606 6.19538 36.2012 6.20821 36.096 6.10631C35.9908 6.0044 35.8892 6.03744 35.6988 6.23545C35.5043 6.43781 35.3398 6.48913 35.012 6.44967C34.7629 6.41978 34.5413 6.45778 34.4866 6.53996C34.4347 6.61815 34.1954 6.75068 33.9549 6.83467C33.5863 6.96333 33.4966 6.95921 33.3823 6.80853C33.2792 6.67261 33.2121 6.66365 33.1013 6.77101C33.0212 6.84859 32.9558 6.97676 32.9558 7.05604C32.9558 7.26252 31.9239 7.70367 31.2333 7.79239C30.9099 7.8339 30.5344 7.9415 30.3989 8.03143C30.2635 8.12135 30.0704 8.19494 29.97 8.19494C29.8696 8.19494 29.5309 8.31694 29.2172 8.46605C28.8552 8.63828 28.4147 8.73764 28.0108 8.73837C27.5237 8.73934 27.3773 8.78218 27.3863 8.92113C27.3936 9.03296 27.266 9.11744 27.0546 9.14092C26.8656 9.16198 26.7111 9.22419 26.7111 9.27914C26.7111 9.41578 25.7752 9.76834 25.4125 9.76834C25.2506 9.76834 25.0482 9.85004 24.9626 9.94989C24.7932 10.1479 24.3382 10.1993 24.3382 10.0205C24.3382 9.95945 24.4084 9.88211 24.4943 9.84847C24.5903 9.81095 24.569 9.78371 24.439 9.7779C24.3226 9.7727 24.1271 9.93283 24.0046 10.1339C23.8821 10.3349 23.7103 10.4727 23.6229 10.4402C23.5355 10.4078 23.4639 10.4284 23.4639 10.4863C23.4639 10.5443 23.257 10.5859 23.0041 10.579C22.746 10.5719 22.5221 10.6303 22.494 10.712C22.4665 10.792 22.3712 10.8576 22.2823 10.8576C22.1934 10.8576 22.0507 10.9393 21.9652 11.0392C21.8796 11.139 21.7042 11.2207 21.5753 11.2207C21.4463 11.2207 21.2228 11.335 21.0787 11.4746C20.9098 11.6383 20.7116 11.7091 20.5211 11.6737C20.3584 11.6436 20.1996 11.6792 20.1681 11.7526C20.1298 11.8422 20.0714 11.8319 19.9915 11.7214C19.8908 11.5821 19.8601 11.5821 19.7947 11.7214C19.7351 11.8481 19.7004 11.8517 19.6447 11.7362C19.589 11.6207 19.5303 11.6267 19.3913 11.7612C19.2917 11.8577 19.1136 11.9066 18.9954 11.8698C18.8306 11.8186 18.82 11.8305 18.9499 11.9204C19.0925 12.0192 19.0925 12.0544 18.9499 12.1436C18.8567 12.2018 18.6961 12.255 18.5931 12.2618C18.49 12.2686 18.3073 12.2823 18.1872 12.2921C18.067 12.3019 17.9686 12.3917 17.9686 12.4915C17.9686 12.6179 17.8375 12.6731 17.5377 12.6731C17.2768 12.6731 17.0636 12.7478 16.9976 12.8623C16.9375 12.9662 16.7999 13.064 16.6917 13.0794C16.5835 13.0948 16.4078 13.1775 16.3012 13.2632C16.1945 13.349 16 13.3863 15.869 13.346C15.7284 13.3028 15.5663 13.3483 15.4731 13.457C15.3863 13.5584 15.2238 13.6417 15.112 13.6422C15.0001 13.6425 14.7401 13.7511 14.534 13.8834C14.328 14.0157 14.0609 14.1243 13.9408 14.1246C13.8206 14.1251 13.7222 14.1683 13.7222 14.2206C13.7222 14.3155 13.4301 14.3646 12.8582 14.3661C12.6921 14.3666 12.4568 14.4541 12.3353 14.5606C12.2138 14.6672 12.0649 14.7247 12.0043 14.6885C11.9439 14.6522 11.8155 14.7286 11.7191 14.8582C11.6228 14.9877 11.4789 15.0937 11.3995 15.0937C11.3199 15.0937 11.185 15.1754 11.0995 15.2753C10.899 15.5093 10.5999 15.5093 10.5999 15.2753C10.5999 15.1754 10.6561 15.0937 10.7248 15.0937C10.7935 15.0937 10.8497 15.0443 10.8497 14.9841C10.8497 14.9238 10.7134 14.9367 10.5468 15.0129C10.3225 15.1155 10.2779 15.191 10.3748 15.3041C10.4468 15.3881 10.4565 15.4624 10.3966 15.4693C10.3368 15.4762 10.074 15.4992 9.81271 15.5203C9.29765 15.562 8.97629 15.7526 8.97629 16.0162C8.97629 16.108 8.91809 16.183 8.84703 16.183C8.77584 16.183 8.57076 16.2763 8.39117 16.3903C8.21144 16.5044 7.98026 16.6097 7.87723 16.6244C7.77419 16.639 7.6478 16.7171 7.59634 16.7977C7.54488 16.8784 7.41225 16.9108 7.30172 16.8697C7.17657 16.8231 7.04256 16.885 6.94677 17.0336C6.86222 17.1649 6.70023 17.2723 6.58683 17.2723C6.47105 17.2723 6.34628 17.4049 6.3022 17.5748C6.25911 17.7413 6.13659 17.8774 6.03005 17.8774C5.8577 17.8774 5.85696 17.8976 6.02344 18.059C6.12647 18.1588 6.27098 18.2405 6.34467 18.2405C6.41823 18.2405 6.47842 18.2964 6.47842 18.3647C6.47842 18.4353 6.6404 18.4075 6.85423 18.3004C7.12424 18.1651 7.29535 18.146 7.46233 18.2325C7.58997 18.2989 7.7331 18.3157 7.78018 18.2701C7.82727 18.2244 7.91594 18.2656 7.97726 18.3617C8.07393 18.5132 8.09792 18.5127 8.15887 18.3582C8.21769 18.2088 8.5168 18.1898 10.0078 18.2405C10.9859 18.2738 11.8629 18.3488 11.9565 18.4073C12.0659 18.4757 12.1654 18.4541 12.2355 18.3468C12.3224 18.2139 12.3449 18.2124 12.3465 18.3399C12.3475 18.4279 12.4215 18.5707 12.5108 18.6572C12.6439 18.7862 12.7215 18.7766 12.9423 18.6032C13.1588 18.4333 13.3163 18.4117 13.7478 18.4926C14.0428 18.5478 14.3263 18.5954 14.3779 18.5983C14.4295 18.6012 14.4716 18.6853 14.4716 18.7852C14.4716 18.885 14.5295 18.9667 14.6004 18.9667C14.6713 18.9667 14.7616 18.885 14.8011 18.7852C14.8865 18.5696 15.1155 18.5499 15.3129 18.7411C15.4781 18.9012 15.2097 19.2344 14.9427 19.2004C14.5729 19.1532 14.455 19.2241 14.4765 19.4811C14.5293 20.1134 14.477 20.2925 14.2625 20.2127C14.1042 20.1538 14.0729 20.184 14.1338 20.3375C14.1816 20.4584 14.1526 20.5408 14.0618 20.5418C13.978 20.5427 13.7831 20.5763 13.6286 20.6164C13.422 20.6701 13.3476 20.6375 13.3476 20.4938C13.3476 20.2707 13.1837 20.245 12.8536 20.4162C12.6733 20.5096 12.6123 20.4844 12.5612 20.2951C12.5258 20.1636 12.4315 20.056 12.3517 20.056C12.2637 20.056 12.2378 20.1509 12.2857 20.2973C12.3479 20.4873 12.3206 20.5222 12.1566 20.4612C12.0422 20.4186 11.9054 20.4515 11.8526 20.5342C11.7999 20.6168 11.5527 20.6938 11.3032 20.7052C10.9449 20.7215 10.8497 20.681 10.8497 20.5119C10.8497 20.22 10.5197 20.2404 10.4395 20.5374C10.3811 20.7542 10.2897 20.772 9.46662 20.7267C8.84927 20.6927 8.45161 20.7301 8.22568 20.8433C7.94317 20.9849 7.84301 20.9848 7.56038 20.8427C7.37753 20.7507 7.22778 20.7173 7.22778 20.7684C7.22778 20.8195 7.05917 20.8372 6.8531 20.808C6.64703 20.7787 6.47842 20.685 6.47842 20.5998C6.47842 20.3681 6.13547 20.2856 6.05167 20.4971C5.949 20.7563 5.96049 20.8075 6.10237 20.7225C6.17443 20.6793 6.19317 20.7309 6.14733 20.8466C6.08451 21.0052 6.04767 21.0125 5.96149 20.8831C5.87344 20.7509 5.83135 20.7546 5.72906 20.9032C5.62553 21.0538 5.58556 21.0567 5.49489 20.9205C5.4212 20.8099 5.35863 20.7988 5.30267 20.8864C5.25697 20.9579 5.03928 21.0118 4.81872 21.0058C4.59815 21 4.36148 21.0083 4.29279 21.0241C4.03351 21.0839 3.95483 21.0185 4.09246 20.8578C4.20674 20.7243 4.17477 20.6914 3.93098 20.6914C3.73864 20.6914 3.60438 20.7748 3.56566 20.9183C3.48135 21.2306 3.26017 21.2036 3.19448 20.8729L3.14027 20.6006L3.12328 20.8729C3.10018 21.2431 2.48183 21.2722 2.48183 20.9032C2.48183 20.7701 2.43088 20.6611 2.36868 20.6611C2.30636 20.6611 2.28214 20.7603 2.31486 20.8814C2.38692 21.1483 2.07843 21.4227 1.76969 21.3664C1.64617 21.3439 1.48994 21.2037 1.42237 21.055C1.3548 20.9062 1.2424 20.7904 1.17258 20.7977C0.85186 20.8309 0.759308 20.7565 0.687241 20.4076C0.625923 20.1106 0.667885 19.9876 0.890198 19.8131C1.14185 19.6154 1.15534 19.5541 1.02221 19.2117C0.890694 18.8735 0.904686 18.8007 1.14536 18.5674C1.2946 18.4228 1.40101 18.1948 1.38165 18.0607C1.35555 17.8788 1.37579 17.8587 1.46146 17.9811C1.54164 18.0958 1.60209 18.105 1.66179 18.0114C1.70875 17.9377 1.85026 17.8774 1.97627 17.8774C2.23955 17.8774 2.35694 17.6482 2.35694 17.1342C2.35694 16.936 2.40316 16.8015 2.45961 16.8353C2.57439 16.9041 2.98141 16.4886 2.98141 16.3027C2.98141 16.2369 3.05798 16.183 3.15139 16.183C3.26492 16.183 3.30189 16.0835 3.26242 15.8839C3.21721 15.6548 3.30051 15.5061 3.61799 15.2485C4.39732 14.6161 4.7424 14.2429 4.66297 14.1183C4.55544 13.9498 4.94073 13.3993 5.16605 13.3993C5.2752 13.3993 5.31816 13.3275 5.2747 13.2177C5.22687 13.0971 5.28057 13.0349 5.43469 13.0323C5.80212 13.0263 6.10374 12.7351 6.10374 12.3864C6.10374 12.0954 6.12697 12.0799 6.35528 12.2181C6.57634 12.3519 6.64516 12.3263 6.92367 12.0073C7.09789 11.8077 7.32271 11.4673 7.42312 11.251C7.62807 10.8097 7.78206 10.7575 7.96153 11.0685C8.13763 11.3733 8.28675 11.1569 8.27214 10.6176C8.2624 10.2599 8.30112 10.1667 8.438 10.2175C8.54928 10.2589 8.6427 10.1867 8.68604 10.0261C8.72438 9.88429 8.82816 9.76834 8.91672 9.76834C9.02087 9.76834 9.05347 9.86456 9.00889 10.0407L8.94007 10.313L9.20422 10.0263C9.56441 9.63545 9.66582 9.28035 9.458 9.13753C9.33385 9.05232 9.36121 9.03647 9.56017 9.07847C9.755 9.11962 9.81307 9.08827 9.76537 8.96796C9.72877 8.87562 9.76549 8.8001 9.84692 8.8001C9.92835 8.8001 10.2137 8.57946 10.4811 8.3098C10.7484 8.04014 11.039 7.82882 11.1269 7.84008C11.7086 7.91451 11.8488 7.83294 11.8488 7.41961C11.8488 7.07298 11.8869 7.01694 12.088 7.0679C12.251 7.10917 12.3956 7.02723 12.5421 6.81071C12.6603 6.63594 12.7258 6.46286 12.688 6.42607C12.6011 6.34183 12.9871 5.96301 13.3693 5.75749C13.6578 5.60245 13.7324 5.57643 13.972 5.54738C14.0407 5.53903 14.0969 5.42333 14.0969 5.29019C14.0969 5.15246 14.1802 5.04813 14.2901 5.04813C14.3963 5.04813 14.579 4.8851 14.696 4.68576C14.9556 4.24364 15.1678 4.22113 15.2723 4.62452C15.3154 4.79094 15.4376 4.9271 15.5439 4.9271C15.6803 4.9271 15.714 4.85593 15.6583 4.68576C15.5994 4.50591 15.626 4.46186 15.7625 4.51257C16.061 4.62367 16.1048 5.04026 15.8352 5.20353C15.7034 5.28317 15.5956 5.42611 15.5956 5.521C15.5956 5.61601 15.5593 5.65837 15.5148 5.61528C15.4249 5.52826 14.7304 6.36592 14.7249 6.56804C14.7214 6.69827 13.8826 7.10566 13.6178 7.10566C13.5379 7.10566 13.4725 7.01731 13.4725 6.90935C13.4725 6.7485 13.4386 6.74015 13.2851 6.8636C13.1821 6.9465 13.0969 7.10288 13.0959 7.2112C13.0943 7.37967 13.0772 7.38246 12.9777 7.2302C12.9138 7.13229 12.818 7.0944 12.7647 7.14596C12.6445 7.26252 12.9809 7.47819 13.137 7.38476C13.2423 7.3217 13.4662 7.55142 13.4706 7.72691C13.4716 7.76915 13.3603 7.83197 13.2233 7.8667C13.0863 7.90144 12.9344 8.03034 12.8859 8.15318C12.7488 8.5003 12.3133 8.80639 12.0221 8.76052C11.8182 8.72845 11.7718 8.76947 11.818 8.9411C11.851 9.06322 11.9289 9.16319 11.9912 9.16319C12.0534 9.16319 12.0101 9.30262 11.8949 9.47303C11.7653 9.66474 11.6533 9.7324 11.601 9.65046C11.4463 9.40791 11.1145 9.66087 11.0754 10.051C11.0406 10.3984 10.9934 10.4375 10.5683 10.4717C10.1354 10.5063 10.1103 10.5285 10.2395 10.7623C10.3599 10.9803 10.3491 11.0042 10.1623 10.9347C9.99654 10.8731 9.95921 10.9053 10.0039 11.0712C10.0762 11.3388 9.77872 11.6294 9.52794 11.5361C9.40742 11.4913 9.30051 11.5757 9.22121 11.7778C9.06834 12.1674 9.18199 12.3751 9.43615 12.1707C9.53944 12.0877 9.80134 12.0119 10.0183 12.0023C10.658 11.9741 10.7248 11.9545 10.7248 11.7948C10.7248 11.6488 11.5234 11.3417 11.9032 11.3417C12.0038 11.3417 12.1318 11.2627 12.1875 11.1663C12.2464 11.0645 12.539 10.9698 12.8841 10.9411C13.2113 10.9139 13.513 10.8586 13.5546 10.8183C13.5962 10.7781 13.727 10.7953 13.8451 10.8567C14.0266 10.9507 14.0511 10.9218 14.0015 10.6709C13.9662 10.4915 14.0011 10.3735 14.0897 10.3735C14.1705 10.3735 14.2018 10.428 14.1594 10.4945C13.955 10.8149 14.4456 10.5698 15.0164 10.0666C15.1839 9.91879 16.0757 9.65445 16.345 9.67273C16.9608 9.71449 17.3441 9.63364 17.3441 9.46201C17.3441 9.35998 17.4426 9.24283 17.5627 9.20156C17.6829 9.16016 17.8656 9.05801 17.9686 8.97438C18.0716 8.89087 18.3246 8.80481 18.5306 8.78327C18.7367 8.76173 19.0934 8.64578 19.3232 8.5256C19.553 8.40541 19.8481 8.33994 19.9789 8.38012C20.1113 8.4209 20.2167 8.39609 20.2167 8.32408C20.2167 8.25303 20.3572 8.19494 20.5289 8.19494C20.7006 8.19494 20.8412 8.13721 20.8412 8.06677C20.8412 7.99633 20.8977 7.97248 20.9669 8.01388C21.0361 8.05527 21.2556 7.97684 21.4545 7.83947C21.6536 7.7021 21.878 7.58978 21.9532 7.58978C22.0285 7.58978 22.0901 7.53532 22.0901 7.46875C22.0901 7.40219 22.2194 7.34772 22.3773 7.34772C22.5353 7.34772 22.718 7.29919 22.7832 7.23976C22.8486 7.18046 23.3772 6.99262 23.9584 6.82233C24.7959 6.57687 25.0532 6.54287 25.2001 6.65797C25.3477 6.77367 25.365 6.77052 25.2856 6.64247C25.1675 6.45233 25.577 6.03332 25.8082 6.108C25.8923 6.13511 26.1507 6.04397 26.3822 5.90539C26.6137 5.76669 26.9588 5.65329 27.1493 5.65329C27.3396 5.65329 27.5578 5.57256 27.6341 5.47404C27.7103 5.3754 27.8851 5.2747 28.0225 5.25013C28.1599 5.22556 28.3566 5.17485 28.4596 5.13745C29.0916 4.90798 29.4737 4.83245 29.7058 4.89127C29.8722 4.93352 30.0268 4.88268 30.1241 4.75378C30.2093 4.64074 30.4582 4.5444 30.6804 4.53823C30.9014 4.53218 31.0824 4.47517 31.0824 4.41163C31.0824 4.34809 31.1606 4.32509 31.256 4.36067C31.3516 4.39614 31.5525 4.31432 31.7026 4.17876C31.8982 4.0023 32.0761 3.95171 32.3296 4.00085C32.5656 4.0466 32.7051 4.01465 32.7486 3.90475C32.7846 3.8141 33.2252 3.64974 33.7279 3.53948C34.2306 3.42934 34.7699 3.25845 34.9264 3.1598C35.0829 3.06116 35.2587 3.00912 35.3172 3.0441C35.3755 3.07908 35.5965 3.02401 35.8084 2.92162C36.1854 2.73934 36.8988 2.74237 37.3583 2.92815C37.5339 2.99908 37.5769 2.95441 37.5769 2.70098C37.5769 2.50115 37.6455 2.38545 37.7642 2.38545C37.8672 2.38545 37.9515 2.33982 37.9515 2.28402C37.9515 2.22823 38.1547 2.17522 38.4032 2.16614C38.6516 2.15706 38.9286 2.09037 39.0189 2.01775C39.2067 1.86671 39.843 1.75197 40.3773 1.77303C40.5782 1.7809 40.7825 1.7245 40.8315 1.64776C40.8804 1.57091 41.222 1.48401 41.5904 1.4546C42.5665 1.37665 42.7288 1.37944 43.0483 1.47977C43.2752 1.55094 43.3504 1.51935 43.4011 1.33163C43.4671 1.08715 43.4764 1.08533 45.0705 0.994801C45.7155 0.958249 46.0255 0.895192 46.1493 0.77525C46.197 0.728895 46.4965 0.691012 46.8148 0.691012C47.1331 0.691012 47.4468 0.639695 47.5121 0.57688C47.6095 0.483202 48.4017 0.433095 49.4417 0.455002C49.5448 0.457181 49.882 0.400295 50.1911 0.328645C51.0259 0.134995 51.7323 0.0957817 51.9067 0.233273C51.9934 0.301535 52.158 0.312427 52.2814 0.257963C52.576 0.128217 54.937 0.0867045 54.937 0.211245C54.937 0.265225 55.0935 0.233757 55.2847 0.141289C55.4998 0.0373234 55.9407 -0.0150832 56.4402 0.00379764C57.2757 0.0355078 57.6156 0.142378 57.4928 0.334939C57.4539 0.396059 57.5091 0.413731 57.6157 0.374153C57.7224 0.334455 57.8096 0.246708 57.8096 0.179172C57.8096 0.108248 57.8889 0.119988 57.9969 0.206888C58.1492 0.32925 58.1842 0.323925 58.1842 0.177962C58.1842 0.0304248 58.366 0.00597617 59.2029 0.0408331C59.7632 0.0641921 60.2482 0.109216 60.281 0.140805C60.3136 0.172515 60.4312 0.155208 60.5424 0.102559C60.6536 0.0499107 60.9431 0.0413178 61.1859 0.0835576ZM16.8133 3.07775C16.8991 3.10752 16.963 3.30432 16.955 3.51503C16.9452 3.77271 16.9204 3.81894 16.879 3.65627C16.8453 3.52314 16.7595 3.34486 16.6885 3.26002C16.5376 3.07992 16.5917 3.00101 16.8133 3.07775ZM51.3151 3.3537C51.3151 3.42026 51.3747 3.47473 51.4474 3.47473C51.5201 3.47473 51.5449 3.42026 51.5025 3.3537C51.46 3.28713 51.4005 3.23267 51.3702 3.23267C51.3398 3.23267 51.3151 3.28713 51.3151 3.3537ZM16.2201 3.68254C16.2201 3.91952 15.9992 4.20091 15.8131 4.20091C15.7541 4.20091 15.7497 4.13289 15.8036 4.04962C15.8573 3.96648 15.9027 3.82136 15.9046 3.7272C15.9096 3.46468 16.2201 3.42075 16.2201 3.68254ZM73.3302 3.91092C73.3717 3.9511 73.4794 3.95546 73.5695 3.92048C73.6692 3.88188 73.6395 3.85319 73.494 3.84738C73.3624 3.84218 73.2887 3.87074 73.3302 3.91092ZM16.5323 4.07988C16.5748 4.14645 16.5218 4.20091 16.4148 4.20091C16.3078 4.20091 16.2201 4.14645 16.2201 4.07988C16.2201 4.01332 16.2729 3.95885 16.3376 3.95885C16.4023 3.95885 16.4899 4.01332 16.5323 4.07988ZM75.4195 4.45012C75.4195 4.51281 75.4757 4.56401 75.5444 4.56401C75.6131 4.56401 75.6693 4.47904 75.6693 4.37532C75.6693 4.2716 75.6131 4.22028 75.5444 4.26143C75.4757 4.30258 75.4195 4.38742 75.4195 4.45012ZM81.7891 4.49635C81.7891 4.52576 81.8453 4.58337 81.914 4.62452C81.9827 4.66567 82.0389 4.64159 82.0389 4.57115C82.0389 4.50071 81.9827 4.44298 81.914 4.44298C81.8453 4.44298 81.7891 4.46694 81.7891 4.49635ZM82.0811 5.68354C82.1157 5.76681 82.144 5.69867 82.144 5.53226C82.144 5.36584 82.1157 5.29782 82.0811 5.38097C82.0464 5.46424 82.0464 5.6004 82.0811 5.68354ZM83.5376 6.62154C83.5376 6.6881 83.636 6.74172 83.7562 6.74075C83.943 6.73918 83.9475 6.72175 83.7874 6.62154C83.5517 6.47388 83.5376 6.47388 83.5376 6.62154ZM26.8199 7.50155C27.023 7.69835 27.139 7.51414 26.9423 7.30706C26.8493 7.20926 26.7532 7.18324 26.7284 7.2492C26.7034 7.31504 26.7446 7.42857 26.8199 7.50155ZM85.8481 7.34772C85.8057 7.41429 85.8305 7.46875 85.9032 7.46875C85.9759 7.46875 86.0355 7.41429 86.0355 7.34772C86.0355 7.28115 86.0107 7.22669 85.9804 7.22669C85.95 7.22669 85.8906 7.28115 85.8481 7.34772ZM12.3484 8.25546C12.3484 8.35531 12.4046 8.437 12.4733 8.437C12.542 8.437 12.5982 8.35531 12.5982 8.25546C12.5982 8.1556 12.542 8.07391 12.4733 8.07391C12.4046 8.07391 12.3484 8.1556 12.3484 8.25546ZM8.10204 12.6731C8.10204 12.7397 8.12676 12.7941 8.15711 12.7941C8.18746 12.7941 8.24691 12.7397 8.28938 12.6731C8.33184 12.6065 8.30699 12.5521 8.2343 12.5521C8.16161 12.5521 8.10204 12.6065 8.10204 12.6731ZM8.7265 18.7852C8.7265 18.885 8.78271 18.9667 8.85139 18.9667C8.92009 18.9667 8.97629 18.885 8.97629 18.7852C8.97629 18.6853 8.92009 18.6036 8.85139 18.6036C8.78271 18.6036 8.7265 18.6853 8.7265 18.7852ZM103.895 19.0201C103.895 19.0495 103.951 19.1071 104.02 19.1483C104.089 19.1894 104.145 19.1653 104.145 19.0949C104.145 19.0244 104.089 18.9667 104.02 18.9667C103.951 18.9667 103.895 18.9907 103.895 19.0201ZM7.97714 19.1483C7.97714 19.2481 8.03335 19.3298 8.10204 19.3298C8.17073 19.3298 8.22693 19.4206 8.22693 19.5316C8.22693 19.6424 8.26177 19.6994 8.30436 19.6582C8.41676 19.5492 8.24429 18.9667 8.09966 18.9667C8.03223 18.9667 7.97714 19.0484 7.97714 19.1483ZM12.4684 19.69C12.7195 19.8403 12.8785 19.7152 12.6906 19.5151C12.5913 19.4092 12.4913 19.3916 12.4119 19.466C12.3306 19.5421 12.35 19.6191 12.4684 19.69ZM11.3624 19.496C11.2121 19.6713 11.2981 20.056 11.4875 20.056C11.5488 20.056 11.5991 19.9743 11.5991 19.8744C11.5991 19.7746 11.6902 19.6929 11.8016 19.6929C11.9676 19.6929 11.9762 19.6601 11.8488 19.5113C11.6561 19.2863 11.545 19.2828 11.3624 19.496ZM3.21571 19.6042C3.3391 19.7228 3.35334 19.7089 3.28564 19.5364C3.23869 19.4171 3.16888 19.3499 3.13041 19.3872C3.09194 19.4243 3.13028 19.522 3.21571 19.6042ZM13.726 19.7837C13.7292 20.0692 13.748 20.0862 13.8577 19.9037C13.9281 19.7867 13.951 19.637 13.909 19.5709C13.7798 19.3684 13.7221 19.4356 13.726 19.7837ZM9.72565 20.0631C9.72565 20.2001 9.78185 20.2787 9.85054 20.2375C9.91924 20.1964 9.97543 20.0843 9.97543 19.9883C9.97543 19.8924 9.91924 19.8139 9.85054 19.8139C9.78185 19.8139 9.72565 19.9261 9.72565 20.0631ZM6.8531 20.2375C6.8531 20.3374 6.93565 20.4191 7.03657 20.4191C7.14822 20.4191 7.19181 20.3482 7.1481 20.2375C7.10851 20.1377 7.02596 20.056 6.96463 20.056C6.90331 20.056 6.8531 20.1377 6.8531 20.2375ZM106.146 20.8456C106.233 20.947 106.33 21.0051 106.361 20.9747C106.448 20.8907 106.272 20.6611 106.121 20.6611C106.038 20.6611 106.047 20.7306 106.146 20.8456ZM105.019 21.8038C105.019 21.8332 105.075 21.8908 105.144 21.932C105.213 21.9731 105.269 21.949 105.269 21.8786C105.269 21.8082 105.213 21.7504 105.144 21.7504C105.075 21.7504 105.019 21.7744 105.019 21.8038Z" fill="white"/>
</svg>
