<svg width="86" height="69" viewBox="0 0 86 69" fill="none" xmlns="http://www.w3.org/2000/svg">
<path fill-rule="evenodd" clip-rule="evenodd" d="M60.5135 21.3531C60.6838 21.5175 60.8526 21.7182 60.8885 21.7992C60.9245 21.8802 61.0142 21.9195 61.088 21.8867C61.2596 21.8103 61.6332 22.0541 61.5426 22.1834C61.501 22.2428 61.6042 22.3019 61.8056 22.3341C62.065 22.3754 62.1733 22.456 62.304 22.7052C62.4296 22.9445 62.5019 23.0003 62.5953 22.9305C62.6901 22.8596 62.7603 22.9043 62.8907 23.1186C63.0076 23.3104 63.1064 23.3811 63.2025 23.3412C63.2798 23.309 63.5371 23.402 63.7742 23.5478C64.1133 23.7562 64.2056 23.8821 64.2058 24.1374C64.206 24.3158 64.2391 24.4149 64.2792 24.3576C64.3598 24.2427 65.5638 24.9499 65.661 25.169C65.694 25.2434 66.0189 25.4868 66.3831 25.7101C66.9451 26.0547 67.0574 26.1733 67.1265 26.4953C67.1897 26.7899 67.2567 26.8696 67.4264 26.852C67.7411 26.8195 68.5021 27.4006 68.5097 27.6793C68.5147 27.8666 68.5608 27.9051 68.7552 27.8852C68.9259 27.8674 68.9826 27.8997 68.9532 27.9978C68.9272 28.0848 69.2227 28.3427 69.7598 28.7016C70.2259 29.0131 70.806 29.5035 71.0486 29.7915C71.2912 30.0795 71.6466 30.4025 71.8383 30.5095C72.03 30.6163 72.2105 30.7877 72.2394 30.8901C72.2682 30.9926 72.3788 31.1366 72.4852 31.2101C72.8896 31.4897 73.3928 32.0165 73.4979 32.2704C73.558 32.4157 73.794 32.6548 74.0222 32.8015C74.2505 32.9485 74.491 33.1713 74.5566 33.2968C74.6222 33.4225 74.8676 33.6996 75.102 33.9129C75.3365 34.1261 75.5003 34.3404 75.4661 34.3892C75.432 34.4379 75.4842 34.531 75.5822 34.5961C75.6802 34.6613 75.8097 34.8463 75.8699 35.0072C75.9302 35.1681 76.0695 35.3198 76.1796 35.3442C76.2897 35.3687 76.4936 35.6008 76.6327 35.86C76.7907 36.1545 76.9358 36.309 77.0193 36.2718C77.1006 36.2356 77.1738 36.2779 77.206 36.38C77.2351 36.4724 77.5363 36.9398 77.8752 37.4189C78.2142 37.8978 78.5415 38.4509 78.6027 38.6479C78.6638 38.8448 78.7961 39.0242 78.8965 39.0465C79.0214 39.0743 79.0298 39.1574 78.9229 39.3099C78.8061 39.4767 78.8166 39.5279 78.9644 39.5129C79.1019 39.4989 79.254 39.6161 79.4651 39.8989C79.6319 40.1222 79.7791 40.3131 79.7923 40.323C79.8055 40.3329 79.7461 40.4429 79.6603 40.5671C79.5476 40.7303 79.5541 40.7715 79.6835 40.7156C79.8331 40.6509 79.8827 40.6838 79.9833 40.9134C80.0497 41.0649 80.084 41.2173 80.0596 41.2521C80.0353 41.2867 80.1862 41.4723 80.395 41.6645C80.9474 42.1726 81.4169 42.8793 81.3066 43.0367C81.2541 43.1117 81.2764 43.2165 81.3562 43.2695C81.4361 43.3226 81.544 43.558 81.596 43.7925C81.648 44.0271 81.7453 44.2208 81.8121 44.223C81.879 44.2253 81.9483 44.3715 81.9661 44.5478C81.9837 44.7242 82.101 44.9368 82.2265 45.0203C82.3643 45.1119 82.4125 45.2325 82.3481 45.3245C82.2894 45.4083 82.3241 45.5946 82.4253 45.7385C82.5265 45.8824 82.5541 46.0804 82.4865 46.1785C82.3957 46.3106 82.4088 46.3375 82.5371 46.2821C82.6751 46.2225 82.7488 46.2863 82.9007 46.5971C83.0054 46.8116 83.0521 47.0435 83.0044 47.1124C82.9565 47.1814 83.0076 47.2977 83.1179 47.371C83.2281 47.4443 83.2931 47.5403 83.2622 47.5843C83.2314 47.6283 83.3402 47.8976 83.504 48.1828C83.6679 48.4678 83.77 48.7467 83.731 48.8024C83.692 48.8581 83.7277 48.9486 83.8104 49.0036C83.8939 49.0591 83.8985 49.1924 83.8207 49.3035C83.7429 49.4145 83.7475 49.5478 83.831 49.6033C83.9137 49.6583 83.9498 49.7482 83.9113 49.8032C83.8728 49.8582 83.8975 49.9407 83.9664 49.9867C84.1532 50.1115 84.4044 51.1546 84.22 51.0402C84.1355 50.9878 84.1846 51.1065 84.329 51.304C84.4734 51.5014 84.6371 51.8712 84.693 52.1256C84.7488 52.38 84.8329 52.6137 84.88 52.645C84.9271 52.6763 84.9192 52.7682 84.8624 52.8492C84.8056 52.9303 84.8394 53.145 84.9376 53.3265C85.0357 53.5079 85.1478 53.9798 85.1866 54.375C85.2255 54.7702 85.306 55.126 85.3656 55.1656C85.5021 55.2563 85.6128 56.1813 85.5056 56.336C85.4618 56.3994 85.5064 56.6155 85.6045 56.8164C85.7028 57.0173 85.7313 57.3165 85.668 57.4813C85.6046 57.6461 85.6018 57.8135 85.6617 57.8533C85.8377 57.9703 85.9671 58.8215 85.837 59.0072C85.7714 59.101 85.7671 59.2486 85.8276 59.3353C85.8881 59.4218 85.8852 59.5676 85.8211 59.659C85.757 59.7506 85.7322 59.9511 85.766 60.1048C85.8499 60.4862 85.7929 60.9576 85.636 61.1817C85.5643 61.2841 85.5227 61.5263 85.5435 61.7202C85.5641 61.914 85.5167 62.1168 85.4381 62.1707C85.3511 62.2304 85.3662 62.3077 85.477 62.3679C85.7563 62.5198 85.6224 62.739 85.2723 62.703C85.1006 62.6853 85.0465 62.6989 85.1519 62.7333C85.317 62.7871 85.4727 63.3022 85.3687 63.4507C85.3491 63.4786 85.3204 63.7675 85.305 64.0925C85.2817 64.5826 85.2339 64.7027 85.0254 64.7944C84.845 64.8738 84.7786 64.962 84.7908 65.1062C84.8092 65.3216 84.5135 65.5882 84.3654 65.4898C84.3162 65.4571 84.2474 65.4711 84.2125 65.5209C84.1776 65.5708 84.2557 65.648 84.3861 65.6925C84.545 65.7468 84.5887 65.8227 84.5185 65.9229C84.461 66.005 84.4421 66.1723 84.4765 66.2945C84.5312 66.489 84.4922 66.5316 84.1633 66.6368C83.7533 66.7678 83.4598 67.0856 83.6387 67.2046C83.7198 67.2585 83.6955 67.2957 83.5518 67.3375C83.4421 67.3696 83.3097 67.51 83.2576 67.6495C83.1316 67.9872 82.6697 68.0773 82.4549 67.8063C82.3574 67.6835 82.3539 67.5604 82.4458 67.4973C82.531 67.4389 82.5387 67.3525 82.4633 67.3023C82.3168 67.2049 82.0197 67.4073 81.9464 67.6547C81.9214 67.7389 81.9649 67.8501 82.043 67.902C82.2236 68.0222 82.1147 68.1872 81.888 68.1367C81.7934 68.1158 81.7023 67.9627 81.6856 67.7965C81.6525 67.467 81.808 67.1598 81.9577 67.2593C82.0713 67.3348 82.3561 66.8994 82.2966 66.7413C82.2734 66.6796 82.3086 66.5085 82.375 66.3611C82.4413 66.2137 82.4537 66.0092 82.4028 65.9069C82.3518 65.8045 82.3971 65.5965 82.5034 65.4447C82.6261 65.2695 82.6635 64.9728 82.6058 64.6322C82.541 64.2493 82.5818 63.9956 82.7483 63.7472C82.9233 63.4858 82.9379 63.3695 82.8065 63.2818C82.6469 63.1752 82.6596 63.0403 82.8409 62.9181C82.8792 62.8923 82.8393 62.7721 82.7524 62.651C82.6315 62.4822 82.6483 62.378 82.8243 62.2057C82.9948 62.039 83.0123 61.953 82.8923 61.8732C82.8031 61.8139 82.7617 61.7205 82.8002 61.6655C82.8387 61.6105 82.8026 61.5205 82.7199 61.4656C82.6372 61.4106 82.6033 61.3174 82.6446 61.2586C82.6859 61.1996 82.6984 61.0341 82.6724 60.8908C82.639 60.7066 82.6782 60.6198 82.8064 60.5947C83.08 60.5411 83.1297 60.4011 82.9098 60.3032C82.7957 60.2525 82.7576 60.1535 82.8188 60.0661C82.8766 59.9836 82.8522 59.8297 82.7647 59.724C82.677 59.6184 82.6532 59.4872 82.7118 59.4325C82.7702 59.3778 82.7583 59.2933 82.6853 59.2447C82.6122 59.1961 82.5263 58.9802 82.4943 58.7648C82.4401 58.3994 82.4508 58.3781 82.6537 58.4482C82.8048 58.5003 82.792 58.4654 82.6122 58.334C82.4308 58.2015 82.3419 57.9514 82.3154 57.4996C82.2587 56.5309 82.1915 56.2645 81.9804 56.1701C81.8542 56.1138 81.8315 56.0004 81.9141 55.8383C81.9899 55.6898 81.9699 55.5457 81.8638 55.4752C81.7627 55.408 81.7155 55.1433 81.7526 54.8518C81.7882 54.5733 81.7787 54.3107 81.7314 54.2685C81.4265 53.9959 81.2944 53.6871 81.3588 53.3978C81.3996 53.2144 81.464 53.0353 81.5018 53.0001C81.5394 52.9648 81.5189 52.8915 81.4558 52.8374C81.3928 52.7832 81.3034 52.6984 81.2573 52.649C81.2111 52.5995 81.0928 52.498 80.9943 52.4232C80.8644 52.3247 80.8681 52.242 81.0078 52.1223C81.1609 51.9909 81.1509 51.9243 80.959 51.7968C80.8264 51.7087 80.7537 51.5854 80.7974 51.5231C80.9003 51.3761 80.7468 50.689 80.5156 50.2617C80.4163 50.0779 80.3567 49.8406 80.3834 49.7346C80.41 49.6284 80.3429 49.4825 80.2341 49.4102C80.1255 49.338 80.0393 49.23 80.0427 49.1704C80.0461 49.1107 80.2283 49.199 80.4475 49.3665C80.8035 49.6385 80.8305 49.6425 80.7002 49.4038C80.5998 49.2197 80.6127 49.0915 80.7419 48.9916C80.971 48.8141 80.8753 48.7344 80.4992 48.7893C80.2414 48.8269 80.2106 48.7933 80.1386 48.3963C80.0953 48.1576 80.027 48.0094 79.9867 48.0669C79.891 48.2035 79.6181 48.0209 79.6681 47.8538C79.6894 47.783 79.6267 47.6523 79.5288 47.5634C79.4176 47.4624 79.405 47.3246 79.4952 47.1959C79.6957 46.9096 79.6405 46.7422 79.3552 46.7717C79.1947 46.7882 79.1398 46.7596 79.1912 46.6862C79.2336 46.6256 79.1754 46.4728 79.0618 46.3467C78.9481 46.2206 78.899 46.0548 78.9526 45.9783C79.0147 45.8896 78.9384 45.7649 78.7424 45.6346C78.4438 45.4362 78.0163 44.5491 77.973 44.0382C77.9616 43.9039 77.8991 43.7922 77.8343 43.79C77.7694 43.7878 77.6187 43.5891 77.4993 43.3484C77.3799 43.1077 77.2662 42.9337 77.2466 42.9616C77.1741 43.0652 76.7941 42.235 76.7928 41.97C76.792 41.819 76.7284 41.6934 76.6515 41.6907C76.5744 41.6882 76.4878 41.6061 76.4587 41.5084C76.4297 41.4107 76.2252 41.1643 76.0042 40.9608C75.7832 40.7572 75.5102 40.3705 75.3975 40.1014C75.2849 39.8322 75.1001 39.5504 74.9868 39.4751C74.8737 39.3999 74.6655 39.1525 74.5243 38.9253C74.383 38.6981 74.2212 38.4946 74.1646 38.4731C74.108 38.4516 74.0271 38.2726 73.9848 38.0756C73.9291 37.8161 73.8241 37.6876 73.6045 37.6102C73.4102 37.5417 73.2592 37.3913 73.1846 37.1921C73.1205 37.021 72.8737 36.7518 72.6362 36.5939C72.3553 36.4072 72.2201 36.2445 72.2493 36.1282C72.274 36.03 72.2455 35.88 72.186 35.7949C72.1259 35.7088 72.0743 35.7013 72.07 35.7779C72.0655 35.8561 72.0128 35.8453 71.9482 35.753C71.8856 35.6633 71.8825 35.5137 71.9415 35.4205C72.0005 35.3272 71.997 35.2843 71.9338 35.3249C71.7975 35.4126 71.0449 34.8299 71.1327 34.7045C71.166 34.657 71.103 34.5982 70.9927 34.5736C70.8241 34.5361 70.5172 34.2036 69.7884 33.2686C69.6288 33.0639 69.3243 32.8008 68.6094 32.25C68.2743 31.9919 68.0029 31.7188 68.0063 31.6431C68.012 31.5122 67.7785 31.3178 66.6505 30.5138C66.381 30.3218 66.1597 30.1027 66.1585 30.027C66.1574 29.9512 65.9696 29.7475 65.7411 29.5744C65.5127 29.4012 65.3006 29.2393 65.2701 29.2145C65.2394 29.1898 65.1636 28.9765 65.1017 28.7406C65.0075 28.3815 64.9519 28.3191 64.7602 28.3566C64.6344 28.3813 64.4995 28.4471 64.4605 28.5028C64.3604 28.6456 63.0445 27.5869 62.9193 27.263C62.847 27.0756 62.7469 26.9987 62.5513 26.98C62.397 26.9654 62.1486 26.8206 61.9677 26.6399C61.7943 26.467 60.5575 25.5769 59.2191 24.662C57.8808 23.747 56.6861 22.9275 56.5643 22.8408C56.4424 22.7539 56.3123 22.515 56.2751 22.3099L56.2075 21.9368L56.0081 22.1511C55.8302 22.3424 55.7751 22.3339 55.4943 22.0723C55.3214 21.911 55.1488 21.6465 55.1108 21.4844C55.0453 21.2054 55.0341 21.2004 54.8999 21.392C54.7847 21.5565 54.6858 21.5505 54.3717 21.3598C53.4642 20.809 53.0028 20.4551 52.9507 20.2699C52.9094 20.123 52.8275 20.0853 52.6329 20.1234C52.3077 20.1871 50.4211 18.9712 50.4318 18.7048C50.436 18.6002 50.3937 18.6039 50.3142 18.7153C50.1813 18.9018 49.8673 18.7467 49.6034 18.3642C49.5089 18.2274 49.3892 18.1768 49.2634 18.2204C49.1566 18.2574 48.7808 18.1334 48.4281 17.9449C48.0755 17.7563 47.6408 17.5285 47.4621 17.4385C47.2833 17.3486 47.1407 17.212 47.1451 17.1351C47.1501 17.0481 47.0652 17.0101 46.9205 17.0346C46.6484 17.0808 45.8706 16.6684 45.9679 16.5294C46.0044 16.4773 45.82 16.3935 45.558 16.3432C45.2961 16.2929 44.926 16.125 44.7356 15.97C44.4854 15.7663 44.3785 15.7324 44.3497 15.8471C44.3142 15.9882 44.0646 15.9205 43.8465 15.7106C43.8055 15.6712 43.4423 15.5292 43.0393 15.3951C42.6362 15.2609 42.0728 15.0131 41.7871 14.8443C41.5014 14.6755 41.1567 14.5071 41.021 14.4702C40.8255 14.4169 40.7864 14.3016 40.8326 13.9144C40.8795 13.5201 40.8528 13.4448 40.6945 13.5236C40.5865 13.5772 40.4947 13.6841 40.4902 13.7611C40.4858 13.8382 40.4289 13.8657 40.3638 13.8225C40.2745 13.7631 40.2498 13.7965 40.2635 13.9577C40.2779 14.1268 40.2251 14.1527 40.0114 14.0811C39.5918 13.9406 39.561 13.8957 39.7724 13.732C39.9389 13.6031 39.921 13.5494 39.6581 13.3852C39.4019 13.2254 39.3175 13.2325 39.1823 13.4256C38.9398 13.7717 38.3786 13.8468 38.1264 13.5669C38.0117 13.4397 37.702 13.2935 37.4256 13.2362C37.057 13.1597 36.9216 13.0852 36.8961 12.9449C36.8707 12.8046 36.77 12.7777 36.5027 12.8397C36.2295 12.9031 36.0678 12.8578 35.8277 12.6504C35.6451 12.4928 35.4453 12.406 35.3538 12.4447C35.2669 12.4815 34.9982 12.4634 34.7567 12.4045C34.3864 12.3141 34.3169 12.2629 34.3123 12.0775C34.3082 11.9102 34.2596 11.867 34.1086 11.8966C33.9994 11.918 33.8728 11.9889 33.8269 12.0544C33.7074 12.225 32.6242 12.039 32.0187 11.7439C31.7352 11.6057 31.3716 11.4942 31.2108 11.4962C31.0502 11.4983 30.8527 11.4561 30.7721 11.4025C30.6915 11.349 30.3491 11.2691 30.0112 11.225C29.6211 11.1741 29.2101 11.0212 28.8856 10.8064C28.4942 10.5473 28.3519 10.5047 28.2787 10.6242C28.2199 10.7205 28.0687 10.7222 27.8854 10.6288C27.7216 10.5454 27.5616 10.5144 27.5299 10.5598C27.4508 10.6727 26.4958 10.4647 26.2048 10.2712C26.0749 10.1849 25.8652 10.1444 25.7387 10.1812C25.4882 10.2544 25.0933 10.0542 25.1968 9.90639C25.2321 9.85601 25.3332 9.82956 25.4216 9.8476C25.5204 9.86784 25.519 9.83395 25.418 9.7598C25.3276 9.69342 25.0782 9.72142 24.8635 9.82213C24.6489 9.92284 24.4314 9.94511 24.38 9.87158C24.3287 9.79816 24.2593 9.77708 24.2258 9.82487C24.1922 9.87275 24.0021 9.79676 23.8031 9.65615C23.6002 9.51262 23.3867 9.44147 23.3169 9.49396C23.2486 9.54538 23.1342 9.54874 23.0628 9.50131C22.9914 9.45388 22.8297 9.44528 22.7033 9.48212C22.5769 9.51897 22.3888 9.49285 22.2854 9.4241C22.1819 9.35528 21.9365 9.33048 21.74 9.36897C21.5099 9.41407 21.3099 9.36683 21.1774 9.23598C21.0643 9.12435 20.9163 9.069 20.8485 9.1129C20.7659 9.16643 20.7251 9.12682 20.7249 8.99291C20.7247 8.82414 20.7 8.80775 20.5669 8.88791C20.4458 8.96081 20.4159 8.94519 20.438 8.8201C20.4601 8.69501 20.4096 8.6686 20.2202 8.70563C20.0845 8.73221 19.9133 8.67761 19.8397 8.58412C19.7371 8.45396 19.7217 8.45809 19.7739 8.60166C19.8312 8.75932 19.8109 8.78842 19.6448 8.78602C19.5364 8.78441 19.3767 8.74272 19.2901 8.69336C19.2035 8.644 19.0489 8.55783 18.9469 8.50184C18.8448 8.44586 18.7139 8.46754 18.6561 8.55002C18.583 8.65439 18.4458 8.63003 18.2053 8.47015C17.9959 8.33098 17.7817 8.27895 17.6624 8.33828C17.5541 8.39212 17.387 8.39948 17.2914 8.35449C17.1957 8.30949 17.0068 8.28414 16.8716 8.29803C16.7364 8.31202 16.5588 8.23909 16.477 8.13591C16.3891 8.02521 16.2327 7.97633 16.0951 8.01641C15.9667 8.05389 15.7882 8.036 15.6982 7.97677C15.6082 7.91738 15.3367 7.86836 15.0948 7.86772C14.853 7.86707 14.5759 7.81431 14.4793 7.75052C14.3826 7.68684 14.2786 7.67003 14.2483 7.71322C14.1935 7.7916 13.9306 7.67637 13.4709 7.37252C13.3373 7.28431 13.0979 7.23109 12.9387 7.25425C12.7795 7.2775 12.6268 7.24558 12.5991 7.18338C12.5716 7.12114 12.4244 7.11574 12.2721 7.17139C12.1199 7.227 11.9431 7.23783 11.8794 7.19546C11.8155 7.15303 11.66 7.14856 11.5336 7.18541C11.2373 7.27184 10.9973 7.11228 11.1327 6.91893C11.1905 6.83645 11.2829 6.79895 11.338 6.83558C11.3931 6.87223 11.4668 6.86142 11.5016 6.81163C11.5365 6.76184 11.4197 6.69985 11.2419 6.67387C11.0026 6.639 10.9231 6.6776 10.9355 6.82268C10.9446 6.93043 10.9094 6.99701 10.8573 6.97073C10.8053 6.94452 10.5812 6.82335 10.3593 6.70148C9.92188 6.46114 9.55374 6.44719 9.40123 6.66493C9.34816 6.74071 9.25804 6.77166 9.20102 6.73375C9.14389 6.69578 8.92535 6.66347 8.71527 6.66185C8.50503 6.66026 8.25861 6.62392 8.16745 6.58106C8.0763 6.5382 7.92972 6.53526 7.84179 6.5744C7.7538 6.61363 7.62867 6.56958 7.56372 6.47673C7.49026 6.37149 7.34694 6.35109 7.18409 6.42276C7.04027 6.48614 6.84818 6.48841 6.75718 6.42792C6.66428 6.36616 6.48741 6.40918 6.35373 6.52603C6.22288 6.64052 6.04579 6.68764 5.9603 6.63081C5.822 6.53887 5.80971 6.55517 5.84996 6.77724C5.87487 6.91468 5.94356 7.05924 6.0027 7.09855C6.06172 7.13779 6.07768 7.21609 6.03819 7.27248C5.99737 7.33076 6.14338 7.39427 6.37692 7.41984C6.67188 7.4521 6.82024 7.52757 6.90416 7.68813C6.96821 7.811 7.07333 7.90124 7.13751 7.88866C7.20169 7.87609 7.24904 7.95738 7.24265 8.06947C7.23256 8.24621 7.25208 8.2586 7.3904 8.16344C7.52401 8.07144 7.77502 8.2153 8.94209 9.05249C9.70775 9.60174 10.3681 10.1315 10.4093 10.2297C10.4575 10.3446 10.5499 10.3799 10.6682 10.3286C10.8148 10.2651 10.8337 10.2759 10.7613 10.3821C10.7112 10.4553 10.6879 10.6127 10.7095 10.7318C10.7417 10.9094 10.8095 10.9428 11.087 10.9174C11.3591 10.8925 11.498 10.9587 11.7974 11.2557C12.0022 11.4587 12.2021 11.6492 12.2419 11.6791C12.2816 11.709 12.2667 11.8009 12.2089 11.8834C12.1511 11.9659 12.1504 12.0643 12.2072 12.1021C12.2641 12.1399 12.3838 12.1206 12.4733 12.0592C12.6665 11.9267 12.8617 12.0326 12.9095 12.2958C12.9494 12.5162 12.5413 12.6482 12.3467 12.4777C12.0772 12.2415 11.9416 12.2372 11.8102 12.4609C11.4868 13.0113 11.3412 13.1314 11.2152 12.9511C11.1223 12.8179 11.0797 12.8263 11.0397 12.9855C11.0082 13.1109 10.9372 13.1635 10.8638 13.1159C10.7961 13.0719 10.6202 12.9957 10.473 12.9464C10.2762 12.8806 10.2353 12.814 10.3185 12.6952C10.4475 12.5109 10.3309 12.4023 9.96698 12.3676C9.76821 12.3486 9.73386 12.2953 9.80239 12.1117C9.85003 11.9841 9.83662 11.8449 9.77258 11.8024C9.70203 11.7555 9.62628 11.82 9.58004 11.9665C9.52002 12.1567 9.47791 12.1709 9.38161 12.033C9.31446 11.9368 9.18568 11.8911 9.09546 11.9312C9.00535 11.9713 8.76248 11.9031 8.55566 11.7794C8.25868 11.6017 8.20577 11.5175 8.30359 11.3778C8.47248 11.1367 8.19587 10.9776 7.9597 11.1801C7.78739 11.328 7.70374 11.2939 7.06949 10.8175C6.59379 10.4601 6.25305 10.2789 6.00628 10.2519C5.69767 10.2182 5.61737 10.1646 5.47278 9.8965C5.37927 9.72299 5.27843 9.61551 5.24888 9.6577C5.21934 9.69989 5.07375 9.62465 4.92533 9.49054C4.77692 9.35642 4.69582 9.18911 4.74512 9.11872C4.87914 8.92737 4.65169 8.67625 4.46204 8.8063C4.22975 8.9656 4.20935 9.01401 4.37236 9.01951C4.45518 9.02226 4.44038 9.07484 4.33667 9.14597C4.19446 9.24353 4.16069 9.22987 4.16639 9.07703C4.1722 8.92089 4.13632 8.90144 3.96826 8.96965C3.79808 9.03879 3.76433 9.01987 3.77034 8.85903C3.77521 8.72835 3.73145 8.68578 3.63585 8.72831C3.55779 8.76302 3.35195 8.69139 3.1784 8.56884C3.00477 8.44639 2.8101 8.32695 2.74581 8.3034C2.50316 8.21449 2.47783 8.11853 2.68126 8.05918C2.85019 8.00986 2.84358 7.96562 2.64796 7.83558C2.49362 7.73298 2.33764 7.73025 2.22353 7.82816C1.97522 8.04113 1.81336 7.90086 1.95193 7.59268L2.06599 7.33883L1.89482 7.55471C1.66215 7.84811 1.14909 7.54237 1.36259 7.23755C1.43961 7.12758 1.46174 7.01042 1.41183 6.97724C1.36182 6.944 1.28503 7.01296 1.2412 7.13049C1.14463 7.38937 0.73835 7.45146 0.523173 7.24029C0.43708 7.15581 0.392799 6.9567 0.424632 6.79779C0.456471 6.63888 0.433283 6.48325 0.373062 6.45201C0.096443 6.30842 0.0652387 6.19757 0.209283 5.8709C0.331904 5.59285 0.43672 5.51366 0.716082 5.48808C1.03236 5.45905 1.07868 5.41556 1.16994 5.06171C1.26005 4.71223 1.31343 4.65951 1.64148 4.59523C1.84492 4.55537 2.06221 4.42377 2.12426 4.30267C2.20856 4.13849 2.23643 4.13269 2.23431 4.27956C2.23235 4.41701 2.27553 4.45685 2.37756 4.41141C2.45788 4.37558 2.6063 4.40127 2.70742 4.46849C2.91868 4.60892 3.1455 4.48219 3.44288 4.05759C3.5575 3.89393 3.67245 3.80741 3.69814 3.86551C3.75047 3.98353 4.31746 3.85742 4.42501 3.70385C4.4631 3.64947 4.5557 3.64582 4.63066 3.69565C4.72176 3.75621 4.80898 3.69375 4.89277 3.50783C4.98904 3.29446 5.14195 3.21603 5.5457 3.17262C6.53693 3.06596 7.02977 2.9417 7.03808 2.79645C7.04927 2.59993 7.67696 2.35066 7.85775 2.47084C7.94535 2.52907 8.02134 2.4927 8.04998 2.37884C8.0814 2.25365 8.16049 2.23091 8.28563 2.31102C8.58397 2.50201 8.99447 2.42235 9.1962 2.13433C9.36453 1.89398 9.39212 1.89357 9.49536 2.12953C9.59537 2.35792 9.66537 2.37353 10.0734 2.25855C10.3287 2.18663 10.7061 2.02531 10.9118 1.90022C11.3315 1.64503 11.4853 1.68408 11.4494 2.03665C11.4143 2.38242 11.6592 2.28321 11.9595 1.82992C12.1586 1.5292 12.2436 1.47287 12.324 1.58787C12.3894 1.68142 12.5061 1.67167 12.6338 1.56212C12.7466 1.4654 12.897 1.42498 12.968 1.47222C13.0516 1.52778 13.0221 1.62464 12.8844 1.74632L12.6717 1.93457L13.0495 1.83862C13.5646 1.70793 13.8515 1.4687 13.7673 1.23987C13.717 1.10327 13.7481 1.10476 13.8835 1.24557C14.016 1.3835 14.0807 1.38858 14.1121 1.26375C14.1361 1.16795 14.2093 1.12516 14.2746 1.16859C14.34 1.21203 14.6966 1.182 15.0672 1.10188C15.4377 1.0217 15.7931 1.00216 15.8572 1.05836C16.2808 1.43009 16.4406 1.43753 16.6797 1.09611C16.8802 0.809779 16.9432 0.783806 17.0751 0.933152C17.182 1.05418 17.3454 1.06365 17.5883 0.962933C17.7842 0.881592 17.9369 0.773598 17.9278 0.723021C17.9068 0.607072 18.4358 0.500068 18.8613 0.534163C19.1825 0.559988 19.2574 0.578262 19.4665 0.68211C19.5265 0.711851 19.6385 0.646254 19.7155 0.536281C19.7952 0.422508 19.9224 0.380765 20.0106 0.439388C20.0958 0.496017 20.3367 0.458813 20.546 0.356573C21.01 0.129797 21.1933 0.224389 21.0438 0.613371C20.9821 0.773818 21.0014 0.951511 21.0867 1.0082C21.1962 1.08095 21.2644 1.04016 21.3182 0.869878C21.3749 0.68987 21.4217 0.667665 21.5019 0.782369C21.6772 1.03337 21.4713 1.40087 21.1605 1.39191C21.0087 1.38741 20.8395 1.44798 20.7846 1.52636C20.7297 1.60484 20.676 1.62045 20.6652 1.56114C20.6434 1.4413 19.6015 1.76276 19.4802 1.92678C19.402 2.03249 18.4933 1.9216 18.2808 1.78036C18.2167 1.73773 18.2153 1.62984 18.2777 1.54066C18.3708 1.40779 18.3484 1.38284 18.1539 1.40294C18.0232 1.41646 17.8644 1.5002 17.8009 1.58914C17.7022 1.72744 17.6868 1.72062 17.6951 1.54182C17.7005 1.42683 17.6455 1.34444 17.5729 1.35858C17.409 1.39077 17.5542 1.74833 17.7335 1.75442C17.8545 1.7585 17.9012 2.0677 17.8032 2.21499C17.7796 2.25042 17.654 2.24295 17.5239 2.19856C17.3939 2.15417 17.1974 2.17964 17.0875 2.25527C16.7766 2.46885 16.2501 2.48939 16.0429 2.29614C15.8979 2.16093 15.8369 2.17003 15.7747 2.33644C15.7305 2.45491 15.7352 2.57906 15.7852 2.6123C15.8351 2.64548 15.7197 2.73753 15.5287 2.81688C15.3137 2.90609 15.1847 2.90222 15.1902 2.80668C15.2064 2.52379 14.7937 2.55574 14.5367 2.8571C14.3078 3.12561 14.2473 3.13273 13.8864 2.93415C13.519 2.73184 13.486 2.73684 13.4544 2.99878C13.4249 3.24316 13.4024 3.25712 13.2927 3.10007C13.1954 2.96078 13.1468 2.96746 13.0867 3.12837C12.9899 3.38799 12.583 3.46935 12.4358 3.25849C12.365 3.15721 12.2304 3.16987 12.0498 3.29453C11.7017 3.53481 11.6728 3.76699 11.995 3.7337C12.1259 3.72021 12.3799 3.79733 12.5595 3.90514C13.0891 4.22307 13.1541 4.24252 13.2465 4.11055C13.331 3.98998 14.1494 4.1623 14.4542 4.36489C14.535 4.41859 14.6834 4.42159 14.7839 4.37162C14.89 4.31892 15.1796 4.39683 15.4731 4.5572C15.7514 4.70925 16.0255 4.82452 16.0822 4.81341C16.1388 4.8024 16.2338 4.88634 16.2931 5.00005C16.3843 5.17453 16.4207 5.1637 16.5261 4.93C16.6015 4.76298 16.6978 4.68416 16.7689 4.73139C16.8337 4.77449 16.8274 4.83621 16.7548 4.86854C16.4055 5.02419 16.9409 5.08342 17.6901 4.97217C17.9099 4.93943 18.7785 5.19682 18.984 5.35554C19.454 5.71853 19.8084 5.8562 19.9077 5.71444C19.9667 5.63016 20.1135 5.58588 20.2337 5.61587C20.3541 5.64577 20.5598 5.65885 20.6909 5.64473C20.8219 5.63071 21.0746 5.69453 21.2524 5.78666C21.4303 5.87878 21.7836 5.97327 22.0375 5.99657C22.2914 6.01988 22.5661 6.12321 22.6478 6.22615C22.7304 6.33046 22.8294 6.36619 22.871 6.30671C22.9121 6.24802 23.0585 6.27498 23.1963 6.36658C23.3341 6.45818 23.4802 6.48544 23.521 6.42725C23.5617 6.36907 23.6209 6.37955 23.6525 6.45065C23.6841 6.52175 23.9055 6.57402 24.1447 6.56667C24.3839 6.55938 24.629 6.58632 24.6893 6.62643C24.7497 6.6666 24.8306 6.65445 24.8691 6.59947C24.9077 6.54448 25.0429 6.56844 25.1697 6.65271C25.2964 6.73699 25.4711 6.79436 25.5578 6.78005C25.6446 6.7659 26.1775 6.89274 26.7423 7.06205C27.5564 7.30605 27.7825 7.41519 27.8337 7.58861C27.8853 7.76293 27.901 7.76959 27.9114 7.62145C27.9266 7.40137 28.4976 7.2737 28.6399 7.45869C28.6917 7.52599 28.9518 7.58854 29.2177 7.59752C29.4837 7.60645 29.8263 7.69684 29.9791 7.79844C30.1318 7.89997 30.3536 7.94967 30.4718 7.90899C30.59 7.86815 30.7886 7.87824 30.9131 7.93122C31.0375 7.98421 31.2247 8.04724 31.329 8.07131C31.9689 8.21885 32.3191 8.36025 32.4714 8.53269C32.5805 8.65632 32.7339 8.6968 32.8866 8.64222C33.0203 8.59428 33.2758 8.64747 33.4577 8.76089C33.6386 8.87381 33.8167 8.92325 33.8535 8.87076C33.8903 8.81827 33.9663 8.84098 34.0223 8.92127C34.0784 9.00153 34.287 9.04114 34.4859 9.00924C34.7449 8.9678 34.9169 9.02088 35.0919 9.1967C35.2549 9.36041 35.3853 9.40842 35.4838 9.34083C35.5651 9.28513 36.0137 9.3844 36.4809 9.56146C36.948 9.73863 37.4796 9.88513 37.6623 9.88712C37.8449 9.88911 38.0161 9.93992 38.0428 9.99999C38.0693 10.06 38.2786 10.1324 38.5078 10.1608C38.9158 10.2114 39.4865 10.5944 39.7477 10.993C39.8476 11.1452 39.9079 11.1313 40.0545 10.9219C40.1701 10.7568 40.2922 10.6979 40.3874 10.7612C40.4701 10.8162 40.5641 10.8234 40.5964 10.7773C40.6287 10.7313 40.8224 10.7959 41.027 10.9209C41.2316 11.0459 41.4925 11.1385 41.6069 11.1267C41.845 11.1022 42.422 11.3468 42.8386 11.6492C42.9952 11.7628 43.1918 11.8252 43.2754 11.7879C43.3592 11.7506 43.6836 11.861 43.9962 12.0332C44.8245 12.4895 44.9532 12.5784 45.1515 12.8317C45.2924 13.0115 45.371 13.0255 45.5203 12.8975C45.7147 12.7307 45.7232 12.7342 47.0547 13.5097C47.5935 13.8236 47.8787 13.9368 48.0474 13.9038C48.1125 13.8909 48.3747 14.0194 48.6302 14.1892C48.8856 14.359 49.167 14.4839 49.2558 14.4669C49.3881 14.4415 50.0528 14.8226 50.8746 15.3955C50.9561 15.4522 51.2596 15.5851 51.549 15.6908C52.3309 15.9761 52.9205 16.3205 52.9809 16.5272C53.011 16.6298 53.1368 16.7266 53.2673 16.7474C53.5788 16.7974 55.4973 18.0225 55.4253 18.1254C55.394 18.1699 55.5378 18.2274 55.7447 18.253C55.9775 18.2819 56.3616 18.4738 56.7515 18.7558C57.4035 19.2276 57.6145 19.4973 57.4046 19.5908C57.3379 19.6205 57.372 19.6646 57.4805 19.6888C57.5891 19.7129 57.7098 19.6869 57.7488 19.6311C57.7899 19.5725 57.8467 19.6245 57.8831 19.7539C57.9345 19.9362 57.9658 19.9505 58.0502 19.83C58.1356 19.7081 58.2955 19.7848 58.9469 20.26C59.383 20.5782 59.7462 20.8741 59.7542 20.9177C59.762 20.9613 59.8664 21.0097 59.986 21.0255C60.1058 21.0414 60.3431 21.1887 60.5135 21.3531ZM23.1753 0.157696C23.2269 0.228057 23.1642 0.424655 23.0359 0.59445C22.879 0.802103 22.8323 0.827036 22.8933 0.670618C22.9432 0.542661 22.9775 0.349626 22.9696 0.241637C22.9527 0.0123979 23.0418 -0.023939 23.1753 0.157696ZM50.7009 18.7892C50.6624 18.8442 50.6787 18.9209 50.737 18.9597C50.7954 18.9985 50.8468 18.9667 50.8512 18.8891C50.8557 18.8115 50.8395 18.7348 50.8151 18.7186C50.7908 18.7024 50.7394 18.7342 50.7009 18.7892ZM22.3493 0.340833C22.2122 0.536586 21.8722 0.651179 21.7228 0.551917C21.6755 0.520472 21.7114 0.46195 21.8027 0.421879C21.8939 0.381844 22.0144 0.286225 22.0703 0.209441C22.2262 -0.00474102 22.5008 0.124586 22.3493 0.340833ZM68.0441 30.9925C68.0541 31.0478 68.1381 31.1089 68.2306 31.128C68.3329 31.1493 68.3258 31.1098 68.2124 31.0274C68.1098 30.9529 68.0341 30.9372 68.0441 30.9925ZM22.37 0.8356C22.3656 0.913237 22.2916 0.929979 22.2057 0.872885C22.1198 0.815796 22.081 0.724039 22.1195 0.669053C22.158 0.614066 22.2319 0.597253 22.2838 0.631763C22.3357 0.66627 22.3744 0.757962 22.37 0.8356ZM69.4087 32.5523C69.3725 32.6041 69.3879 32.6764 69.4431 32.713C69.4982 32.7497 69.5924 32.7095 69.6524 32.6238C69.7124 32.5381 69.697 32.4657 69.6181 32.4631C69.5392 32.4604 69.445 32.5006 69.4087 32.5523ZM74.4931 35.9881C74.4761 36.0124 74.4879 36.09 74.5192 36.1606C74.5505 36.2312 74.6095 36.2413 74.6503 36.1831C74.691 36.1249 74.6793 36.0473 74.6242 36.0106C74.5691 35.974 74.5101 35.9638 74.4931 35.9881ZM74.0406 37.1245C74.0202 37.2118 74.0824 37.1706 74.1786 37.0331C74.2749 36.8957 74.2915 36.8244 74.2157 36.8746C74.1396 36.9248 74.0608 37.0373 74.0406 37.1245ZM74.6667 38.6762C74.6282 38.7312 74.6761 38.828 74.7731 38.8913C74.9239 38.9897 74.9376 38.9777 74.8671 38.8095C74.7634 38.5618 74.7521 38.5543 74.6667 38.6762ZM28.6455 9.14949C28.6946 9.42038 28.8943 9.3301 28.8563 9.05412C28.8382 8.92371 28.7762 8.85098 28.7181 8.89221C28.6599 8.93327 28.6273 9.04903 28.6455 9.14949ZM76.1006 40.5086C76.028 40.5409 76.0164 40.5991 76.0748 40.6379C76.1331 40.6767 76.2124 40.6635 76.2509 40.6085C76.2894 40.5535 76.3011 40.4953 76.2767 40.4791C76.2524 40.4629 76.1732 40.4762 76.1006 40.5086ZM16.597 2.05302C16.5392 2.1355 16.5371 2.23296 16.5922 2.2696C16.6473 2.30624 16.7397 2.26873 16.7974 2.18625C16.8552 2.10377 16.8574 2.00631 16.8022 1.96967C16.7471 1.93303 16.6548 1.97054 16.597 2.05302ZM10.6338 3.43707C10.5953 3.49206 10.5836 3.55024 10.608 3.56643C10.6323 3.58261 10.7116 3.56934 10.7841 3.537C10.8567 3.50467 10.8683 3.44642 10.81 3.40765C10.7516 3.36888 10.6723 3.38209 10.6338 3.43707ZM7.59886 8.81893C7.54109 8.90141 7.53893 8.99888 7.59405 9.03551C7.64917 9.07216 7.74153 9.03465 7.7993 8.95217C7.85707 8.86969 7.85923 8.77223 7.80411 8.73559C7.74899 8.69895 7.65663 8.73645 7.59886 8.81893ZM83.8293 59.7768C83.8123 59.8011 83.824 59.8786 83.8554 59.9493C83.8867 60.0199 83.9457 60.03 83.9865 59.9718C84.0272 59.9136 84.0155 59.8359 83.9604 59.7993C83.9053 59.7626 83.8463 59.7525 83.8293 59.7768ZM6.78749 8.71915C6.72973 8.80163 6.72756 8.89909 6.78268 8.93573C6.8378 8.97237 6.83038 9.07733 6.76617 9.16901C6.70203 9.26059 6.69702 9.32626 6.75507 9.31489C6.90828 9.28486 7.10689 8.71168 6.99083 8.63453C6.93672 8.59856 6.84526 8.63667 6.78749 8.71915ZM10.078 11.5623C10.1925 11.8204 10.3925 11.8018 10.3575 11.5364C10.3391 11.3959 10.269 11.3281 10.1622 11.3471C10.053 11.3666 10.0241 11.4406 10.078 11.5623ZM9.30273 10.8121C9.08071 10.8768 8.92714 11.2404 9.07917 11.3414C9.12838 11.3741 9.21593 11.3334 9.2737 11.251C9.33146 11.1685 9.45189 11.1496 9.54128 11.209C9.67447 11.2976 9.70036 11.2751 9.6842 11.0843C9.65972 10.7956 9.57256 10.7334 9.30273 10.8121ZM2.703 6.55597C2.7334 6.71976 2.75287 6.71586 2.79833 6.53729C2.82969 6.41366 2.81253 6.32093 2.7601 6.33121C2.70774 6.34138 2.682 6.44252 2.703 6.55597ZM11.0329 12.3105C10.8704 12.5481 10.8755 12.5722 11.0692 12.48C11.1933 12.4208 11.2984 12.3094 11.3028 12.2323C11.3164 11.9962 11.2312 12.0209 11.0329 12.3105ZM7.66126 10.4075C7.582 10.5207 7.58165 10.6156 7.66058 10.6182C7.73951 10.6209 7.84945 10.5583 7.90497 10.479C7.9605 10.3997 7.96077 10.3049 7.90565 10.2683C7.85053 10.2317 7.74052 10.2944 7.66126 10.4075ZM5.25534 9.01935C5.19757 9.10183 5.21655 9.21335 5.29753 9.26718C5.38712 9.32674 5.46313 9.2914 5.49206 9.17671C5.51806 9.07311 5.49908 8.96159 5.44987 8.92888C5.40066 8.89617 5.31311 8.93687 5.25534 9.01935ZM84.5791 62.4852C84.5902 62.6153 84.6342 62.7149 84.6771 62.7066C84.7951 62.6834 84.7867 62.3999 84.6657 62.3194C84.5991 62.2752 84.5665 62.3376 84.5791 62.4852ZM83.1208 62.6758C83.1038 62.7001 83.1155 62.7776 83.1468 62.8483C83.1782 62.9189 83.2372 62.929 83.2779 62.8708C83.3187 62.8126 83.307 62.7349 83.2519 62.6983C83.1968 62.6617 83.1378 62.6515 83.1208 62.6758Z" fill="#240E0E"/>
</svg>
