<svg width="155" height="74" viewBox="0 0 155 74" fill="none" xmlns="http://www.w3.org/2000/svg">
<path d="M14.59 27.8C14.15 27.8 13.78 27.63 13.48 27.29C13.2 26.95 13.06 26.39 13.06 25.61C13.06 25.35 13.09 25.07 13.15 24.77C13.21 24.45 13.32 24.13 13.48 23.81C12.48 21.33 11.64 18.92 10.96 16.58C10.28 14.24 9.7 11.79 9.22 9.23C8.58 10.55 7.97 11.92 7.39 13.34C6.83 14.74 6.3 16.11 5.8 17.45C5.3 18.79 4.85 20.04 4.45 21.2C4.05 22.36 3.7 23.36 3.4 24.2C3.08 25.2 2.76 25.87 2.44 26.21C2.12 26.57 1.79 26.75 1.45 26.75C0.99 26.75 0.64 26.64 0.4 26.42C0.18 26.2 0.0700002 25.81 0.0700002 25.25C0.0700002 24.83 0.18 24.18 0.4 23.3C0.62 22.42 0.92 21.4 1.3 20.24C1.7 19.08 2.15 17.86 2.65 16.58C3.15 15.3 3.68 14.05 4.24 12.83C4.82 11.61 5.4 10.51 5.98 9.53C6.56 8.53 7.11 7.74 7.63 7.16C8.17 6.56 8.66 6.26 9.1 6.26C9.56 6.26 9.95 6.35 10.27 6.53C10.61 6.71 10.98 7.18 11.38 7.94C11.64 8.46 11.94 9.22 12.28 10.22C12.62 11.2 12.96 12.31 13.3 13.55C13.64 14.77 13.97 16.03 14.29 17.33C14.61 18.61 14.89 19.8 15.13 20.9C15.93 17.2 16.63 13.96 17.23 11.18C17.83 8.38 18.29 6.19 18.61 4.61C18.95 3.03 19.13 2.2 19.15 2.12C19.27 1.6 19.4 1.28 19.54 1.16C19.68 1.04 19.88 0.979998 20.14 0.979998C20.5 0.979998 20.85 1.13 21.19 1.43C21.55 1.71 21.73 2.1 21.73 2.6C21.73 2.84 21.67 3.39 21.55 4.25C21.45 5.11 21.29 6.19 21.07 7.49C20.87 8.77 20.61 10.2 20.29 11.78C19.97 13.34 19.6 14.97 19.18 16.67C18.76 18.35 18.29 20.02 17.77 21.68C17.27 23.32 16.72 24.87 16.12 26.33C15.9 26.89 15.64 27.27 15.34 27.47C15.06 27.69 14.81 27.8 14.59 27.8ZM30.4851 26.3C29.3051 26.3 28.3751 25.85 27.6951 24.95C27.0151 24.05 26.6751 22.88 26.6751 21.44C26.6751 20.92 26.7451 20.37 26.8851 19.79C27.0451 19.19 27.2451 18.65 27.4851 18.17C27.3451 18.03 27.2351 17.84 27.1551 17.6C27.0751 17.34 27.0351 17.02 27.0351 16.64C27.0351 15.46 27.2351 14.38 27.6351 13.4C28.0351 12.42 28.5651 11.57 29.2251 10.85C29.8851 10.11 30.6151 9.54 31.4151 9.14C32.2351 8.74 33.0651 8.54 33.9051 8.54C35.2851 8.54 36.4051 9.04 37.2651 10.04C38.1251 11.02 38.5551 12.52 38.5551 14.54C38.5551 15.6 38.3951 16.68 38.0751 17.78C37.7751 18.88 37.3551 19.94 36.8151 20.96C36.2951 21.98 35.6851 22.89 34.9851 23.69C34.3051 24.49 33.5751 25.13 32.7951 25.61C32.0351 26.07 31.2651 26.3 30.4851 26.3ZM29.4651 17.15C29.5851 17.31 29.6451 17.52 29.6451 17.78C29.6451 18.08 29.5851 18.38 29.4651 18.68C29.3651 18.98 29.2551 19.39 29.1351 19.91C29.0151 20.43 28.9551 21.17 28.9551 22.13C28.9551 23.09 29.3351 23.57 30.0951 23.57C30.9351 23.57 31.7151 23.24 32.4351 22.58C33.1551 21.9 33.7951 21.03 34.3551 19.97C34.9151 18.91 35.3451 17.78 35.6451 16.58C35.9651 15.36 36.1251 14.21 36.1251 13.13C36.1251 12.43 35.9951 11.94 35.7351 11.66C35.4751 11.36 35.0051 11.21 34.3251 11.21C33.6251 11.21 32.8951 11.45 32.1351 11.93C31.3951 12.39 30.7751 13.02 30.2751 13.82C29.7751 14.62 29.5251 15.52 29.5251 16.52C29.5251 16.74 29.5051 16.95 29.4651 17.15ZM1.66 71.63C1.34 71.63 1.08 71.52 0.88 71.3C0.68 71.08 0.58 70.69 0.58 70.13C0.58 69.71 0.71 69.03 0.97 68.09C1.25 67.13 1.62 66.01 2.08 64.73C2.56 63.45 3.09 62.1 3.67 60.68C4.27 59.24 4.89 57.81 5.53 56.39C6.17 54.97 6.8 53.66 7.42 52.46C8.04 51.24 8.61 50.21 9.13 49.37C9.65 48.53 10.09 47.98 10.45 47.72C10.87 47.42 11.26 47.27 11.62 47.27C11.82 47.27 12.02 47.29 12.22 47.33C12.42 47.37 12.59 47.44 12.73 47.54C13.09 47.76 13.4 48.25 13.66 49.01C13.94 49.75 14.18 50.66 14.38 51.74C14.58 52.8 14.74 53.94 14.86 55.16C15 56.36 15.12 57.55 15.22 58.73C15.82 58.65 16.32 58.59 16.72 58.55C17.12 58.51 17.41 58.49 17.59 58.49C18.27 58.49 18.7 58.58 18.88 58.76C19.06 58.94 19.16 59.15 19.18 59.39C19.22 59.75 19.12 60.07 18.88 60.35C18.64 60.63 18.3 60.84 17.86 60.98C17.72 61.02 17.42 61.09 16.96 61.19C16.52 61.27 15.99 61.37 15.37 61.49C15.39 62.09 15.4 62.65 15.4 63.17C15.42 63.67 15.43 64.1 15.43 64.46C15.43 66.28 15.32 67.65 15.1 68.57C14.88 69.47 14.61 70.08 14.29 70.4C13.97 70.72 13.66 70.88 13.36 70.88C13 70.88 12.75 70.78 12.61 70.58C12.47 70.36 12.4 70.05 12.4 69.65V67.52C12.4 66.78 12.39 65.94 12.37 65C12.37 64.04 12.36 63.03 12.34 61.97C11.16 62.17 9.96 62.36 8.74 62.54C7.54 62.72 6.5 62.88 5.62 63.02C5.18 64.16 4.8 65.19 4.48 66.11C4.16 67.01 3.94 67.7 3.82 68.18C3.52 69.18 3.25 69.93 3.01 70.43C2.77 70.91 2.54 71.23 2.32 71.39C2.12 71.55 1.9 71.63 1.66 71.63ZM6.64 60.35C7.68 60.11 8.67 59.89 9.61 59.69C10.57 59.49 11.45 59.32 12.25 59.18C12.19 57.38 12.08 55.66 11.92 54.02C11.78 52.36 11.57 51.05 11.29 50.09C10.91 50.75 10.46 51.63 9.94 52.73C9.42 53.83 8.87 55.05 8.29 56.39C7.73 57.71 7.18 59.03 6.64 60.35ZM24.9175 71.57C24.5975 71.57 24.3275 71.44 24.1075 71.18C23.8875 70.92 23.7775 70.56 23.7775 70.1C23.7775 69.76 23.8475 69.2 23.9875 68.42C24.1475 67.62 24.3175 66.69 24.4975 65.63C24.6975 64.57 24.8675 63.47 25.0075 62.33C25.1475 61.17 25.2175 60.06 25.2175 59C25.2175 58.48 25.3475 58.1 25.6075 57.86C25.8875 57.6 26.1975 57.47 26.5375 57.47C26.8575 57.47 27.0975 57.67 27.2575 58.07C27.4175 58.47 27.4475 59.27 27.3475 60.47C28.2675 58.43 29.2775 56.79 30.3775 55.55C31.4975 54.29 32.6075 53.39 33.7075 52.85C34.8075 52.29 35.7975 52.01 36.6775 52.01C37.2575 52.01 37.6775 52.13 37.9375 52.37C38.2175 52.59 38.3575 52.84 38.3575 53.12C38.3575 53.5 38.1975 53.8 37.8775 54.02C37.5775 54.22 37.0475 54.46 36.2875 54.74C35.4075 55.08 34.5975 55.48 33.8575 55.94C33.1375 56.38 32.4475 56.96 31.7875 57.68C31.1475 58.4 30.5175 59.32 29.8975 60.44C29.2775 61.54 28.6575 62.9 28.0375 64.52C27.4175 66.14 26.7575 68.09 26.0575 70.37C25.9375 70.81 25.7775 71.12 25.5775 71.3C25.3975 71.48 25.1775 71.57 24.9175 71.57ZM34.8435 61.4C34.3035 61.36 34.0535 61.01 34.0935 60.35C34.1135 60.19 34.2235 60 34.4235 59.78C34.6235 59.54 34.8535 59.41 35.1135 59.39C35.7335 59.33 36.4935 59.24 37.3935 59.12C38.3135 58.98 39.3235 58.82 40.4235 58.64C40.6235 57.66 40.8635 56.63 41.1435 55.55C41.4235 54.47 41.7335 53.42 42.0735 52.4C42.4135 51.36 42.7735 50.42 43.1535 49.58C43.5335 48.74 43.9335 48.08 44.3535 47.6C44.5735 47.38 44.7735 47.23 44.9535 47.15C45.1335 47.05 45.2935 47 45.4335 47C45.7135 47 45.9335 47.12 46.0935 47.36C46.2735 47.6 46.3635 47.87 46.3635 48.17C46.3635 48.33 46.3335 48.49 46.2735 48.65C45.8735 49.77 45.4435 51.15 44.9835 52.79C44.5235 54.43 44.0335 56.22 43.5135 58.16C45.3535 57.86 47.1935 57.54 49.0335 57.2C50.8735 56.86 52.4535 56.55 53.7735 56.27C54.1535 56.11 54.4435 56.14 54.6435 56.36C54.8635 56.58 54.9735 56.8 54.9735 57.02C54.9735 57.3 54.8935 57.51 54.7335 57.65C54.5935 57.79 54.4435 57.91 54.2835 58.01L54.2535 58.04C53.8535 58.2 53.2535 58.39 52.4535 58.61C51.6535 58.81 50.7335 59.03 49.6935 59.27C48.6535 59.49 47.5435 59.71 46.3635 59.93C45.2035 60.15 44.0535 60.35 42.9135 60.53C42.4535 62.29 41.9835 64.1 41.5035 65.96C41.0435 67.8 40.5835 69.61 40.1235 71.39C39.9235 72.11 39.6935 72.56 39.4335 72.74C39.1935 72.94 38.9335 73.04 38.6535 73.04C38.3335 73.04 38.0535 72.92 37.8135 72.68C37.5935 72.44 37.5635 71.95 37.7235 71.21L39.9135 60.98C38.7135 61.16 37.6535 61.29 36.7335 61.37C35.8335 61.45 35.2035 61.46 34.8435 61.4ZM52.093 71.15C51.713 71.15 51.373 71.01 51.073 70.73C50.773 70.43 50.623 69.97 50.623 69.35C50.623 68.91 50.683 68.3 50.803 67.52C50.923 66.72 51.083 65.85 51.283 64.91C51.483 63.97 51.693 63.04 51.913 62.12C52.153 61.18 52.393 60.34 52.633 59.6C52.873 58.86 53.083 58.31 53.263 57.95C53.423 57.67 53.573 57.49 53.713 57.41C53.873 57.33 54.023 57.29 54.163 57.29C54.443 57.29 54.683 57.38 54.883 57.56C55.103 57.74 55.213 58.09 55.213 58.61C55.213 58.91 55.153 59.41 55.033 60.11C54.933 60.79 54.793 61.59 54.613 62.51C54.453 63.41 54.273 64.34 54.073 65.3C53.893 66.24 53.713 67.14 53.533 68C53.353 68.86 53.213 69.58 53.113 70.16C53.033 70.48 52.893 70.73 52.693 70.91C52.513 71.07 52.313 71.15 52.093 71.15ZM55.033 54.56C54.573 54.56 54.133 54.42 53.713 54.14C53.313 53.86 53.113 53.41 53.113 52.79C53.113 52.27 53.233 51.85 53.473 51.53C53.733 51.21 54.033 50.98 54.373 50.84C54.733 50.68 55.043 50.6 55.303 50.6C55.563 50.6 55.853 50.66 56.173 50.78C56.513 50.88 56.803 51.08 57.043 51.38C57.283 51.66 57.403 52.08 57.403 52.64C57.403 53.02 57.273 53.36 57.013 53.66C56.753 53.94 56.433 54.16 56.053 54.32C55.693 54.48 55.353 54.56 55.033 54.56ZM61.8986 73.67C61.5586 73.67 61.2886 73.55 61.0886 73.31C60.8886 73.07 60.7886 72.67 60.7886 72.11C60.7886 71.11 60.8386 70.08 60.9386 69.02C61.0586 67.94 61.1186 66.94 61.1186 66.02C61.1186 63.92 60.9286 62.19 60.5486 60.83C60.1886 59.45 59.3986 58.52 58.1786 58.04C57.8986 57.94 57.6986 57.83 57.5786 57.71C57.4386 57.59 57.3686 57.4 57.3686 57.14C57.3686 56.86 57.4786 56.63 57.6986 56.45C57.8986 56.27 58.2786 56.18 58.8386 56.18C59.2986 56.18 59.9086 56.2 60.6686 56.24C61.4286 56.28 62.2486 56.32 63.1286 56.36C63.7486 54.14 64.4486 52.3 65.2286 50.84C66.0086 49.38 66.8586 48.23 67.7786 47.39C68.7186 46.55 69.7086 45.95 70.7486 45.59C71.8086 45.23 72.9086 45.05 74.0486 45.05C74.5486 45.05 74.8686 45.12 75.0086 45.26C75.1486 45.38 75.2186 45.57 75.2186 45.83C75.2186 46.15 75.1186 46.49 74.9186 46.85C74.7186 47.19 74.3086 47.41 73.6886 47.51C72.3286 47.75 71.1186 48.19 70.0586 48.83C68.9986 49.47 68.0786 50.4 67.2986 51.62C66.5186 52.82 65.8686 54.4 65.3486 56.36C67.2686 56.32 68.9186 56.22 70.2986 56.06C71.6786 55.88 72.8286 55.69 73.7486 55.49C74.6886 55.27 75.4386 55.09 75.9986 54.95C76.5586 54.79 76.9886 54.71 77.2886 54.71C77.6286 54.71 77.8386 54.8 77.9186 54.98C77.9986 55.16 78.0386 55.35 78.0386 55.55C78.0386 55.93 77.6786 56.3 76.9586 56.66C76.2386 57 75.2886 57.31 74.1086 57.59C72.9486 57.85 71.6686 58.06 70.2686 58.22C68.8686 58.38 67.4886 58.46 66.1286 58.46C65.9086 58.46 65.6886 58.46 65.4686 58.46C65.2686 58.46 65.0586 58.46 64.8386 58.46C64.7986 58.6 64.7686 58.75 64.7486 58.91C64.5486 60.07 64.3486 61.3 64.1486 62.6C63.9686 63.88 63.7986 65.14 63.6386 66.38C63.4986 67.6 63.3886 68.71 63.3086 69.71C63.2286 70.71 63.1886 71.51 63.1886 72.11C63.1886 72.61 63.0686 72.99 62.8286 73.25C62.5886 73.53 62.2786 73.67 61.8986 73.67ZM62.6186 58.34C62.0386 58.28 61.4986 58.2 60.9986 58.1C61.2586 58.4 61.4786 58.75 61.6586 59.15C61.8586 59.55 62.0286 59.98 62.1686 60.44C62.3086 59.7 62.4586 59 62.6186 58.34ZM74.9153 69.15C74.5353 69.15 74.1953 69.01 73.8953 68.73C73.5953 68.43 73.4453 67.97 73.4453 67.35C73.4453 66.91 73.5053 66.3 73.6253 65.52C73.7453 64.72 73.9053 63.85 74.1053 62.91C74.3053 61.97 74.5153 61.04 74.7353 60.12C74.9753 59.18 75.2153 58.34 75.4553 57.6C75.6953 56.86 75.9053 56.31 76.0853 55.95C76.2453 55.67 76.3953 55.49 76.5353 55.41C76.6953 55.33 76.8453 55.29 76.9853 55.29C77.2653 55.29 77.5053 55.38 77.7053 55.56C77.9253 55.74 78.0353 56.09 78.0353 56.61C78.0353 56.91 77.9753 57.41 77.8553 58.11C77.7553 58.79 77.6153 59.59 77.4353 60.51C77.2753 61.41 77.0953 62.34 76.8953 63.3C76.7153 64.24 76.5353 65.14 76.3553 66C76.1753 66.86 76.0353 67.58 75.9353 68.16C75.8553 68.48 75.7153 68.73 75.5153 68.91C75.3353 69.07 75.1353 69.15 74.9153 69.15ZM77.8553 52.56C77.3953 52.56 76.9553 52.42 76.5353 52.14C76.1353 51.86 75.9353 51.41 75.9353 50.79C75.9353 50.27 76.0553 49.85 76.2953 49.53C76.5553 49.21 76.8553 48.98 77.1953 48.84C77.5553 48.68 77.8653 48.6 78.1253 48.6C78.3853 48.6 78.6753 48.66 78.9953 48.78C79.3353 48.88 79.6253 49.08 79.8653 49.38C80.1053 49.66 80.2253 50.08 80.2253 50.64C80.2253 51.02 80.0953 51.36 79.8353 51.66C79.5753 51.94 79.2553 52.16 78.8753 52.32C78.5153 52.48 78.1753 52.56 77.8553 52.56ZM86.9273 71.42C85.9473 71.42 85.0973 71.2 84.3773 70.76C83.6773 70.3 83.1373 69.71 82.7573 68.99C82.3773 68.27 82.1873 67.53 82.1873 66.77C82.1873 65.17 82.4673 63.71 83.0273 62.39C83.5873 61.05 84.2873 59.87 85.1273 58.85C85.9873 57.81 86.8673 56.93 87.7673 56.21C88.6873 55.49 89.5173 54.95 90.2573 54.59C91.0173 54.21 91.5573 54.02 91.8773 54.02C92.5173 54.02 92.8373 54.34 92.8373 54.98C92.8373 55.28 92.6373 55.63 92.2373 56.03C91.8373 56.41 91.3273 56.86 90.7073 57.38C90.0873 57.9 89.4273 58.49 88.7273 59.15C88.0273 59.79 87.3673 60.52 86.7473 61.34C86.1273 62.14 85.6173 63.04 85.2173 64.04C84.8173 65.02 84.6173 66.1 84.6173 67.28C84.6173 68.48 85.1073 69.08 86.0873 69.08C86.9873 69.08 87.9073 68.91 88.8473 68.57C89.8073 68.23 90.7473 67.79 91.6673 67.25C92.6073 66.69 93.5073 66.11 94.3673 65.51C95.2273 64.91 96.0073 64.34 96.7073 63.8C97.4073 63.24 97.9973 62.79 98.4773 62.45C98.9573 62.11 99.2973 61.94 99.4973 61.94C99.8973 61.94 100.097 62.16 100.097 62.6C100.097 62.94 99.8673 63.39 99.4073 63.95C98.9473 64.51 98.3273 65.12 97.5473 65.78C96.7673 66.44 95.8973 67.11 94.9373 67.79C93.9773 68.45 93.0073 69.06 92.0273 69.62C91.0473 70.16 90.1073 70.6 89.2073 70.94C88.3273 71.26 87.5673 71.42 86.9273 71.42ZM99.9055 71.15C99.5255 71.15 99.1855 71.01 98.8855 70.73C98.5855 70.43 98.4355 69.97 98.4355 69.35C98.4355 68.91 98.4955 68.3 98.6155 67.52C98.7355 66.72 98.8955 65.85 99.0955 64.91C99.2955 63.97 99.5055 63.04 99.7255 62.12C99.9655 61.18 100.206 60.34 100.446 59.6C100.686 58.86 100.896 58.31 101.076 57.95C101.236 57.67 101.386 57.49 101.526 57.41C101.686 57.33 101.836 57.29 101.976 57.29C102.256 57.29 102.496 57.38 102.696 57.56C102.916 57.74 103.026 58.09 103.026 58.61C103.026 58.91 102.966 59.41 102.846 60.11C102.746 60.79 102.606 61.59 102.426 62.51C102.266 63.41 102.086 64.34 101.886 65.3C101.706 66.24 101.526 67.14 101.346 68C101.166 68.86 101.026 69.58 100.926 70.16C100.846 70.48 100.706 70.73 100.506 70.91C100.326 71.07 100.126 71.15 99.9055 71.15ZM102.846 54.56C102.386 54.56 101.946 54.42 101.526 54.14C101.126 53.86 100.926 53.41 100.926 52.79C100.926 52.27 101.046 51.85 101.286 51.53C101.546 51.21 101.846 50.98 102.186 50.84C102.546 50.68 102.856 50.6 103.116 50.6C103.376 50.6 103.666 50.66 103.986 50.78C104.326 50.88 104.616 51.08 104.856 51.38C105.096 51.66 105.216 52.08 105.216 52.64C105.216 53.02 105.086 53.36 104.826 53.66C104.566 53.94 104.246 54.16 103.866 54.32C103.506 54.48 103.166 54.56 102.846 54.56ZM108.577 71.78C107.817 71.78 107.187 71.43 106.687 70.73C106.207 70.01 105.967 69.08 105.967 67.94C105.967 66.88 106.227 65.83 106.747 64.79C107.287 63.75 107.997 62.75 108.877 61.79C109.757 60.83 110.717 59.95 111.757 59.15C112.797 58.33 113.837 57.62 114.877 57.02C115.937 56.42 116.907 55.95 117.787 55.61C118.667 55.27 119.367 55.1 119.887 55.1C120.167 55.1 120.397 55.16 120.577 55.28C120.757 55.38 120.847 55.57 120.847 55.85C120.847 56.03 120.777 56.2 120.637 56.36C120.657 56.36 120.677 56.36 120.697 56.36C121.137 56.36 121.357 56.62 121.357 57.14C121.357 57.32 121.287 57.69 121.147 58.25C121.007 58.79 120.847 59.47 120.667 60.29C120.487 61.11 120.327 62.02 120.187 63.02C120.047 64 119.977 65 119.977 66.02C119.977 66.88 120.307 67.31 120.967 67.31C121.707 67.31 122.457 67.14 123.217 66.8C123.977 66.46 124.717 66.05 125.437 65.57C126.157 65.07 126.817 64.58 127.417 64.1C128.017 63.6 128.527 63.18 128.947 62.84C129.367 62.5 129.667 62.33 129.847 62.33C130.007 62.33 130.147 62.38 130.267 62.48C130.387 62.58 130.447 62.74 130.447 62.96C130.447 63.16 130.247 63.52 129.847 64.04C129.447 64.56 128.917 65.15 128.257 65.81C127.597 66.47 126.857 67.11 126.037 67.73C125.217 68.35 124.377 68.86 123.517 69.26C122.657 69.66 121.837 69.86 121.057 69.86C120.457 69.86 119.907 69.68 119.407 69.32C118.927 68.94 118.537 68.3 118.237 67.4C117.957 66.5 117.817 65.26 117.817 63.68V62.93C116.837 64.55 115.807 66.03 114.727 67.37C113.667 68.71 112.607 69.78 111.547 70.58C110.507 71.38 109.517 71.78 108.577 71.78ZM119.317 57.26C119.217 57.3 119.077 57.36 118.897 57.44C117.977 57.86 117.017 58.38 116.017 59C115.037 59.62 114.077 60.31 113.137 61.07C112.217 61.83 111.387 62.62 110.647 63.44C109.907 64.26 109.317 65.09 108.877 65.93C108.437 66.77 108.217 67.59 108.217 68.39C108.217 68.65 108.267 68.85 108.367 68.99C108.487 69.13 108.687 69.2 108.967 69.2C109.367 69.2 109.887 68.95 110.527 68.45C111.167 67.93 111.867 67.25 112.627 66.41C113.407 65.57 114.187 64.64 114.967 63.62C115.747 62.6 116.487 61.57 117.187 60.53C117.907 59.49 118.527 58.53 119.047 57.65C119.127 57.51 119.217 57.38 119.317 57.26ZM134.06 72.2C132.52 72.2 131.31 71.7 130.43 70.7C129.57 69.68 129.14 68.26 129.14 66.44C129.14 65.32 129.29 64.01 129.59 62.51C129.91 60.99 130.31 59.39 130.79 57.71C131.29 56.01 131.83 54.33 132.41 52.67C132.99 51.01 133.55 49.47 134.09 48.05C134.65 46.61 135.14 45.41 135.56 44.45C135.8 43.91 136.14 43.64 136.58 43.64C137.18 43.64 137.48 44.01 137.48 44.75C137.48 44.99 137.37 45.48 137.15 46.22C136.93 46.96 136.64 47.88 136.28 48.98C135.92 50.06 135.53 51.26 135.11 52.58C134.69 53.9 134.26 55.26 133.82 56.66C133.4 58.04 133.01 59.41 132.65 60.77C132.29 62.11 132 63.37 131.78 64.55C131.56 65.73 131.45 66.74 131.45 67.58C131.45 68.12 131.59 68.55 131.87 68.87C132.17 69.17 132.57 69.32 133.07 69.32C133.99 69.32 134.91 69.14 135.83 68.78C136.77 68.4 137.67 67.94 138.53 67.4C139.39 66.84 140.17 66.29 140.87 65.75C141.59 65.19 142.2 64.73 142.7 64.37C143.2 63.99 143.55 63.8 143.75 63.8C144.19 63.8 144.41 64.04 144.41 64.52C144.41 64.68 144.25 64.98 143.93 65.42C143.61 65.84 143.18 66.34 142.64 66.92C142.1 67.5 141.47 68.1 140.75 68.72C140.05 69.32 139.31 69.89 138.53 70.43C137.77 70.95 137 71.37 136.22 71.69C135.46 72.03 134.74 72.2 134.06 72.2ZM147.2 71.66C146.76 71.66 146.42 71.53 146.18 71.27C145.96 71.03 145.85 70.75 145.85 70.43C145.85 70.15 145.97 69.89 146.21 69.65C146.47 69.39 146.82 69.16 147.26 68.96C148.06 68.54 148.81 68.12 149.51 67.7C150.23 67.28 150.81 66.83 151.25 66.35C151.69 65.87 151.91 65.36 151.91 64.82C151.91 64.36 151.76 64.01 151.46 63.77C151.16 63.51 150.75 63.38 150.23 63.38C149.93 63.38 149.51 63.44 148.97 63.56C148.43 63.66 147.84 63.78 147.2 63.92C146.58 64.04 145.97 64.16 145.37 64.28C144.77 64.38 144.26 64.43 143.84 64.43C143.08 64.43 142.51 64.25 142.13 63.89C141.75 63.51 141.56 63 141.56 62.36C141.56 62.04 141.75 61.56 142.13 60.92C142.51 60.28 143.01 59.57 143.63 58.79C144.27 57.99 144.97 57.19 145.73 56.39C146.49 55.59 147.26 54.85 148.04 54.17C148.84 53.49 149.58 52.94 150.26 52.52C150.96 52.1 151.54 51.89 152 51.89C152.46 51.89 152.81 52.04 153.05 52.34C153.29 52.64 153.41 53.02 153.41 53.48C153.41 53.84 153.35 54.15 153.23 54.41C153.11 54.65 152.86 54.84 152.48 54.98C152.12 55.12 151.56 55.2 150.8 55.22C150.02 55.84 149.19 56.55 148.31 57.35C147.45 58.13 146.66 58.94 145.94 59.78C145.24 60.6 144.73 61.39 144.41 62.15C145.07 61.93 145.87 61.74 146.81 61.58C147.77 61.4 148.74 61.31 149.72 61.31C151.26 61.31 152.4 61.66 153.14 62.36C153.9 63.04 154.28 63.94 154.28 65.06C154.28 65.78 154.05 66.53 153.59 67.31C153.15 68.07 152.57 68.78 151.85 69.44C151.13 70.1 150.36 70.63 149.54 71.03C148.72 71.45 147.94 71.66 147.2 71.66Z" fill="#473838"/>
</svg>
