<svg width="27" height="24" viewBox="0 0 27 24" fill="none" xmlns="http://www.w3.org/2000/svg">
<path fill-rule="evenodd" clip-rule="evenodd" d="M9.18984 5.23369C9.45938 5.13842 9.75573 5.1541 10.0137 5.2773C10.2717 5.40049 10.4702 5.62111 10.5655 5.89062C10.7884 6.52174 11.2016 7.0682 11.748 7.45472C12.2944 7.84124 12.9473 8.0488 13.6166 8.0488C14.2859 8.0488 14.9388 7.84124 15.4852 7.45472C16.0317 7.0682 16.4448 6.52174 16.6677 5.89062C16.7132 5.75498 16.7852 5.62974 16.8796 5.52221C16.974 5.41468 17.0888 5.327 17.2174 5.2643C17.346 5.20159 17.4858 5.1651 17.6286 5.15697C17.7714 5.14883 17.9145 5.1692 18.0493 5.2169C18.1842 5.26459 18.3083 5.33866 18.4142 5.43478C18.5202 5.53089 18.606 5.64714 18.6666 5.77674C18.7272 5.90635 18.7614 6.04672 18.7672 6.18967C18.773 6.33262 18.7502 6.47529 18.7003 6.60938C18.3287 7.66068 17.6402 8.5709 16.7298 9.21469C15.8193 9.85848 14.7317 10.2042 13.6166 10.2042C12.5016 10.2042 11.4139 9.85848 10.5035 9.21469C9.59303 8.5709 8.90457 7.66068 8.5329 6.60938C8.43763 6.33983 8.45332 6.04348 8.57651 5.7855C8.69971 5.52752 8.92032 5.32903 9.18984 5.23369ZM14.1348 2.65625H13.097C10.761 2.65625 9.20565 2.66056 8.0269 2.80575C6.90853 2.94375 6.39246 3.18381 6.03021 3.48425C5.66796 3.78613 5.33734 4.24756 4.99521 5.32137C4.63584 6.45269 4.34546 7.98075 3.91421 10.2779C3.31046 13.4979 2.90509 15.6843 2.83321 17.3317C2.76421 18.9201 3.03015 19.5958 3.4039 20.0457C3.77765 20.4956 4.39146 20.8809 5.96553 21.1051C7.59709 21.338 9.82234 21.3438 13.0984 21.3438H14.1334C17.4109 21.3438 19.6347 21.338 21.2663 21.1051C22.8403 20.8809 23.4542 20.4956 23.8279 20.0457C24.2017 19.5943 24.4676 18.9201 24.3986 17.3317C24.3267 15.6843 23.9213 13.4979 23.3176 10.2779C22.8863 7.98075 22.5974 6.45412 22.2366 5.32137C21.8945 4.24756 21.5638 3.78469 21.2016 3.48425C20.8393 3.18381 20.3247 2.94375 19.2049 2.80575C18.0262 2.66056 16.4708 2.65625 14.1348 2.65625ZM4.65309 1.82537C3.05746 3.15075 2.63628 5.39469 1.79534 9.88113C0.612276 16.1903 0.0200262 19.3442 1.74503 21.4228C3.47003 23.5 6.67853 23.5 13.097 23.5H14.1348C20.5533 23.5 23.7632 23.5 25.4882 21.4228C27.2132 19.3442 26.621 16.1903 25.4379 9.87969C24.597 5.39469 24.1758 3.15075 22.5787 1.82537C20.9831 0.5 18.6989 0.5 14.1348 0.5H13.097C8.5329 0.5 6.25015 0.5 4.65309 1.82537Z" fill="black"/>
</svg>
