<svg width="85" height="70" viewBox="0 0 85 70" fill="none" xmlns="http://www.w3.org/2000/svg">
<path fill-rule="evenodd" clip-rule="evenodd" d="M3.4681 0.456576C3.55743 0.61408 3.66842 0.680099 3.79215 0.649467C3.92827 0.615861 3.93626 0.694565 3.82105 0.933518C3.73341 1.11526 3.57928 1.25793 3.47847 1.25048C3.18736 1.2288 3.10175 1.57391 3.30267 1.95933C3.40432 2.15416 3.45266 2.38578 3.41007 2.47412C3.31474 2.67183 3.11963 2.59886 3.11754 2.36453C3.11666 2.26988 3.08386 2.31194 3.04456 2.45804C2.99385 2.64612 2.93417 2.68466 2.84028 2.58997C2.76725 2.51635 2.68049 2.51218 2.64749 2.58063C2.61448 2.64908 2.6526 2.73581 2.73234 2.7734C2.8287 2.819 2.80192 2.85065 2.65171 2.86834C2.45813 2.89102 2.44706 2.93493 2.57346 3.17813C2.65442 3.33386 2.81836 3.56557 2.93764 3.69287C3.06094 3.82448 3.09413 3.96246 3.01465 4.01252C2.91701 4.07403 2.86677 4.04075 2.84805 3.90226C2.82783 3.75127 2.79098 3.7554 2.69353 3.91976C2.62319 4.03848 2.53108 4.19266 2.48885 4.26224C2.44657 4.33193 2.3554 4.40861 2.28614 4.43247C1.96961 4.54198 2.09408 4.69951 2.61864 4.853C3.2307 5.03213 3.26207 5.08037 2.85779 5.22024C2.62008 5.30257 2.60565 5.33013 2.73365 5.45909C2.8132 5.53926 2.81523 5.66339 2.73812 5.73511C2.65982 5.80781 2.66746 5.89815 2.75525 5.93942C2.8766 5.9966 2.86057 6.02013 2.6852 6.0425C2.49094 6.0672 2.48732 6.0853 2.66095 6.16654C2.78853 6.22617 2.82229 6.34822 2.75183 6.49433C2.69005 6.62246 2.68162 6.83908 2.73304 6.9758C2.78447 7.11252 2.74293 7.39782 2.64078 7.60968C2.53857 7.82166 2.50353 8.01732 2.56297 8.04452C2.70712 8.11049 2.72539 8.94286 2.58468 9.03144C2.5236 9.06989 2.52317 9.12389 2.58353 9.15151C2.71521 9.21178 2.75939 10.6088 2.63762 10.8613C2.59041 10.9592 2.64368 11.1216 2.75597 11.2221C2.86819 11.3227 2.90916 11.4537 2.8468 11.5131C2.71834 11.6356 2.78552 12.53 2.94528 12.8249C3.03503 12.9904 3.00958 13.0341 2.77591 13.1148C2.42951 13.2347 2.30625 13.4699 2.57915 13.4902C2.9164 13.5153 3.08116 13.7766 2.94182 14.0655C2.86037 14.2345 2.91451 14.6231 3.08573 15.0993C3.2781 15.6341 3.31023 15.9147 3.19322 16.0373C3.06833 16.1679 3.08049 16.2162 3.24112 16.2282C3.45634 16.2441 3.45093 16.3751 3.2197 16.7494C3.15593 16.8527 3.17102 17.0052 3.25336 17.0882C3.34143 17.1769 3.33855 17.3729 3.24631 17.5642C3.14925 17.7655 3.15071 17.9173 3.25011 17.9628C3.33832 18.0032 3.43679 18.1326 3.46875 18.2504C3.50252 18.3748 3.68609 18.5168 3.9067 18.5891C4.22338 18.6929 4.25832 18.7396 4.11708 18.8709C4.02396 18.9575 4.00322 19.0091 4.071 18.9856C4.20786 18.9384 4.46991 19.4516 4.3917 19.6138C4.33317 19.7352 4.48363 20.1737 4.60249 20.2281C4.68966 20.268 4.82636 20.6804 5.05385 21.5901C5.13014 21.895 5.23773 22.1652 5.29297 22.1904C5.43689 22.2563 5.75764 23.1222 5.73833 23.3929C5.72936 23.5186 5.79667 23.6557 5.88803 23.6975C5.97927 23.7393 6.04757 23.8632 6.0398 23.9728C6.03191 24.0824 6.13203 24.2208 6.2623 24.2804C6.39247 24.34 6.46825 24.4525 6.43075 24.5302C6.39319 24.6081 6.44127 24.7896 6.53758 24.9335C6.6667 25.1262 6.66256 25.2124 6.52188 25.2611C6.41688 25.2974 6.30706 25.3809 6.2776 25.4467C6.24831 25.5125 6.32033 25.5024 6.43789 25.4241C6.7523 25.2145 6.85027 25.3093 7.1536 26.1157C7.30463 26.517 7.46865 26.8315 7.51816 26.8143C7.56767 26.7972 7.68176 26.8574 7.77185 26.9481C7.89671 27.0739 7.88822 27.1295 7.73627 27.1821C7.40848 27.2955 7.42397 27.4398 7.76244 27.424C8.01974 27.412 8.0878 27.4549 8.12884 27.6554C8.15655 27.7908 8.239 27.929 8.31207 27.9624C8.38513 27.9959 8.42053 28.0738 8.39072 28.1356C8.36091 28.1974 8.41519 28.284 8.51133 28.328C8.60839 28.3724 8.63794 28.5079 8.57773 28.6328C8.51644 28.7599 8.54707 28.8932 8.64822 28.9394C8.74669 28.9845 8.91042 29.1518 9.01218 29.3113C9.11394 29.4707 9.3325 29.6768 9.49788 29.7692C9.67356 29.8675 9.78564 30.0339 9.76755 30.1697C9.75047 30.2974 9.79921 30.3952 9.87554 30.387C9.95205 30.3788 10.0932 30.5042 10.1894 30.6658C10.2854 30.8273 10.4573 31.0021 10.5713 31.0543C10.6851 31.1064 10.7444 31.2195 10.7029 31.3056C10.6034 31.512 10.8525 31.752 11.2447 31.8277C11.4261 31.8627 11.5359 31.938 11.5037 32.0048C11.4395 32.138 11.9266 32.7721 12.1832 32.8896C12.3292 32.9564 12.3176 32.9846 12.1044 33.0814C11.8755 33.1853 11.8832 33.1917 12.1968 33.1579C12.4786 33.1275 12.5432 33.1549 12.5632 33.3134C12.5766 33.4193 12.7202 33.5848 12.8825 33.6811C13.0448 33.7775 13.2305 33.9761 13.2951 34.1224C13.3597 34.2687 13.588 34.4895 13.8022 34.6131C14.0164 34.7367 14.2484 34.9671 14.3176 35.1254C14.3869 35.2836 14.5232 35.4189 14.6206 35.4261C14.7179 35.4333 14.8057 35.5053 14.8155 35.5861C14.8255 35.6669 15.0649 35.8808 15.3474 36.0615C15.6302 36.2422 15.9133 36.5035 15.9765 36.6423C16.0399 36.7811 16.1926 36.9289 16.316 36.9708C16.7088 37.1044 16.821 37.2025 16.7499 37.35C16.7025 37.4483 16.8409 37.5568 17.1874 37.6932C17.4661 37.8029 17.7702 38.0117 17.8631 38.1573C17.9559 38.3028 18.1508 38.4975 18.2962 38.5898C18.4415 38.6822 18.5877 38.8629 18.6211 38.9913C18.6582 39.1341 18.7077 39.1748 18.7485 39.0959C18.8135 38.9702 19.0071 39.1089 19.6504 39.7423C19.7566 39.8467 20.0744 40.0418 20.3567 40.176C20.7011 40.3395 20.8758 40.4945 20.8876 40.6473C20.9017 40.8287 20.953 40.8632 21.14 40.8171C21.314 40.7739 21.4262 40.8213 21.5737 40.9999C21.6832 41.1325 21.9398 41.3591 22.144 41.5035C22.3482 41.6479 22.5529 41.8207 22.599 41.8873C22.7089 42.0464 22.8304 42.1237 23.9601 42.7521C24.4844 43.0439 24.9225 43.3446 24.9337 43.4203C24.9448 43.4961 25.2626 43.6998 25.64 43.873C26.0174 44.0462 26.7792 44.5094 27.3331 44.9021C27.8869 45.295 28.7869 45.818 29.3332 46.0643C29.8794 46.3106 30.6143 46.7115 30.9662 46.955C31.567 47.3705 32.7193 47.8801 32.9922 47.8507C33.0596 47.8434 33.1634 47.9096 33.2229 47.9976C33.2825 48.0857 33.5394 48.203 33.7939 48.2582C34.0484 48.3135 34.2907 48.4093 34.3325 48.4711C34.3743 48.5329 34.6177 48.6915 34.8734 48.8233C35.1291 48.9553 35.3305 49.1301 35.3209 49.2117C35.3089 49.3136 35.39 49.3583 35.5803 49.3544C35.7327 49.3515 35.9778 49.347 36.125 49.3445C36.2751 49.342 36.5555 49.4629 36.7636 49.6199C36.9937 49.7935 37.2015 49.8766 37.3111 49.8387C37.433 49.7965 37.5202 49.8438 37.5919 49.9906C37.6667 50.1441 37.7349 50.1791 37.8355 50.1158C37.9178 50.064 38.2904 50.1795 38.7436 50.3976C39.1662 50.6009 39.7278 50.8236 39.9915 50.8923C40.3599 50.9883 40.5015 51.0876 40.603 51.3205C40.6755 51.4873 40.761 51.5695 40.793 51.5032C40.8249 51.437 40.7999 51.3228 40.7375 51.2495C40.675 51.1762 40.8039 51.225 41.024 51.358C41.2441 51.4909 41.4998 51.5735 41.5921 51.5415C41.6845 51.5096 41.9455 51.5362 42.172 51.6007C42.3985 51.6651 42.7448 51.7279 42.9418 51.7401C43.4559 51.7719 44.1104 52.0253 44.2942 52.2638C44.3879 52.3851 44.4729 52.4266 44.5024 52.3654C44.5432 52.2807 45.355 52.4379 45.8684 52.63C45.9347 52.6547 46.0569 52.6672 46.1398 52.6577C46.223 52.6481 46.5582 52.7801 46.885 52.951C47.2723 53.1535 47.4728 53.2094 47.4607 53.1114C47.4492 53.0175 47.5252 53.0282 47.663 53.1395C47.7843 53.2375 47.936 53.2848 48 53.2445C48.0641 53.2041 48.1486 53.2188 48.188 53.277C48.2273 53.3352 48.3125 53.3495 48.3772 53.3089C48.4417 53.2682 48.918 53.385 49.4353 53.5686C49.9526 53.7521 50.4673 53.8812 50.5792 53.8555C50.7869 53.8076 51.1514 53.8999 51.8495 54.1771C52.0658 54.2629 52.2902 54.3032 52.3482 54.2666C52.4062 54.2301 52.6236 54.278 52.8314 54.3731C53.0392 54.4682 53.3045 54.5129 53.4211 54.4725C53.5898 54.4142 53.639 54.4435 53.6621 54.6171C53.6781 54.7371 53.7185 54.7804 53.752 54.7136C53.8516 54.5145 54.4262 54.5788 54.6332 54.8121C54.8361 55.0407 55.8173 55.1548 55.9109 54.9608C55.9399 54.9007 56.1036 54.9535 56.2798 55.08C56.4603 55.2094 56.6943 55.283 56.8235 55.251C56.9981 55.2079 57.0467 55.2341 57.0338 55.3644C57.0223 55.4795 57.1647 55.4781 57.4764 55.3601C57.8188 55.2303 57.9714 55.2343 58.0765 55.3758C58.2047 55.5486 58.3776 55.5951 59.2565 55.6925C59.3679 55.7048 59.5969 55.7609 59.7654 55.817C59.9339 55.8732 60.2678 55.9658 60.5073 56.0229C60.8419 56.1026 60.955 56.1865 60.9956 56.3851C61.0442 56.6221 61.0656 56.6255 61.2557 56.4264C61.4854 56.1859 61.6854 56.1091 62.1752 56.0736C62.4519 56.0537 62.5022 56.0822 62.4902 56.252C62.4714 56.5147 62.6597 56.5996 62.767 56.3771C62.8338 56.2386 62.8852 56.2499 63.0276 56.4344C63.1686 56.6174 63.2964 56.6487 63.6514 56.5875C63.897 56.5453 64.2802 56.5942 64.5033 56.6963C64.8107 56.837 64.9496 56.8342 65.078 56.6849C65.2554 56.4787 65.546 56.5139 65.4422 56.7291C65.4092 56.7975 65.471 56.8601 65.5793 56.8681C65.6878 56.8762 65.7728 56.9548 65.7683 57.0428C65.764 57.1309 65.8099 57.1105 65.8704 56.9977C65.9578 56.8352 66.0462 56.8347 66.2951 56.9947C66.5239 57.1417 66.613 57.149 66.6222 57.0211C66.6306 56.9034 66.6856 56.8966 66.789 57.0009C66.8938 57.1065 66.973 57.0945 67.0361 56.9636C67.0964 56.8385 67.1793 56.8217 67.2726 56.9157C67.3516 56.9952 67.4387 57.0137 67.4662 56.9566C67.4937 56.8995 67.7165 56.9037 67.9611 56.966C68.2057 57.0283 68.4513 57.0506 68.5068 57.0157C68.5624 56.9808 68.8431 57.0165 69.1308 57.0951C69.4184 57.1736 69.8058 57.1912 69.9916 57.1341C70.1773 57.0769 70.4505 57.0856 70.5987 57.1534C70.7468 57.2212 70.8924 57.2261 70.9222 57.1643C70.952 57.1025 71.0551 57.0879 71.1512 57.1319C71.2473 57.1759 71.3037 57.2581 71.2765 57.3145C71.2493 57.371 71.4114 57.4318 71.6372 57.4498C71.8628 57.4678 72.0666 57.4275 72.0902 57.3604C72.199 57.0505 72.3025 56.9868 72.4521 57.1374C72.5592 57.2454 72.6045 57.2423 72.5905 57.1279C72.5773 57.0202 72.6531 56.996 72.7971 57.062C72.9223 57.1192 73.0877 57.1075 73.1646 57.0359C73.2417 56.9643 73.6219 56.9802 74.0095 57.0711C74.5176 57.1905 74.764 57.1847 74.8921 57.0505C75.0801 56.8536 75.8795 56.7683 75.991 56.9332C76.0661 57.0443 76.6325 56.827 76.7152 56.6553C76.7453 56.593 76.9237 56.5442 77.1119 56.547C77.3149 56.55 77.459 56.4771 77.4669 56.3677C77.4856 56.1046 77.8825 55.9593 78.1934 56.1016C78.339 56.1682 78.5246 56.1609 78.6058 56.0854C78.7597 55.9424 79.2394 56.1474 79.2858 56.3761C79.3004 56.4474 79.3751 56.4661 79.4519 56.4178C79.5287 56.3694 79.536 56.3044 79.4682 56.2734C79.4004 56.2424 79.384 56.1357 79.4319 56.0363C79.4888 55.9183 79.4441 55.8501 79.3031 55.8396C79.1843 55.8308 79.0189 55.7352 78.9356 55.6271C78.8494 55.5155 78.6938 55.4403 78.5751 55.4531C78.4563 55.4658 78.3006 55.3904 78.2141 55.2782C78.1216 55.1584 77.9329 55.0711 77.7329 55.0556C77.3387 55.0251 77.0415 54.6907 77.3714 54.6488C77.4901 54.6337 77.3163 54.5223 76.9395 54.372C76.5927 54.2337 76.2639 54.1664 76.2087 54.2224C76.1537 54.2784 76.0343 54.2903 75.9435 54.2487C75.8526 54.2071 75.7418 54.249 75.6971 54.3418C75.6346 54.4712 75.4669 54.4422 74.9749 54.217C74.4428 53.9735 74.3497 53.8902 74.427 53.7262C74.4795 53.6147 74.4593 53.5606 74.3803 53.6019C74.3034 53.6422 74.0916 53.713 73.9098 53.7591C73.6114 53.8348 73.5543 53.8118 73.3261 53.5237C73.1002 53.2385 73.0421 53.2135 72.7822 53.2895C72.5427 53.3595 72.4217 53.3169 72.1012 53.0498C71.534 52.5773 71.3038 52.5022 71.1105 52.7268C70.979 52.8798 70.8898 52.8815 70.729 52.7345C70.6136 52.6289 70.4248 52.506 70.3094 52.4614C70.1939 52.417 70.1345 52.3077 70.1774 52.2188C70.278 52.0102 70.1688 51.9652 69.814 52.0688C69.6574 52.1146 69.3972 52.1073 69.2356 52.0527C69.0741 51.9982 68.8604 51.9623 68.7608 51.973C68.642 51.9858 68.6174 51.914 68.6895 51.7645C68.7647 51.6085 68.7346 51.5319 68.5942 51.5214C68.4813 51.5131 68.3961 51.5647 68.4049 51.6364C68.4137 51.7079 68.1836 51.6579 67.8937 51.5252C67.4858 51.3385 67.3628 51.2202 67.3502 51.0021C67.3309 50.6695 67.0789 50.5182 66.869 50.7132C66.7738 50.8017 66.7909 50.8872 66.9166 50.9517C67.0245 51.007 67.0427 51.0486 66.9571 51.0443C66.8716 51.0399 66.6118 50.8577 66.3796 50.6394C66.1474 50.421 65.9024 50.2483 65.8349 50.2555C65.7675 50.2628 65.7473 50.1961 65.7902 50.1072C65.833 50.0184 65.8168 49.8408 65.7543 49.7126C65.6604 49.5201 65.6776 49.4713 65.8537 49.4327C65.971 49.4069 66.2553 49.2441 66.4856 49.071C66.915 48.7481 67.2417 48.6903 67.3908 48.9108C67.4438 48.9891 67.399 49.0446 67.2706 49.0599C67.104 49.0796 67.0984 49.0995 67.2408 49.1664C67.3372 49.2116 67.5303 49.1774 67.6699 49.0904C67.8096 49.0034 68.0085 48.971 68.112 49.0183C68.2601 49.0861 68.2551 49.1247 68.0884 49.2C67.9488 49.2629 67.9114 49.3277 67.9785 49.3898C68.1748 49.5715 69.2852 49.9391 69.3337 49.8385C69.3605 49.7828 69.3002 49.6993 69.1995 49.6532C69.035 49.5779 69.043 49.5602 69.2781 49.4789C69.4923 49.4047 69.5694 49.4328 69.7036 49.6333C69.84 49.8369 69.9225 49.8622 70.1931 49.7832C70.5047 49.692 70.5193 49.6987 70.538 49.9406C70.5543 50.1509 70.5995 50.1828 70.8083 50.1312C70.9464 50.0971 71.0971 50.1252 71.1435 50.1937C71.1898 50.2622 71.4171 50.3119 71.6484 50.3043C71.9665 50.2938 72.152 50.3606 72.4088 50.5781C72.8295 50.9346 72.7939 50.9224 72.8824 50.739C72.9657 50.5661 74.0576 50.8537 74.3193 51.1174C74.4316 51.2305 74.4802 51.2191 74.4902 51.0776C74.5003 50.936 74.609 50.9107 74.8724 50.9887C75.1398 51.0677 75.2049 51.1306 75.1107 51.2181C75.024 51.2986 75.082 51.3849 75.2848 51.4777C75.4519 51.5542 75.6144 51.5631 75.6459 51.4977C75.6775 51.4323 75.7461 51.4419 75.7984 51.5193C75.8644 51.6168 75.9201 51.5575 75.9804 51.326L76.0674 50.9921L76.7053 51.3286C77.2752 51.6293 77.3355 51.697 77.2705 51.9636C77.1503 52.4569 77.4166 52.5456 77.6382 52.086C77.8544 51.6376 77.9318 51.6426 78.3928 52.1351C78.6705 52.4316 78.7146 52.4515 78.7264 52.2861C78.7358 52.1529 78.7864 52.1424 78.8942 52.251C78.9849 52.3423 79.0761 52.349 79.1156 52.2671C79.213 52.0652 80.0412 52.6108 80.2036 52.9838C80.2789 53.1568 80.3595 53.2275 80.3959 53.1521C80.4303 53.0807 80.3955 52.9934 80.3186 52.9583C80.217 52.9117 80.2302 52.8765 80.3662 52.8294C80.8441 52.6641 83.671 54.6836 83.7945 55.2783C83.8086 55.3465 83.8936 55.4493 83.9834 55.507C84.2123 55.6543 84.5609 56.4188 84.6324 56.9304C84.6655 57.1672 84.7373 57.4457 84.7921 57.5494C84.8688 57.6944 84.7944 57.8828 84.4714 58.363C84.0926 58.9262 84.0236 58.9755 83.7744 58.8615C83.5007 58.7362 83.2694 58.9385 82.9765 59.5593C82.9253 59.6679 82.7547 59.7627 82.5974 59.77C82.4401 59.7774 82.318 59.8382 82.3262 59.905C82.3343 59.9719 82.2329 60.0533 82.1006 60.0861C81.9683 60.1188 81.8265 60.2153 81.7855 60.3004C81.7444 60.3856 81.644 60.4247 81.5625 60.3874C81.4718 60.3459 81.3286 60.4804 81.1939 60.7332C80.8354 61.4064 80.7162 61.5258 80.2308 61.698C79.9116 61.8112 79.7533 61.9451 79.7183 62.1313C79.6905 62.2799 79.5232 62.4866 79.3457 62.5919C79.1686 62.697 78.9666 62.9015 78.8967 63.0465C78.8268 63.1914 78.6453 63.3728 78.4934 63.4498C78.3414 63.5267 78.1483 63.728 78.0643 63.8971C77.9663 64.0942 77.8489 64.1758 77.7368 64.1245C77.6406 64.0805 77.528 64.1149 77.4865 64.201C77.445 64.2871 77.314 64.3504 77.1955 64.3416C77.0531 64.331 76.9685 64.4127 76.9459 64.5827C76.922 64.7616 76.772 64.8882 76.452 64.9989C76.1949 65.0878 75.9089 65.3004 75.803 65.4813C75.6987 65.6593 75.4987 65.826 75.3583 65.8519C75.2179 65.878 75.0408 66.0281 74.9648 66.1858C74.8777 66.3664 74.6465 66.5184 74.3401 66.5963C74.0726 66.6643 73.8156 66.7991 73.769 66.8958C73.7223 66.9926 73.6055 67.0357 73.5093 66.9917C73.4123 66.9473 73.2864 67.0116 73.2262 67.1365C73.1665 67.2601 73.0722 67.3404 73.0166 67.315C72.8185 67.2243 72.3177 68.1439 72.409 68.4303C72.4858 68.6713 72.4596 68.7203 72.1574 68.8995C71.7766 69.1256 71.8088 69.2055 72.2231 69.0621C72.6885 68.9011 72.5911 69.1162 72.0614 69.419C71.786 69.5766 71.5389 69.7507 71.5122 69.8061C71.4855 69.8614 71.3875 69.808 71.2944 69.6872C71.2013 69.5665 71.0013 69.4266 70.85 69.3761C70.6207 69.2997 70.5939 69.2036 70.6896 68.798C70.7647 68.4793 70.8678 68.2898 70.9883 68.2487C71.1198 68.2039 71.1202 68.2345 70.9898 68.3564C70.8459 68.4908 70.8587 68.5385 71.0505 68.5818C71.1843 68.612 71.3093 68.5727 71.3285 68.4943C71.3476 68.416 71.4182 68.4071 71.4853 68.4747C71.5596 68.5496 71.6506 68.5076 71.7184 68.367C71.798 68.2017 71.76 68.1153 71.5842 68.062C71.3923 68.004 71.3514 67.8512 71.397 67.3613C71.4537 66.7513 71.4634 66.7337 71.7663 66.6838C71.9375 66.6558 72.0687 66.5621 72.0581 66.4757C72.0476 66.3894 72.1146 66.3534 72.207 66.3957C72.2995 66.438 72.4551 66.3796 72.553 66.2658C72.6509 66.152 72.7707 66.1179 72.8195 66.1901C72.8682 66.2622 72.9339 66.2675 72.9655 66.2021C72.997 66.1367 72.9765 66.0619 72.92 66.036C72.8633 66.0101 72.8383 65.8752 72.8644 65.7362C72.8906 65.5972 72.9594 65.5052 73.0175 65.5319C73.0756 65.5584 73.1719 65.479 73.2315 65.3554C73.2911 65.2317 73.3955 65.156 73.4633 65.1871C73.5311 65.2181 73.5787 65.1781 73.5689 65.0982C73.5591 65.0182 73.6066 64.9783 73.6745 65.0093C73.7423 65.0403 73.8534 64.9506 73.9213 64.8099C73.9892 64.669 74.1639 64.4865 74.3096 64.4045C74.4553 64.3223 74.793 64.0308 75.06 63.7569C75.327 63.483 75.5938 63.2809 75.6526 63.3078C75.7116 63.3348 75.8323 63.2066 75.9208 63.0231C76.1081 62.6345 77.3754 61.6421 77.6577 61.663C77.9118 61.6819 78.0266 61.4259 77.8457 61.2435C77.6259 61.022 77.8441 60.7165 78.4505 60.3965C78.7528 60.237 79.1161 59.9588 79.2576 59.7785C79.3993 59.598 79.567 59.4741 79.6304 59.5031C79.6936 59.5321 79.7606 59.442 79.7791 59.3029C79.8327 58.901 80.3248 58.3263 80.7936 58.1184C81.2489 57.9164 81.3894 57.5642 81.0726 57.4192C80.9723 57.3733 80.8408 57.2288 80.7804 57.098C80.7199 56.9671 80.4503 56.7194 80.1812 56.5474C79.8344 56.3257 79.7268 56.2912 79.8117 56.4287C79.9182 56.601 79.9058 56.6268 79.7003 56.6598C79.4947 56.6927 79.4894 56.7038 79.6525 56.7588C80.0134 56.8807 80.1133 56.9832 80.0332 57.1493C79.9885 57.2421 80.0011 57.3404 80.0611 57.3679C80.2147 57.4382 79.6671 58.1867 79.422 58.2416C79.3113 58.2664 79.0663 58.4666 78.8774 58.6863C78.5548 59.0619 77.8509 59.3748 77.5934 59.2569C77.5298 59.2278 77.4456 59.2665 77.4064 59.3428C77.3223 59.5064 76.7691 59.6225 76.3431 59.5659C76.1727 59.5432 75.9985 59.6168 75.9412 59.7356C75.8839 59.8544 75.7098 59.9279 75.5394 59.9052C75.1212 59.8497 74.5608 59.9637 74.4797 60.1208C74.4016 60.2721 73.8882 60.2472 73.4096 60.0691C73.2991 60.028 73.2272 60.0438 73.25 60.1042C73.2727 60.1647 73.0556 60.2814 72.7675 60.3636C72.1964 60.5263 71.8156 60.4493 72.0617 60.2207C72.1885 60.1028 72.1614 60.0827 71.8891 60.0937C71.7113 60.1009 71.5251 60.1252 71.4752 60.1476C71.1338 60.301 70.3349 60.3255 70.0421 60.1914C69.7086 60.0388 69.2272 59.9878 68.1529 59.9912C67.8564 59.992 67.4099 59.8663 66.9945 59.6648C66.3075 59.3316 66.109 59.3567 66.3714 59.7433C66.4978 59.9297 66.4803 59.937 66.2379 59.7991C65.9177 59.6169 65.3111 59.656 65.2102 59.8654C65.1727 59.9432 65.0876 59.982 65.0213 59.9517C64.9381 59.9136 64.9707 59.8461 65.1261 59.7343C65.4309 59.515 65.4982 59.3468 65.3147 59.2628C65.2303 59.2242 65.0106 59.3837 64.8223 59.6202C64.418 60.1282 64.0899 60.106 63.8624 59.5552C63.7089 59.1831 63.7084 59.1829 63.6583 59.4494C63.6201 59.6531 63.5549 59.6922 63.3838 59.6139C63.2604 59.5574 63.0218 59.5389 62.8536 59.5727C62.4601 59.6519 62.3498 59.6025 62.4509 59.3927C62.4956 59.3 62.4798 59.2001 62.4157 59.1708C62.3516 59.1415 62.2626 59.1934 62.2178 59.2861C62.1731 59.3788 62.0579 59.4187 61.9618 59.3747C61.8656 59.3307 61.7626 59.3453 61.7328 59.4071C61.703 59.4689 61.5999 59.4835 61.5038 59.4395C61.4076 59.3955 61.3536 59.3085 61.3836 59.2462C61.416 59.179 61.3125 59.1456 61.1299 59.1644C60.8698 59.1909 60.8127 59.1542 60.765 58.9299C60.7338 58.7836 60.6749 58.6486 60.6339 58.6298C60.5929 58.611 60.5165 58.6842 60.4642 58.7922C60.3963 58.9328 60.2603 58.9478 59.9873 58.8447C59.7774 58.7655 59.5359 58.7446 59.4507 58.7982C59.3656 58.8517 59.1112 58.8049 58.8856 58.6939C58.6408 58.5736 58.4497 58.5457 58.4115 58.6249C58.2895 58.8779 57.6997 58.9409 57.4328 58.7294C57.2767 58.6057 57.1549 58.5759 57.1181 58.6524C57.0851 58.7208 56.9392 58.7247 56.7939 58.6608C56.6486 58.5971 56.3638 58.5572 56.161 58.5722C55.6598 58.6092 55.1862 58.3806 55.0578 58.0395C54.9579 57.7735 54.9496 57.7733 54.9147 58.035C54.8828 58.2757 54.8168 58.2974 54.4221 58.1969C54.1715 58.1331 53.9488 58.0341 53.9272 57.9767C53.9057 57.9194 53.7246 57.9234 53.5252 57.9856C53.276 58.0634 52.9801 58.0235 52.5805 57.858C52.2603 57.7256 51.9473 57.6454 51.8847 57.6797C51.7839 57.7349 50.7856 57.4362 50.2568 57.1926C50.1491 57.1429 49.9636 57.1462 49.8446 57.1999C49.7257 57.2536 49.4577 57.2194 49.2491 57.124C49.0404 57.0285 48.6443 56.9401 48.369 56.9274C48.0935 56.9148 47.464 56.7771 46.9701 56.6211C46.4761 56.4653 45.8112 56.2815 45.4923 56.2126C45.1735 56.1437 44.7558 55.9807 44.5641 55.8501C44.3359 55.6948 44.0864 55.63 43.8415 55.6628C43.6357 55.6904 43.2423 55.6107 42.9672 55.4859C42.6921 55.3611 42.2167 55.2329 41.9105 55.2007C41.3541 55.1426 40.9748 54.9719 40.6678 54.641C40.5778 54.5443 40.5545 54.4336 40.6159 54.3951C40.6772 54.3564 40.6316 54.3177 40.5144 54.3089C40.3971 54.3003 40.2818 54.3334 40.2581 54.3825C40.1947 54.5141 39.3992 54.4215 38.8439 54.218C38.578 54.1204 37.8077 53.8261 37.1323 53.5639C35.911 53.0899 35.9048 53.0857 36.0211 52.8259C36.1361 52.5689 36.1344 52.5677 35.9243 52.7562C35.6483 53.0037 35.3023 52.9745 35.0788 52.6848C34.9815 52.5588 34.7462 52.4258 34.5558 52.3896C34.1375 52.3098 32.4002 51.5285 32.3512 51.398C32.332 51.3469 32.1939 51.3109 32.0444 51.3179C31.8622 51.3265 31.7905 51.2932 31.8272 51.2171C31.8591 51.1508 31.7222 51.0649 31.4975 51.0106C31.1601 50.9287 31.1357 50.8962 31.2979 50.7443C31.4739 50.5792 31.4685 50.5759 31.1821 50.6736C31.0169 50.73 30.7508 50.7163 30.5909 50.6431C30.431 50.57 30.1735 50.516 30.0187 50.5233C29.8082 50.5331 29.7546 50.5 29.8066 50.3919C29.8596 50.2813 29.4548 50.0483 28.0848 49.4009C27.0978 48.9344 26.2162 48.4539 26.1211 48.3307C26.0262 48.2077 25.8141 48.0455 25.6497 47.9702C25.4433 47.8758 25.3795 47.7722 25.4438 47.6359C25.5231 47.4675 25.5085 47.4557 25.3448 47.5563C25.1946 47.6486 24.9278 47.5662 24.1189 47.1778C23.5502 46.9046 23.0013 46.5727 22.899 46.44C22.7966 46.3074 22.4503 46.0762 22.1294 45.9265C21.74 45.7447 21.5502 45.5922 21.559 45.4683C21.5663 45.3661 21.5073 45.2896 21.4281 45.2981C21.3489 45.3066 21.1219 45.2001 20.9237 45.0613C20.6455 44.8668 20.599 44.7718 20.7199 44.6458C20.8442 44.5164 20.8369 44.5041 20.6848 44.5867C20.4592 44.7092 19.6491 44.2571 18.7577 43.5113C18.4512 43.2546 18.0191 42.9245 17.7978 42.7777C17.5763 42.6308 17.369 42.4141 17.3369 42.2959C17.3049 42.178 17.1606 42.0273 17.0162 41.9612C16.872 41.8952 16.5722 41.6678 16.3502 41.4559C16.1282 41.244 15.8556 41.0639 15.7442 41.0556C15.5102 41.0382 14.5479 40.1468 14.6143 40.0091C14.6387 39.9584 14.5116 39.8884 14.3318 39.8537C14.1484 39.8182 13.9599 39.6986 13.9027 39.5813C13.8465 39.4661 13.701 39.3381 13.5795 39.2966C13.1975 39.1664 13.1606 39.1054 13.3986 38.9979C13.6016 38.9062 13.5846 38.8901 13.2599 38.865C12.9551 38.8414 12.8649 38.7761 12.7471 38.4945C12.6685 38.3063 12.4204 38.0309 12.1957 37.8824C11.9709 37.7338 11.8056 37.5738 11.8283 37.5267C11.851 37.4798 11.8021 37.415 11.7198 37.383C11.6375 37.3508 11.3664 37.181 11.1175 37.0055C10.8013 36.7827 10.7156 36.6634 10.8336 36.6101C10.9536 36.556 10.8571 36.4635 10.5005 36.2911C10.2244 36.1576 9.90628 35.9039 9.79362 35.7275C9.68101 35.551 9.50581 35.3686 9.40431 35.3222C9.0997 35.1827 8.69156 34.5919 8.77724 34.4142C8.82119 34.3231 8.78289 34.2146 8.692 34.173C8.60121 34.1314 8.53099 34.0222 8.53588 33.93C8.54311 33.7962 8.52947 33.7899 8.46794 33.8989C8.37804 34.0583 8.01582 33.9283 8.09456 33.765C8.12377 33.7044 8.03532 33.5657 7.8978 33.4568C7.76038 33.3479 7.6534 33.183 7.66 33.0903C7.66654 32.9977 7.48537 32.7984 7.25723 32.6476C7.02897 32.4968 6.8164 32.242 6.78474 32.0814C6.7529 31.9209 6.64384 31.7833 6.54234 31.7758C6.43017 31.7674 6.39359 31.6784 6.44908 31.5491C6.4994 31.4321 6.486 31.3849 6.41917 31.4445C6.26926 31.5784 5.99844 31.327 6.08943 31.1383C6.1259 31.0626 6.05317 30.8816 5.92779 30.736C5.80241 30.5904 5.58764 30.3428 5.4506 30.1857C5.31361 30.0288 5.14996 29.784 5.087 29.642C4.65516 28.6676 4.53334 28.4435 4.3419 28.2721C4.17342 28.1211 4.17026 28.0271 4.32721 27.8409C4.52998 27.6003 4.40927 27.4022 4.19326 27.621C4.10214 27.7132 4.02549 27.673 3.84315 27.4375C3.6745 27.2197 3.65226 27.0475 3.76304 26.8178C3.87842 26.5785 3.86076 26.4741 3.69167 26.3967C3.56815 26.3402 3.42492 26.182 3.3735 26.0453C3.32207 25.9086 3.24608 25.7812 3.20459 25.7622C3.1631 25.7432 2.93353 25.206 2.69435 24.5683C2.45529 23.9307 2.21045 23.3865 2.15031 23.359C2.09019 23.3315 2.06128 23.2669 2.08604 23.2156C2.11081 23.1642 2.03261 22.9945 1.91227 22.8384C1.79192 22.6824 1.72429 22.4908 1.76195 22.4127C1.79962 22.3346 1.73724 22.1872 1.6233 22.0851C1.46049 21.9393 1.46089 21.8467 1.62494 21.6519C1.86683 21.365 1.80945 20.9896 1.52048 20.9682C1.4102 20.96 1.24892 20.7602 1.15853 20.5199C1.06888 20.2816 0.946456 20.0641 0.886323 20.0366C0.826307 20.0091 0.839127 19.907 0.914974 19.8096C0.990701 19.7121 1.00818 19.5195 0.953953 19.3815C0.835689 19.0807 0.957881 18.7008 1.14864 18.776C1.22348 18.8055 1.18884 18.7298 1.07162 18.608C0.954466 18.486 0.895816 18.3088 0.941502 18.2141C0.99044 18.1126 1.13349 18.0882 1.29014 18.1548C1.54917 18.2648 1.55004 18.2612 1.32365 18.0115C1.19594 17.8707 1.0157 17.7345 0.923143 17.7087C0.675954 17.6399 0.605036 17.138 0.811188 16.9163C0.966234 16.7497 0.955797 16.733 0.730992 16.7885C0.345179 16.8839 0.244519 16.6207 0.518329 16.2322C0.673086 16.0124 0.70786 15.8748 0.617987 15.8367C0.15294 15.6388 0.0949998 15.5445 0.246257 15.2308C0.335624 15.0455 0.341314 14.8434 0.259455 14.7609C0.180441 14.6814 0.177549 14.4883 0.253042 14.3317C0.338832 14.1538 0.324719 14.0173 0.215413 13.9672C0.103658 13.9161 0.0928004 13.779 0.185365 13.587C0.264977 13.4219 0.288923 13.1578 0.238664 13.0001C0.188343 12.8425 0.210405 12.5631 0.287512 12.3793C0.364737 12.1955 0.395588 11.9259 0.356031 11.7802C0.293713 11.5504 0.323583 11.5026 0.582631 11.4188C0.865649 11.3272 0.87013 11.335 0.66734 11.5673C0.503657 11.7549 0.501293 11.786 0.65708 11.6998C0.808574 11.616 0.842881 11.6254 0.791056 11.7364C0.703252 11.9241 1.21757 12.0909 1.37786 11.9266C1.45405 11.8486 1.41331 11.8021 1.25868 11.7906C1.10515 11.7792 0.99801 11.6601 0.949938 11.4474C0.905695 11.2518 0.727734 11.0403 0.504504 10.9179C0.176347 10.7383 0.155489 10.6874 0.326766 10.4841C0.535544 10.2364 0.465537 9.8972 0.178633 9.7659C-0.0100304 9.67956 0.194805 9.28542 0.44246 9.25827C0.618892 9.239 0.652728 8.83164 0.512897 8.41244C0.349952 7.92436 0.473318 7.52985 0.833934 7.38495C1.13756 7.26296 1.13732 7.25489 0.825014 7.11197C0.568531 6.99459 0.537683 6.93259 0.673283 6.80655C0.766794 6.71969 0.790998 6.66656 0.727142 6.68865C0.495468 6.7688 0.58061 5.71869 0.859444 5.05604C1.01666 4.68279 1.11825 4.36502 1.08527 4.34993C1.05235 4.33472 1.16253 4.00236 1.33026 3.61114C1.49804 3.22009 1.60285 2.85138 1.56329 2.79184C1.45655 2.63118 1.76832 1.75654 1.98907 1.59785C2.10195 1.51657 2.21351 1.26839 2.26146 0.991657C2.3366 0.557927 2.37939 0.511654 2.83737 0.370157C3.2623 0.238781 3.35142 0.251028 3.4681 0.456576ZM1.76076 7.07469C1.74906 7.09897 1.81813 7.15486 1.91427 7.19886C2.0104 7.24286 2.11269 7.22985 2.14158 7.16994C2.17041 7.11015 2.10134 7.05426 1.98808 7.04578C1.87476 7.03741 1.77247 7.05042 1.76076 7.07469ZM1.96848 9.59842C1.94343 9.64801 1.99039 9.6813 2.07291 9.67242C2.15543 9.66353 2.26336 9.57038 2.31283 9.46543C2.39016 9.30092 2.37577 9.29063 2.20839 9.39143C2.10157 9.45573 1.99364 9.54889 1.96848 9.59842ZM1.20032 10.3021C1.17051 10.3639 1.19857 10.4385 1.26266 10.4678C1.32675 10.4971 1.40358 10.4705 1.43339 10.4087C1.46319 10.3469 1.43514 10.2723 1.37105 10.243C1.30696 10.2137 1.23013 10.2402 1.20032 10.3021ZM2.6491 16.5902C2.57967 16.6339 2.60772 16.7084 2.71143 16.7559C2.81515 16.8034 2.89197 16.7768 2.88216 16.6968C2.87235 16.6169 2.8443 16.5423 2.81982 16.5311C2.79535 16.5199 2.71852 16.5465 2.6491 16.5902ZM1.29003 16.3112C1.24532 16.4039 1.2938 16.5187 1.39775 16.5663C1.55262 16.6372 1.57535 16.6104 1.52309 16.4179C1.48797 16.2886 1.43949 16.1738 1.41537 16.1628C1.39113 16.1517 1.33474 16.2185 1.29003 16.3112ZM1.79954 17.0246C1.76973 17.0864 1.80093 17.1624 1.86875 17.1934C1.93657 17.2245 1.98414 17.1845 1.97433 17.1046C1.96452 17.0246 1.93344 16.9486 1.90512 16.9357C1.8768 16.9227 1.82934 16.9628 1.79954 17.0246ZM2.37534 17.4931C2.36762 17.6023 2.42877 17.6843 2.51157 17.6754C2.60401 17.6655 2.61888 17.5942 2.55036 17.4903C2.40064 17.2636 2.39179 17.2636 2.37534 17.4931ZM1.84787 17.8094C1.80142 17.9057 1.83088 17.9773 1.9134 17.9685C1.99592 17.9596 2.08635 17.9048 2.11442 17.8466C2.1425 17.7883 2.11298 17.7168 2.04888 17.6875C1.98479 17.6581 1.89431 17.713 1.84787 17.8094ZM76.35 52.4714C76.4486 52.551 76.5025 52.6715 76.4699 52.739C76.4373 52.8066 76.4568 52.8459 76.5131 52.8264C76.6836 52.7674 76.5911 52.4861 76.3742 52.4038C76.1908 52.3343 76.1885 52.3409 76.35 52.4714ZM77.7741 54.0575C77.7663 54.1672 77.775 54.2637 77.7932 54.2721C77.8115 54.2805 77.8933 54.2253 77.975 54.1495C78.0645 54.0662 78.0569 53.9811 77.9558 53.9349C77.8548 53.8887 77.7827 53.9373 77.7741 54.0575ZM69.7756 50.3971C69.5871 50.4821 69.5885 50.5172 69.7841 50.6068C69.9133 50.6659 70.0857 50.6522 70.1674 50.5764C70.254 50.4958 70.2504 50.4086 70.1588 50.3666C70.0726 50.3272 69.9001 50.3409 69.7756 50.3971ZM1.11537 19.181C1.04492 19.2253 1.10851 19.3141 1.25903 19.3819C1.47626 19.4795 1.50507 19.4664 1.4067 19.3143C1.25497 19.08 1.26709 19.0855 1.11537 19.181ZM68.927 50.9367C68.9799 51.0773 69.0212 51.0766 69.09 50.9339C69.1407 50.8288 69.2377 50.7683 69.3055 50.7993C69.3733 50.8304 69.4208 50.79 69.411 50.7093C69.3999 50.6192 69.2898 50.5986 69.1247 50.6558C68.9243 50.725 68.8742 50.7964 68.927 50.9367ZM79.6688 55.6249C79.6895 55.6799 79.7881 55.73 79.8878 55.7359C79.9981 55.7426 79.9833 55.7034 79.8502 55.6358C79.7297 55.5748 79.6481 55.5699 79.6688 55.6249ZM84.3394 57.9539C84.3096 58.0157 84.3376 58.0903 84.4017 58.1196C84.4658 58.1489 84.5426 58.1223 84.5724 58.0605C84.6023 57.9987 84.5742 57.9241 84.5101 57.8948C84.446 57.8655 84.3692 57.892 84.3394 57.9539ZM69.7995 51.6514C69.9176 51.9655 69.9754 51.8914 69.9242 51.4909C69.9039 51.331 69.8452 51.2427 69.7941 51.2947C69.7428 51.3468 69.7453 51.5072 69.7995 51.6514ZM69.4122 51.8343C69.4061 51.9409 69.4466 51.9269 69.5153 51.7985C69.5775 51.6823 69.5819 51.6034 69.5253 51.6231C69.4686 51.6427 69.4176 51.7377 69.4122 51.8343ZM73.1176 53.4962C73.0896 53.5544 72.9991 53.6092 72.9166 53.6181C72.8341 53.627 72.8046 53.5553 72.8511 53.459C72.8975 53.3627 72.988 53.3078 73.0521 53.3371C73.1162 53.3664 73.1457 53.438 73.1176 53.4962ZM78.6299 56.2246C78.6167 56.2519 78.6433 56.3294 78.689 56.397C78.7347 56.4645 78.7979 56.4662 78.8294 56.4007C78.861 56.3353 78.8344 56.2577 78.7703 56.2284C78.7062 56.1991 78.643 56.1973 78.6299 56.2246ZM71.399 53.0092C71.2828 53.0498 71.1721 53.0413 71.153 52.9903C71.1338 52.9393 71.2288 52.906 71.3641 52.9164C71.5595 52.9314 71.5667 52.9504 71.399 53.0092ZM61.7015 56.3744C61.632 56.4181 61.6277 56.4779 61.6918 56.5072C61.7559 56.5365 61.8651 56.5248 61.9345 56.4811C62.004 56.4374 62.0083 56.3776 61.9442 56.3483C61.8801 56.319 61.7709 56.3307 61.7015 56.3744ZM11.5967 36.6257C11.5907 36.7323 11.6311 36.7183 11.6998 36.5899C11.762 36.4737 11.7664 36.3948 11.7098 36.4144C11.6531 36.434 11.6021 36.5291 11.5967 36.6257ZM14.9021 38.607C14.9228 38.6621 15.0214 38.7121 15.1211 38.7181C15.2314 38.7248 15.2166 38.6855 15.0835 38.618C14.963 38.557 14.8814 38.552 14.9021 38.607ZM13.8306 38.0943C13.7734 38.2129 13.973 38.3651 14.0896 38.2917C14.1601 38.2473 14.136 38.1736 14.0362 38.1279C13.9363 38.0822 13.8438 38.067 13.8306 38.0943ZM26.1202 44.6169C26.0488 44.6619 26.0864 44.7022 26.2086 44.7113C26.4465 44.7289 26.5223 44.6652 26.3547 44.5885C26.2943 44.5609 26.1889 44.5737 26.1202 44.6169ZM72.307 67.2727C72.2456 67.4 72.2599 67.4972 72.3388 67.4887C72.4177 67.4802 72.4886 67.3855 72.4962 67.2783C72.5158 67.0036 72.4379 67.0013 72.307 67.2727ZM24.5281 45.2618C24.4587 45.3055 24.4837 45.3787 24.5836 45.4244C24.6834 45.4701 24.7896 45.4569 24.8194 45.3951C24.8492 45.3333 24.8243 45.2602 24.764 45.2325C24.7036 45.2049 24.5975 45.2181 24.5281 45.2618ZM71.5764 67.4481C71.614 67.5594 72.0392 67.5112 72.0253 67.3971C72.0166 67.3263 71.9086 67.2988 71.7854 67.336C71.6622 67.3732 71.5681 67.4236 71.5764 67.4481ZM71.1774 67.8453C71.1476 67.9071 71.0677 67.9322 70.9998 67.9012C70.932 67.8702 70.9332 67.809 71.0026 67.7653C71.0721 67.7216 71.1519 67.6964 71.1802 67.7094C71.2086 67.7223 71.2072 67.7835 71.1774 67.8453ZM32.9229 51.0097C32.8963 51.0649 32.937 51.1729 33.0132 51.2498C33.106 51.3433 33.1565 51.3258 33.1657 51.1971C33.1807 50.9869 33.0008 50.8481 32.9229 51.0097ZM35.0852 52.4255C35.0554 52.4873 35.0834 52.5619 35.1475 52.5912C35.2116 52.6206 35.2884 52.594 35.3182 52.5322C35.348 52.4703 35.32 52.3958 35.2559 52.3664C35.1918 52.3371 35.115 52.3637 35.0852 52.4255ZM71.2747 69.4136C71.1968 69.5753 71.4213 69.6215 71.5777 69.4761C71.6736 69.387 71.6552 69.3379 71.5221 69.3281C71.4126 69.3199 71.3013 69.3585 71.2747 69.4136ZM70.932 69.8846C70.8323 69.8786 70.7337 69.8286 70.713 69.7736C70.6923 69.7185 70.7738 69.7235 70.8943 69.7845C71.0275 69.852 71.0422 69.8913 70.932 69.8846Z" fill="white"/>
</svg>
