<svg width="149" height="72" viewBox="0 0 149 72" fill="none" xmlns="http://www.w3.org/2000/svg">
<path d="M8.23 25.39C7.01 25.39 5.88 25.08 4.84 24.46C3.82 23.82 3 22.89 2.38 21.67C1.76 20.45 1.45 18.96 1.45 17.2C1.45 15.66 1.7 14.18 2.2 12.76C2.72 11.34 3.29 10.11 3.91 9.07C3.67 8.93 3.55 8.6 3.55 8.08C3.55 7.38 3.75 6.69 4.15 6.01C4.57 5.31 5.12 4.68 5.8 4.12C6.5 3.56 7.27 3.11 8.11 2.77C8.97 2.43 9.84 2.26 10.72 2.26C12.12 2.26 13.34 2.62 14.38 3.34C15.44 4.04 16.26 5.01 16.84 6.25C17.44 7.49 17.74 8.91 17.74 10.51C17.74 12.65 17.49 14.63 16.99 16.45C16.49 18.25 15.8 19.82 14.92 21.16C14.06 22.5 13.05 23.54 11.89 24.28C10.75 25.02 9.53 25.39 8.23 25.39ZM7.45 6.19C7.65 6.29 7.75 6.45 7.75 6.67C7.75 6.77 7.72 6.89 7.66 7.03C7.62 7.15 7.49 7.34 7.27 7.6C6.97 7.92 6.65 8.45 6.31 9.19C5.97 9.93 5.64 10.78 5.32 11.74C5 12.7 4.74 13.7 4.54 14.74C4.34 15.76 4.24 16.73 4.24 17.65C4.24 19.29 4.57 20.54 5.23 21.4C5.89 22.24 6.79 22.66 7.93 22.66C8.81 22.66 9.67 22.36 10.51 21.76C11.35 21.14 12.11 20.29 12.79 19.21C13.47 18.11 14.01 16.84 14.41 15.4C14.83 13.96 15.04 12.4 15.04 10.72C15.04 9.56 14.87 8.54 14.53 7.66C14.19 6.78 13.72 6.09 13.12 5.59C12.54 5.09 11.87 4.84 11.11 4.84C10.31 4.84 9.61 4.97 9.01 5.23C8.41 5.49 7.89 5.81 7.45 6.19ZM24.9707 32.92C23.4307 32.92 22.3007 32.77 21.5807 32.47C20.8607 32.17 20.5007 31.77 20.5007 31.27C20.5007 30.95 20.6007 30.69 20.8007 30.49C21.0207 30.29 21.2907 30.19 21.6107 30.19C21.9507 30.19 22.4407 30.24 23.0807 30.34C23.7207 30.46 24.3507 30.52 24.9707 30.52C27.0307 30.52 28.7207 29.91 30.0407 28.69C31.3607 27.47 32.3707 25.6 33.0707 23.08C33.7707 20.54 34.2407 17.3 34.4807 13.36C33.8807 14.58 33.2007 15.8 32.4407 17.02C31.7007 18.22 30.9007 19.32 30.0407 20.32C29.2007 21.3 28.3307 22.09 27.4307 22.69C26.5307 23.29 25.6407 23.59 24.7607 23.59C23.9207 23.59 23.3007 23.38 22.9007 22.96C22.5207 22.54 22.3307 21.85 22.3307 20.89C22.3307 20.03 22.5707 19.12 23.0507 18.16C23.5307 17.18 24.1707 16.2 24.9707 15.22C25.7707 14.24 26.6507 13.31 27.6107 12.43C28.5707 11.53 29.5307 10.74 30.4907 10.06C31.4707 9.36 32.3807 8.81 33.2207 8.41C34.0607 8.01 34.7407 7.81 35.2607 7.81C35.7807 7.81 36.1807 7.99 36.4607 8.35C36.7407 8.71 36.8807 9.39 36.8807 10.39C36.8807 12.73 36.8007 15.01 36.6407 17.23C36.5007 19.43 36.2107 21.48 35.7707 23.38C35.3307 25.28 34.6707 26.94 33.7907 28.36C32.9307 29.8 31.7807 30.92 30.3407 31.72C28.9007 32.52 27.1107 32.92 24.9707 32.92ZM33.9407 10.42C32.9407 11.06 31.9107 11.78 30.8507 12.58C29.7907 13.38 28.8007 14.23 27.8807 15.13C26.9807 16.03 26.2507 16.96 25.6907 17.92C25.1307 18.88 24.8507 19.84 24.8507 20.8C24.8507 21.1 25.0407 21.25 25.4207 21.25C25.7207 21.25 26.1307 21.02 26.6507 20.56C27.1907 20.08 27.7907 19.45 28.4507 18.67C29.1107 17.87 29.7807 17 30.4607 16.06C31.1607 15.1 31.8107 14.13 32.4107 13.15C33.0107 12.17 33.5207 11.26 33.9407 10.42ZM61.0841 25.99C60.5841 25.99 60.1741 25.85 59.8541 25.57C59.5541 25.31 59.4041 25.02 59.4041 24.7C59.4041 24.34 59.4541 24.07 59.5541 23.89C59.6741 23.69 59.9241 23.55 60.3041 23.47C61.2441 23.25 62.2141 22.99 63.2141 22.69C64.2341 22.37 65.1841 22.04 66.0641 21.7C66.9441 21.34 67.6541 20.99 68.1941 20.65C68.7541 20.31 69.0341 20.01 69.0341 19.75C69.0341 19.51 68.8141 19.28 68.3741 19.06C67.9341 18.82 67.3741 18.56 66.6941 18.28C66.0141 18 65.2841 17.69 64.5041 17.35C63.7241 17.01 62.9941 16.62 62.3141 16.18C61.6341 15.74 61.0741 15.24 60.6341 14.68C60.1941 14.1 59.9741 13.44 59.9741 12.7C59.9741 11.54 60.2541 10.46 60.8141 9.46C61.3941 8.44 62.1441 7.5 63.0641 6.64C63.9841 5.78 64.9941 4.99 66.0941 4.27C67.2141 3.53 68.3141 2.88 69.3941 2.32C70.4941 1.74 71.4741 1.23 72.3341 0.789999C72.6141 0.629998 72.8841 0.519999 73.1441 0.459999C73.4041 0.399999 73.6341 0.369999 73.8341 0.369999C74.4141 0.369999 74.8341 0.499999 75.0941 0.759999C75.3541 1.02 75.4841 1.32 75.4841 1.66C75.4841 1.94 75.3341 2.27 75.0341 2.65C74.7341 3.01 74.3041 3.33 73.7441 3.61C73.1841 3.89 72.5141 4.03 71.7341 4.03H71.4941C70.8141 4.39 70.0741 4.82 69.2741 5.32C68.4741 5.82 67.6841 6.37 66.9041 6.97C66.1241 7.57 65.4041 8.19 64.7441 8.83C64.1041 9.45 63.5841 10.05 63.1841 10.63C62.8041 11.21 62.6141 11.74 62.6141 12.22C62.6141 12.8 62.8341 13.32 63.2741 13.78C63.7141 14.24 64.2741 14.65 64.9541 15.01C65.6541 15.37 66.3841 15.72 67.1441 16.06C67.9241 16.4 68.6541 16.75 69.3341 17.11C70.0341 17.45 70.6041 17.83 71.0441 18.25C71.4841 18.65 71.7041 19.12 71.7041 19.66C71.7041 20.28 71.4841 20.87 71.0441 21.43C70.6241 21.99 70.0641 22.51 69.3641 22.99C68.6641 23.45 67.8941 23.87 67.0541 24.25C66.2341 24.61 65.4241 24.92 64.6241 25.18C63.8241 25.44 63.1041 25.64 62.4641 25.78C61.8441 25.92 61.3841 25.99 61.0841 25.99ZM86.4648 25.72C86.1248 25.72 85.8348 25.57 85.5948 25.27C85.3548 24.97 85.2348 24.53 85.2348 23.95C85.2348 23.27 85.3348 22.3 85.5348 21.04C85.7548 19.78 86.0748 18.11 86.4948 16.03C85.9548 17.31 85.3548 18.52 84.6948 19.66C84.0548 20.8 83.3748 21.73 82.6548 22.45C81.9348 23.17 81.1948 23.53 80.4348 23.53C79.6948 23.53 79.0348 23.24 78.4548 22.66C77.8948 22.08 77.6148 21.06 77.6148 19.6C77.6148 18.78 77.6848 17.86 77.8248 16.84C77.9648 15.8 78.1448 14.77 78.3648 13.75C78.5848 12.73 78.8048 11.82 79.0248 11.02C79.2448 10.2 79.4448 9.6 79.6248 9.22C79.7648 8.9 79.9048 8.69 80.0448 8.59C80.1848 8.47 80.3748 8.41 80.6148 8.41C80.8948 8.41 81.1948 8.53 81.5148 8.77C81.8348 9.01 81.9948 9.41 81.9948 9.97C81.9948 10.11 81.9248 10.44 81.7848 10.96C81.6648 11.46 81.5048 12.08 81.3048 12.82C81.1248 13.54 80.9348 14.32 80.7348 15.16C80.5348 16 80.3648 16.84 80.2248 17.68C80.1048 18.52 80.0448 19.29 80.0448 19.99C80.0448 20.37 80.0848 20.68 80.1648 20.92C80.2448 21.16 80.4448 21.28 80.7648 21.28C81.0448 21.28 81.3948 21 81.8148 20.44C82.2548 19.88 82.7248 19.14 83.2248 18.22C83.7448 17.28 84.2748 16.24 84.8148 15.1C85.3748 13.96 85.9148 12.79 86.4348 11.59C86.9748 10.39 87.4648 9.25 87.9048 8.17C88.0648 7.81 88.2348 7.59 88.4148 7.51C88.5948 7.41 88.7948 7.36 89.0148 7.36C89.3748 7.36 89.6948 7.51 89.9748 7.81C90.2748 8.09 90.4248 8.46 90.4248 8.92C90.4248 9.22 90.3648 9.74 90.2448 10.48C90.1448 11.22 89.9948 12.09 89.7948 13.09C89.6148 14.07 89.4048 15.11 89.1648 16.21C88.9448 17.31 88.7248 18.4 88.5048 19.48C88.2848 20.54 88.0748 21.51 87.8748 22.39C87.6948 23.27 87.5448 23.98 87.4248 24.52C87.3248 25.02 87.1848 25.34 87.0048 25.48C86.8448 25.64 86.6648 25.72 86.4648 25.72ZM95.7227 32.92C94.1827 32.92 93.0527 32.77 92.3327 32.47C91.6127 32.17 91.2527 31.77 91.2527 31.27C91.2527 30.95 91.3527 30.69 91.5527 30.49C91.7727 30.29 92.0427 30.19 92.3627 30.19C92.7027 30.19 93.1927 30.24 93.8327 30.34C94.4727 30.46 95.1027 30.52 95.7227 30.52C97.7827 30.52 99.4727 29.91 100.793 28.69C102.113 27.47 103.123 25.6 103.823 23.08C104.523 20.54 104.993 17.3 105.233 13.36C104.633 14.58 103.953 15.8 103.193 17.02C102.453 18.22 101.653 19.32 100.793 20.32C99.9527 21.3 99.0827 22.09 98.1827 22.69C97.2827 23.29 96.3927 23.59 95.5127 23.59C94.6727 23.59 94.0527 23.38 93.6527 22.96C93.2727 22.54 93.0827 21.85 93.0827 20.89C93.0827 20.03 93.3227 19.12 93.8027 18.16C94.2827 17.18 94.9227 16.2 95.7227 15.22C96.5227 14.24 97.4027 13.31 98.3627 12.43C99.3227 11.53 100.283 10.74 101.243 10.06C102.223 9.36 103.133 8.81 103.973 8.41C104.813 8.01 105.493 7.81 106.013 7.81C106.533 7.81 106.933 7.99 107.213 8.35C107.493 8.71 107.633 9.39 107.633 10.39C107.633 12.73 107.553 15.01 107.393 17.23C107.253 19.43 106.963 21.48 106.523 23.38C106.083 25.28 105.423 26.94 104.543 28.36C103.683 29.8 102.533 30.92 101.093 31.72C99.6527 32.52 97.8627 32.92 95.7227 32.92ZM104.693 10.42C103.693 11.06 102.663 11.78 101.603 12.58C100.543 13.38 99.5527 14.23 98.6327 15.13C97.7327 16.03 97.0027 16.96 96.4427 17.92C95.8827 18.88 95.6027 19.84 95.6027 20.8C95.6027 21.1 95.7927 21.25 96.1727 21.25C96.4727 21.25 96.8827 21.02 97.4027 20.56C97.9427 20.08 98.5427 19.45 99.2027 18.67C99.8627 17.87 100.533 17 101.213 16.06C101.913 15.1 102.563 14.13 103.163 13.15C103.763 12.17 104.273 11.26 104.693 10.42ZM114.173 25.78C113.413 25.78 112.783 25.43 112.283 24.73C111.803 24.01 111.563 23.08 111.563 21.94C111.563 20.88 111.823 19.83 112.343 18.79C112.883 17.75 113.593 16.75 114.473 15.79C115.353 14.83 116.313 13.95 117.353 13.15C118.393 12.33 119.433 11.62 120.473 11.02C121.533 10.42 122.503 9.95 123.383 9.61C124.263 9.27 124.963 9.1 125.483 9.1C125.763 9.1 125.993 9.16 126.173 9.28C126.353 9.38 126.443 9.57 126.443 9.85C126.443 10.03 126.373 10.2 126.233 10.36C126.253 10.36 126.273 10.36 126.293 10.36C126.733 10.36 126.953 10.62 126.953 11.14C126.953 11.32 126.883 11.69 126.743 12.25C126.603 12.79 126.443 13.47 126.263 14.29C126.083 15.11 125.923 16.02 125.783 17.02C125.643 18 125.573 19 125.573 20.02C125.573 20.88 125.903 21.31 126.563 21.31C127.303 21.31 128.053 21.14 128.813 20.8C129.573 20.46 130.313 20.05 131.033 19.57C131.753 19.07 132.413 18.58 133.013 18.1C133.613 17.6 134.123 17.18 134.543 16.84C134.963 16.5 135.263 16.33 135.443 16.33C135.603 16.33 135.743 16.38 135.863 16.48C135.983 16.58 136.043 16.74 136.043 16.96C136.043 17.16 135.843 17.52 135.443 18.04C135.043 18.56 134.513 19.15 133.853 19.81C133.193 20.47 132.453 21.11 131.633 21.73C130.813 22.35 129.973 22.86 129.113 23.26C128.253 23.66 127.433 23.86 126.653 23.86C126.053 23.86 125.503 23.68 125.003 23.32C124.523 22.94 124.133 22.3 123.833 21.4C123.553 20.5 123.413 19.26 123.413 17.68V16.93C122.433 18.55 121.403 20.03 120.323 21.37C119.263 22.71 118.203 23.78 117.143 24.58C116.103 25.38 115.113 25.78 114.173 25.78ZM124.913 11.26C124.813 11.3 124.673 11.36 124.493 11.44C123.573 11.86 122.613 12.38 121.613 13C120.633 13.62 119.673 14.31 118.733 15.07C117.813 15.83 116.983 16.62 116.243 17.44C115.503 18.26 114.913 19.09 114.473 19.93C114.033 20.77 113.813 21.59 113.813 22.39C113.813 22.65 113.863 22.85 113.963 22.99C114.083 23.13 114.283 23.2 114.563 23.2C114.963 23.2 115.483 22.95 116.123 22.45C116.763 21.93 117.463 21.25 118.223 20.41C119.003 19.57 119.783 18.64 120.563 17.62C121.343 16.6 122.083 15.57 122.783 14.53C123.503 13.49 124.123 12.53 124.643 11.65C124.723 11.51 124.813 11.38 124.913 11.26ZM135.425 25.57C135.105 25.57 134.835 25.44 134.615 25.18C134.395 24.92 134.285 24.56 134.285 24.1C134.285 23.76 134.355 23.2 134.495 22.42C134.655 21.62 134.825 20.69 135.005 19.63C135.205 18.57 135.375 17.47 135.515 16.33C135.655 15.17 135.725 14.06 135.725 13C135.725 12.48 135.855 12.1 136.115 11.86C136.395 11.6 136.705 11.47 137.045 11.47C137.365 11.47 137.605 11.67 137.765 12.07C137.925 12.47 137.955 13.27 137.855 14.47C138.775 12.43 139.785 10.79 140.885 9.55C142.005 8.29 143.115 7.39 144.215 6.85C145.315 6.29 146.305 6.01 147.185 6.01C147.765 6.01 148.185 6.13 148.445 6.37C148.725 6.59 148.865 6.84 148.865 7.12C148.865 7.5 148.705 7.8 148.385 8.02C148.085 8.22 147.555 8.46 146.795 8.74C145.915 9.08 145.105 9.48 144.365 9.94C143.645 10.38 142.955 10.96 142.295 11.68C141.655 12.4 141.025 13.32 140.405 14.44C139.785 15.54 139.165 16.9 138.545 18.52C137.925 20.14 137.265 22.09 136.565 24.37C136.445 24.81 136.285 25.12 136.085 25.3C135.905 25.48 135.685 25.57 135.425 25.57ZM142.102 34.45C141.482 34.61 141.072 34.6 140.872 34.42C140.672 34.24 140.572 34.04 140.572 33.82C140.572 33.66 140.622 33.5 140.722 33.34C140.822 33.2 141.012 33.04 141.292 32.86C142.292 32.24 143.102 31.34 143.722 30.16C144.322 29 144.802 27.67 145.162 26.17C145.522 24.69 145.802 23.18 146.002 21.64C146.062 21.24 146.172 20.96 146.332 20.8C146.492 20.64 146.672 20.56 146.872 20.56C147.372 20.56 147.812 20.77 148.192 21.19C148.592 21.59 148.792 22.21 148.792 23.05C148.792 24.45 148.582 25.79 148.162 27.07C147.742 28.35 147.192 29.51 146.512 30.55C145.832 31.59 145.102 32.45 144.322 33.13C143.542 33.81 142.802 34.25 142.102 34.45ZM14.59 71.8C14.15 71.8 13.78 71.63 13.48 71.29C13.2 70.95 13.06 70.39 13.06 69.61C13.06 69.35 13.09 69.07 13.15 68.77C13.21 68.45 13.32 68.13 13.48 67.81C12.48 65.33 11.64 62.92 10.96 60.58C10.28 58.24 9.7 55.79 9.22 53.23C8.58 54.55 7.97 55.92 7.39 57.34C6.83 58.74 6.3 60.11 5.8 61.45C5.3 62.79 4.85 64.04 4.45 65.2C4.05 66.36 3.7 67.36 3.4 68.2C3.08 69.2 2.76 69.87 2.44 70.21C2.12 70.57 1.79 70.75 1.45 70.75C0.99 70.75 0.64 70.64 0.4 70.42C0.18 70.2 0.0700002 69.81 0.0700002 69.25C0.0700002 68.83 0.18 68.18 0.4 67.3C0.62 66.42 0.92 65.4 1.3 64.24C1.7 63.08 2.15 61.86 2.65 60.58C3.15 59.3 3.68 58.05 4.24 56.83C4.82 55.61 5.4 54.51 5.98 53.53C6.56 52.53 7.11 51.74 7.63 51.16C8.17 50.56 8.66 50.26 9.1 50.26C9.56 50.26 9.95 50.35 10.27 50.53C10.61 50.71 10.98 51.18 11.38 51.94C11.64 52.46 11.94 53.22 12.28 54.22C12.62 55.2 12.96 56.31 13.3 57.55C13.64 58.77 13.97 60.03 14.29 61.33C14.61 62.61 14.89 63.8 15.13 64.9C15.93 61.2 16.63 57.96 17.23 55.18C17.83 52.38 18.29 50.19 18.61 48.61C18.95 47.03 19.13 46.2 19.15 46.12C19.27 45.6 19.4 45.28 19.54 45.16C19.68 45.04 19.88 44.98 20.14 44.98C20.5 44.98 20.85 45.13 21.19 45.43C21.55 45.71 21.73 46.1 21.73 46.6C21.73 46.84 21.67 47.39 21.55 48.25C21.45 49.11 21.29 50.19 21.07 51.49C20.87 52.77 20.61 54.2 20.29 55.78C19.97 57.34 19.6 58.97 19.18 60.67C18.76 62.35 18.29 64.02 17.77 65.68C17.27 67.32 16.72 68.87 16.12 70.33C15.9 70.89 15.64 71.27 15.34 71.47C15.06 71.69 14.81 71.8 14.59 71.8ZM45.1898 71.08C44.6098 71.08 44.1998 70.89 43.9598 70.51C43.7198 70.13 43.5998 69.48 43.5998 68.56C43.5998 67.82 43.6898 66.9 43.8698 65.8C44.0698 64.7 44.3098 63.49 44.5898 62.17C44.8698 60.83 45.1598 59.45 45.4598 58.03C44.2398 59.69 42.8898 61.02 41.4098 62.02C39.9498 63 38.3298 63.64 36.5498 63.94C36.1298 64.92 35.6498 65.81 35.1098 66.61C34.5698 67.41 33.9798 68.05 33.3398 68.53C32.6998 69.01 32.0298 69.25 31.3298 69.25C30.4698 69.25 29.7398 68.9 29.1398 68.2C28.5598 67.5 28.2698 66.48 28.2698 65.14C28.2698 64.22 28.3898 63.4 28.6298 62.68C28.8698 61.94 29.1398 61.41 29.4398 61.09C29.1598 60.35 29.0198 59.5 29.0198 58.54C29.0198 57.36 29.2898 56.32 29.8298 55.42C30.3698 54.5 31.0898 53.79 31.9898 53.29C32.8898 52.77 33.8598 52.51 34.8998 52.51C35.7398 52.51 36.4898 52.9 37.1498 53.68C37.8098 54.46 38.1398 55.58 38.1398 57.04C38.1398 58.4 37.8998 59.91 37.4198 61.57C38.5198 61.15 39.6198 60.51 40.7198 59.65C41.8398 58.79 42.9198 57.76 43.9598 56.56C44.9998 55.36 45.9398 54.03 46.7798 52.57C46.9998 52.21 47.3098 52.03 47.7098 52.03C48.0698 52.03 48.3498 52.14 48.5498 52.36C48.7698 52.56 48.8798 52.84 48.8798 53.2C48.8798 53.3 48.8198 53.64 48.6998 54.22C48.5998 54.8 48.4598 55.54 48.2798 56.44C48.1198 57.34 47.9398 58.33 47.7398 59.41C47.5398 60.49 47.3398 61.58 47.1398 62.68C46.9598 63.78 46.8098 64.8 46.6898 65.74C47.1498 64.86 47.6698 63.9 48.2498 62.86C48.8298 61.82 49.4198 60.8 50.0198 59.8C50.6398 58.78 51.2298 57.85 51.7898 57.01C52.3698 56.17 52.8798 55.5 53.3198 55C53.7798 54.48 54.1398 54.22 54.3998 54.22C54.8798 54.22 55.2998 54.38 55.6598 54.7C56.0198 55.02 56.1998 55.35 56.1998 55.69C56.1998 56.15 56.1498 56.85 56.0498 57.79C55.9498 58.71 55.8298 59.75 55.6898 60.91C55.5498 62.07 55.4098 63.23 55.2698 64.39C55.1298 65.55 55.0098 66.6 54.9098 67.54C54.8098 68.48 54.7598 69.18 54.7598 69.64C54.7598 69.94 54.6298 70.21 54.3698 70.45C54.1098 70.69 53.8198 70.81 53.4998 70.81C53.2798 70.81 53.0898 70.74 52.9298 70.6C52.7898 70.48 52.6798 70.2 52.5998 69.76C52.5198 69.32 52.4798 68.64 52.4798 67.72C52.4798 66.82 52.5098 65.84 52.5698 64.78C52.6298 63.7 52.7098 62.63 52.8098 61.57C52.9298 60.49 53.0598 59.52 53.1998 58.66C52.7398 59.42 52.2098 60.33 51.6098 61.39C51.0298 62.45 50.4198 63.54 49.7798 64.66C49.1398 65.78 48.5198 66.83 47.9198 67.81C47.3198 68.79 46.7798 69.58 46.2998 70.18C45.8198 70.78 45.4498 71.08 45.1898 71.08ZM34.7798 62.05C35.0198 61.29 35.2098 60.48 35.3498 59.62C35.5098 58.74 35.5898 57.86 35.5898 56.98C35.5898 56.46 35.4898 56.04 35.2898 55.72C35.0898 55.4 34.8198 55.24 34.4798 55.24C33.9598 55.24 33.4498 55.39 32.9498 55.69C32.4498 55.97 32.0298 56.37 31.6898 56.89C31.3698 57.41 31.2098 58.03 31.2098 58.75C31.2098 59.65 31.5498 60.42 32.2298 61.06C32.9298 61.68 33.7798 62.01 34.7798 62.05ZM33.9698 64.12C32.6098 64.06 31.5098 63.66 30.6698 62.92C30.6298 63.18 30.5898 63.43 30.5498 63.67C30.5098 63.89 30.4898 64.11 30.4898 64.33C30.4898 64.95 30.5898 65.44 30.7898 65.8C31.0098 66.14 31.3398 66.31 31.7798 66.31C32.1398 66.31 32.5098 66.11 32.8898 65.71C33.2698 65.31 33.6298 64.78 33.9698 64.12ZM73.7889 57.07C73.7889 57.71 73.5889 58.34 73.1889 58.96C72.7889 59.56 72.2589 60.14 71.5989 60.7C70.9389 61.24 70.2089 61.75 69.4089 62.23C68.6089 62.71 67.8089 63.13 67.0089 63.49C66.2089 63.85 65.4789 64.14 64.8189 64.36C64.6589 65.14 64.5789 65.83 64.5789 66.43C64.5789 66.81 64.6689 67.08 64.8489 67.24C65.0289 67.4 65.3089 67.48 65.6889 67.48C66.5289 67.48 67.4189 67.33 68.3589 67.03C69.2989 66.73 70.2589 66.34 71.2389 65.86C72.2189 65.38 73.1589 64.87 74.0589 64.33C74.9589 63.79 75.7789 63.28 76.5189 62.8C77.2789 62.32 77.9089 61.93 78.4089 61.63C78.9089 61.33 79.2389 61.18 79.3989 61.18C79.6389 61.18 79.8189 61.26 79.9389 61.42C80.0789 61.56 80.1489 61.73 80.1489 61.93C80.1489 62.09 79.8989 62.4 79.3989 62.86C78.9189 63.32 78.2689 63.86 77.4489 64.48C76.6289 65.08 75.7089 65.7 74.6889 66.34C73.6689 66.98 72.6089 67.58 71.5089 68.14C70.4289 68.7 69.3789 69.15 68.3589 69.49C67.3589 69.83 66.4589 70 65.6589 70C64.6189 70 63.8089 69.61 63.2289 68.83C62.6489 68.05 62.3589 66.84 62.3589 65.2C62.3589 64.1 62.4989 62.99 62.7789 61.87C63.0789 60.75 63.4789 59.68 63.9789 58.66C64.4989 57.62 65.0689 56.7 65.6889 55.9C66.3289 55.08 66.9989 54.44 67.6989 53.98C68.3989 53.5 69.0789 53.26 69.7389 53.26C70.9989 53.26 71.9889 53.61 72.7089 54.31C73.4289 55.01 73.7889 55.93 73.7889 57.07ZM65.4489 62.05C66.0689 61.67 66.7089 61.27 67.3689 60.85C68.0289 60.43 68.6389 60 69.1989 59.56C69.7589 59.12 70.2089 58.66 70.5489 58.18C70.9089 57.68 71.0889 57.17 71.0889 56.65C71.0889 55.91 70.6889 55.54 69.8889 55.54C69.3889 55.54 68.8589 55.86 68.2989 56.5C67.7589 57.12 67.2389 57.93 66.7389 58.93C66.2389 59.93 65.8089 60.97 65.4489 62.05ZM82.7943 62.59C82.6143 62.59 82.4543 62.5 82.3143 62.32C82.1943 62.12 82.1343 61.86 82.1343 61.54C82.1343 61.1 82.2143 60.41 82.3743 59.47C82.5543 58.51 82.7843 57.4 83.0643 56.14C83.3643 54.86 83.7043 53.53 84.0843 52.15C84.4843 50.77 84.9043 49.42 85.3443 48.1C85.7843 46.76 86.2243 45.57 86.6643 44.53C86.9643 43.83 87.3343 43.48 87.7743 43.48C88.2343 43.48 88.6543 43.7 89.0343 44.14C89.4143 44.58 89.6043 45.12 89.6043 45.76C89.6043 46 89.4843 46.45 89.2443 47.11C89.0243 47.77 88.7243 48.57 88.3443 49.51C87.9843 50.45 87.5843 51.46 87.1443 52.54C86.7043 53.62 86.2543 54.72 85.7943 55.84C85.3543 56.94 84.9443 57.98 84.5643 58.96C84.1843 59.94 83.8843 60.79 83.6643 61.51C83.5243 61.95 83.3943 62.24 83.2743 62.38C83.1543 62.52 82.9943 62.59 82.7943 62.59ZM81.0243 71.53C80.7243 71.53 80.4143 71.36 80.0943 71.02C79.7743 70.68 79.6143 69.99 79.6143 68.95C79.6143 68.37 79.8043 67.94 80.1843 67.66C80.5643 67.36 81.0543 67.21 81.6543 67.21C82.6743 67.21 83.1843 67.74 83.1843 68.8C83.1843 69.3 83.0643 69.75 82.8243 70.15C82.5843 70.57 82.2943 70.9 81.9543 71.14C81.6343 71.4 81.3243 71.53 81.0243 71.53Z" fill="white"/>
</svg>
